<ttFont>
    <TTGlyph name="A" xMin="-50" yMin="0" xMax="578" yMax="710">
      <contour>
        <pt x="365" y="710" on="1"/>
        <pt x="464" y="710" on="1"/>
        <pt x="578" y="0" on="1"/>
        <pt x="460" y="0" on="1"/>
        <pt x="432" y="193" on="1"/>
        <pt x="177" y="193" on="1"/>
        <pt x="68" y="0" on="1"/>
        <pt x="-50" y="0" on="1"/>
      </contour>
      <contour>
        <pt x="428" y="276" on="1"/>
        <pt x="388" y="581" on="1"/>
        <pt x="214" y="276" on="1"/>
      </contour>
    </TTGlyph>
    <TTGlyph name="A.sc" xMin="-50" yMin="0" xMax="497" yMax="555">
      <contour>
        <pt x="301" y="555" on="1"/>
        <pt x="383" y="555" on="1"/>
        <pt x="497" y="0" on="1"/>
        <pt x="393" y="0" on="1"/>
        <pt x="364" y="144" on="1"/>
        <pt x="146" y="144" on="1"/>
        <pt x="57" y="0" on="1"/>
        <pt x="-50" y="0" on="1"/>
      </contour>
      <contour>
        <pt x="359" y="230" on="1"/>
        <pt x="316" y="433" on="1"/>
        <pt x="186" y="230" on="1"/>
      </contour>
    </TTGlyph>
    <TTGlyph name="AE" xMin="-80" yMin="0" xMax="970" yMax="710">
      <contour>
        <pt x="495" y="710" on="1"/>
        <pt x="970" y="710" on="1"/>
        <pt x="948" y="611" on="1"/>
        <pt x="616" y="611" on="1"/>
        <pt x="574" y="411" on="1"/>
        <pt x="855" y="411" on="1"/>
        <pt x="834" y="312" on="1"/>
        <pt x="553" y="312" on="1"/>
        <pt x="507" y="99" on="1"/>
        <pt x="848" y="99" on="1"/>
        <pt x="827" y="0" on="1"/>
        <pt x="374" y="0" on="1"/>
        <pt x="416" y="193" on="1"/>
        <pt x="191" y="193" on="1"/>
        <pt x="41" y="0" on="1"/>
        <pt x="-80" y="0" on="1"/>
      </contour>
      <contour>
        <pt x="428" y="293" on="1"/>
        <pt x="490" y="581" on="1"/>
        <pt x="261" y="293" on="1"/>
      </contour>
    </TTGlyph>
    <TTGlyph name="AEacute" xMin="-80" yMin="0" xMax="970" yMax="916">
      <contour>
        <pt x="605" y="788" on="1"/>
        <pt x="535" y="806" on="1"/>
        <pt x="611" y="916" on="1"/>
        <pt x="716" y="916" on="1"/>
      </contour>
      <contour>
        <pt x="495" y="710" on="1"/>
        <pt x="970" y="710" on="1"/>
        <pt x="948" y="611" on="1"/>
        <pt x="616" y="611" on="1"/>
        <pt x="574" y="411" on="1"/>
        <pt x="855" y="411" on="1"/>
        <pt x="834" y="312" on="1"/>
        <pt x="553" y="312" on="1"/>
        <pt x="507" y="99" on="1"/>
        <pt x="848" y="99" on="1"/>
        <pt x="827" y="0" on="1"/>
        <pt x="374" y="0" on="1"/>
        <pt x="416" y="193" on="1"/>
        <pt x="191" y="193" on="1"/>
        <pt x="41" y="0" on="1"/>
        <pt x="-80" y="0" on="1"/>
      </contour>
      <contour>
        <pt x="428" y="293" on="1"/>
        <pt x="490" y="581" on="1"/>
        <pt x="261" y="293" on="1"/>
      </contour>
    </TTGlyph>
    <TTGlyph name="Aacute" xMin="-50" yMin="0" xMax="578" yMax="916">
      <contour>
        <pt x="365" y="710" on="1"/>
        <pt x="464" y="710" on="1"/>
        <pt x="578" y="0" on="1"/>
        <pt x="460" y="0" on="1"/>
        <pt x="432" y="193" on="1"/>
        <pt x="177" y="193" on="1"/>
        <pt x="68" y="0" on="1"/>
        <pt x="-50" y="0" on="1"/>
      </contour>
      <contour>
        <pt x="428" y="276" on="1"/>
        <pt x="388" y="581" on="1"/>
        <pt x="214" y="276" on="1"/>
      </contour>
      <contour>
        <pt x="438" y="788" on="1"/>
        <pt x="368" y="806" on="1"/>
        <pt x="444" y="916" on="1"/>
        <pt x="549" y="916" on="1"/>
      </contour>
    </TTGlyph>
    <TTGlyph name="Abreve" xMin="-50" yMin="0" xMax="578" yMax="916">
      <contour>
        <pt x="365" y="710" on="1"/>
        <pt x="464" y="710" on="1"/>
        <pt x="578" y="0" on="1"/>
        <pt x="460" y="0" on="1"/>
        <pt x="432" y="193" on="1"/>
        <pt x="177" y="193" on="1"/>
        <pt x="68" y="0" on="1"/>
        <pt x="-50" y="0" on="1"/>
      </contour>
      <contour>
        <pt x="428" y="276" on="1"/>
        <pt x="388" y="581" on="1"/>
        <pt x="214" y="276" on="1"/>
      </contour>
      <contour>
        <pt x="435" y="845" on="1"/>
        <pt x="456" y="845" on="0"/>
        <pt x="496" y="885" on="0"/>
        <pt x="505" y="916" on="1"/>
        <pt x="566" y="916" on="1"/>
        <pt x="560" y="890" on="0"/>
        <pt x="533" y="845" on="0"/>
        <pt x="495" y="812" on="0"/>
        <pt x="449" y="794" on="0"/>
        <pt x="424" y="794" on="1"/>
        <pt x="381" y="794" on="0"/>
        <pt x="330" y="845" on="0"/>
        <pt x="330" y="887" on="1"/>
        <pt x="330" y="895" on="0"/>
        <pt x="332" y="909" on="0"/>
        <pt x="334" y="916" on="1"/>
        <pt x="395" y="916" on="1"/>
        <pt x="394" y="911" on="0"/>
        <pt x="393" y="903" on="0"/>
        <pt x="393" y="898" on="1"/>
        <pt x="393" y="876" on="0"/>
        <pt x="416" y="845" on="0"/>
      </contour>
    </TTGlyph>
    <TTGlyph name="Acircumflex" xMin="-50" yMin="0" xMax="578" yMax="916">
      <contour>
        <pt x="365" y="710" on="1"/>
        <pt x="464" y="710" on="1"/>
        <pt x="578" y="0" on="1"/>
        <pt x="460" y="0" on="1"/>
        <pt x="432" y="193" on="1"/>
        <pt x="177" y="193" on="1"/>
        <pt x="68" y="0" on="1"/>
        <pt x="-50" y="0" on="1"/>
      </contour>
      <contour>
        <pt x="428" y="276" on="1"/>
        <pt x="388" y="581" on="1"/>
        <pt x="214" y="276" on="1"/>
      </contour>
      <contour>
        <pt x="300" y="821" on="1"/>
        <pt x="419" y="916" on="1"/>
        <pt x="499" y="916" on="1"/>
        <pt x="577" y="821" on="1"/>
        <pt x="513" y="793" on="1"/>
        <pt x="446" y="856" on="1"/>
        <pt x="352" y="793" on="1"/>
      </contour>
    </TTGlyph>
    <TTGlyph name="Adblgrave" xMin="-50" yMin="0" xMax="578" yMax="918">
      <contour>
        <pt x="365" y="710" on="1"/>
        <pt x="464" y="710" on="1"/>
        <pt x="578" y="0" on="1"/>
        <pt x="460" y="0" on="1"/>
        <pt x="432" y="193" on="1"/>
        <pt x="177" y="193" on="1"/>
        <pt x="68" y="0" on="1"/>
        <pt x="-50" y="0" on="1"/>
      </contour>
      <contour>
        <pt x="428" y="276" on="1"/>
        <pt x="388" y="581" on="1"/>
        <pt x="214" y="276" on="1"/>
      </contour>
      <contour>
        <pt x="434" y="918" on="1"/>
        <pt x="521" y="918" on="1"/>
        <pt x="546" y="808" on="1"/>
        <pt x="486" y="789" on="1"/>
      </contour>
      <contour>
        <pt x="290" y="918" on="1"/>
        <pt x="379" y="918" on="1"/>
        <pt x="403" y="808" on="1"/>
        <pt x="342" y="789" on="1"/>
      </contour>
    </TTGlyph>
    <TTGlyph name="Adieresis" xMin="-50" yMin="0" xMax="578" yMax="912">
      <contour>
        <pt x="365" y="710" on="1"/>
        <pt x="464" y="710" on="1"/>
        <pt x="578" y="0" on="1"/>
        <pt x="460" y="0" on="1"/>
        <pt x="432" y="193" on="1"/>
        <pt x="177" y="193" on="1"/>
        <pt x="68" y="0" on="1"/>
        <pt x="-50" y="0" on="1"/>
      </contour>
      <contour>
        <pt x="428" y="276" on="1"/>
        <pt x="388" y="581" on="1"/>
        <pt x="214" y="276" on="1"/>
      </contour>
      <contour>
        <pt x="291" y="802" on="1"/>
        <pt x="315" y="912" on="1"/>
        <pt x="406" y="912" on="1"/>
        <pt x="383" y="802" on="1"/>
      </contour>
      <contour>
        <pt x="463" y="802" on="1"/>
        <pt x="486" y="912" on="1"/>
        <pt x="577" y="912" on="1"/>
        <pt x="554" y="802" on="1"/>
      </contour>
    </TTGlyph>
    <TTGlyph name="Agrave" xMin="-50" yMin="0" xMax="578" yMax="917">
      <contour>
        <pt x="365" y="710" on="1"/>
        <pt x="464" y="710" on="1"/>
        <pt x="578" y="0" on="1"/>
        <pt x="460" y="0" on="1"/>
        <pt x="432" y="193" on="1"/>
        <pt x="177" y="193" on="1"/>
        <pt x="68" y="0" on="1"/>
        <pt x="-50" y="0" on="1"/>
      </contour>
      <contour>
        <pt x="428" y="276" on="1"/>
        <pt x="388" y="581" on="1"/>
        <pt x="214" y="276" on="1"/>
      </contour>
      <contour>
        <pt x="332" y="917" on="1"/>
        <pt x="436" y="917" on="1"/>
        <pt x="466" y="807" on="1"/>
        <pt x="390" y="788" on="1"/>
      </contour>
    </TTGlyph>
    <TTGlyph name="Ainvertedbreve" xMin="-50" yMin="0" xMax="578" yMax="916">
      <contour>
        <pt x="365" y="710" on="1"/>
        <pt x="464" y="710" on="1"/>
        <pt x="578" y="0" on="1"/>
        <pt x="460" y="0" on="1"/>
        <pt x="432" y="193" on="1"/>
        <pt x="177" y="193" on="1"/>
        <pt x="68" y="0" on="1"/>
        <pt x="-50" y="0" on="1"/>
      </contour>
      <contour>
        <pt x="428" y="276" on="1"/>
        <pt x="388" y="581" on="1"/>
        <pt x="214" y="276" on="1"/>
      </contour>
      <contour>
        <pt x="314" y="794" on="1"/>
        <pt x="320" y="820" on="0"/>
        <pt x="347" y="865" on="0"/>
        <pt x="384" y="898" on="0"/>
        <pt x="430" y="916" on="0"/>
        <pt x="455" y="916" on="1"/>
        <pt x="498" y="916" on="0"/>
        <pt x="549" y="861" on="0"/>
        <pt x="549" y="821" on="1"/>
        <pt x="549" y="814" on="0"/>
        <pt x="547" y="801" on="0"/>
        <pt x="545" y="794" on="1"/>
        <pt x="486" y="794" on="1"/>
        <pt x="487" y="802" on="0"/>
        <pt x="488" y="814" on="0"/>
        <pt x="488" y="821" on="1"/>
        <pt x="488" y="865" on="0"/>
        <pt x="446" y="865" on="1"/>
        <pt x="416" y="865" on="0"/>
        <pt x="382" y="827" on="0"/>
        <pt x="374" y="794" on="1"/>
      </contour>
    </TTGlyph>
    <TTGlyph name="Amacron" xMin="-50" yMin="0" xMax="592" yMax="898">
      <contour>
        <pt x="365" y="710" on="1"/>
        <pt x="464" y="710" on="1"/>
        <pt x="578" y="0" on="1"/>
        <pt x="460" y="0" on="1"/>
        <pt x="432" y="193" on="1"/>
        <pt x="177" y="193" on="1"/>
        <pt x="68" y="0" on="1"/>
        <pt x="-50" y="0" on="1"/>
      </contour>
      <contour>
        <pt x="428" y="276" on="1"/>
        <pt x="388" y="581" on="1"/>
        <pt x="214" y="276" on="1"/>
      </contour>
      <contour>
        <pt x="295" y="828" on="1"/>
        <pt x="309" y="898" on="1"/>
        <pt x="592" y="898" on="1"/>
        <pt x="577" y="828" on="1"/>
      </contour>
    </TTGlyph>
    <TTGlyph name="Aogonek" xMin="-50" yMin="-188" xMax="578" yMax="710">
      <contour>
        <pt x="495" y="-188" on="1"/>
        <pt x="453" y="-181" on="0"/>
        <pt x="413" y="-143" on="0"/>
        <pt x="413" y="-118" on="1"/>
        <pt x="413" y="-89" on="0"/>
        <pt x="461" y="-30" on="0"/>
        <pt x="512" y="0" on="1"/>
        <pt x="460" y="0" on="1"/>
        <pt x="432" y="193" on="1"/>
        <pt x="177" y="193" on="1"/>
        <pt x="68" y="0" on="1"/>
        <pt x="-50" y="0" on="1"/>
        <pt x="365" y="710" on="1"/>
        <pt x="464" y="710" on="1"/>
        <pt x="578" y="0" on="1"/>
        <pt x="527" y="-29" on="0"/>
        <pt x="483" y="-74" on="0"/>
        <pt x="483" y="-95" on="1"/>
        <pt x="483" y="-127" on="0"/>
        <pt x="531" y="-130" on="1"/>
      </contour>
      <contour>
        <pt x="428" y="276" on="1"/>
        <pt x="388" y="581" on="1"/>
        <pt x="214" y="276" on="1"/>
      </contour>
    </TTGlyph>
    <TTGlyph name="Aring" xMin="-50" yMin="0" xMax="578" yMax="916">
      <contour>
        <pt x="365" y="710" on="1"/>
        <pt x="464" y="710" on="1"/>
        <pt x="578" y="0" on="1"/>
        <pt x="460" y="0" on="1"/>
        <pt x="432" y="193" on="1"/>
        <pt x="177" y="193" on="1"/>
        <pt x="68" y="0" on="1"/>
        <pt x="-50" y="0" on="1"/>
      </contour>
      <contour>
        <pt x="428" y="276" on="1"/>
        <pt x="388" y="581" on="1"/>
        <pt x="214" y="276" on="1"/>
      </contour>
      <contour>
        <pt x="352" y="829" on="1"/>
        <pt x="352" y="869" on="0"/>
        <pt x="412" y="916" on="0"/>
        <pt x="456" y="916" on="1"/>
        <pt x="491" y="916" on="0"/>
        <pt x="528" y="885" on="0"/>
        <pt x="528" y="857" on="1"/>
        <pt x="528" y="818" on="0"/>
        <pt x="470" y="770" on="0"/>
        <pt x="425" y="770" on="1"/>
        <pt x="391" y="770" on="0"/>
        <pt x="352" y="802" on="0"/>
      </contour>
      <contour>
        <pt x="448" y="880" on="1"/>
        <pt x="430" y="880" on="0"/>
        <pt x="402" y="856" on="0"/>
        <pt x="402" y="837" on="1"/>
        <pt x="402" y="824" on="0"/>
        <pt x="419" y="806" on="0"/>
        <pt x="433" y="806" on="1"/>
        <pt x="450" y="806" on="0"/>
        <pt x="480" y="831" on="0"/>
        <pt x="480" y="850" on="1"/>
        <pt x="480" y="864" on="0"/>
        <pt x="462" y="880" on="0"/>
      </contour>
    </TTGlyph>
    <TTGlyph name="Aringacute" xMin="-50" yMin="0" xMax="586" yMax="920">
      <contour>
        <pt x="484" y="809" on="1"/>
        <pt x="509" y="793" on="0"/>
        <pt x="509" y="761" on="1"/>
        <pt x="509" y="738" on="0"/>
        <pt x="487" y="700" on="0"/>
        <pt x="467" y="689" on="1"/>
        <pt x="578" y="0" on="1"/>
        <pt x="460" y="0" on="1"/>
        <pt x="432" y="193" on="1"/>
        <pt x="177" y="193" on="1"/>
        <pt x="68" y="0" on="1"/>
        <pt x="-50" y="0" on="1"/>
        <pt x="353" y="689" on="1"/>
        <pt x="333" y="706" on="0"/>
        <pt x="333" y="733" on="1"/>
        <pt x="333" y="765" on="0"/>
        <pt x="373" y="808" on="0"/>
        <pt x="405" y="816" on="1"/>
        <pt x="481" y="920" on="1"/>
        <pt x="586" y="920" on="1"/>
      </contour>
      <contour>
        <pt x="428" y="276" on="1"/>
        <pt x="388" y="581" on="1"/>
        <pt x="214" y="276" on="1"/>
      </contour>
      <contour>
        <pt x="429" y="784" on="1"/>
        <pt x="411" y="784" on="0"/>
        <pt x="383" y="760" on="0"/>
        <pt x="383" y="741" on="1"/>
        <pt x="383" y="728" on="0"/>
        <pt x="400" y="710" on="0"/>
        <pt x="414" y="710" on="1"/>
        <pt x="431" y="710" on="0"/>
        <pt x="461" y="735" on="0"/>
        <pt x="461" y="754" on="1"/>
        <pt x="461" y="768" on="0"/>
        <pt x="443" y="784" on="0"/>
      </contour>
    </TTGlyph>
    <TTGlyph name="Atilde" xMin="-50" yMin="0" xMax="627" yMax="916">
      <contour>
        <pt x="365" y="710" on="1"/>
        <pt x="464" y="710" on="1"/>
        <pt x="578" y="0" on="1"/>
        <pt x="460" y="0" on="1"/>
        <pt x="432" y="193" on="1"/>
        <pt x="177" y="193" on="1"/>
        <pt x="68" y="0" on="1"/>
        <pt x="-50" y="0" on="1"/>
      </contour>
      <contour>
        <pt x="428" y="276" on="1"/>
        <pt x="388" y="581" on="1"/>
        <pt x="214" y="276" on="1"/>
      </contour>
      <contour>
        <pt x="492" y="801" on="1"/>
        <pt x="471" y="801" on="0"/>
        <pt x="441" y="814" on="0"/>
        <pt x="417" y="831" on="0"/>
        <pt x="393" y="844" on="0"/>
        <pt x="377" y="844" on="1"/>
        <pt x="361" y="844" on="0"/>
        <pt x="340" y="830" on="0"/>
        <pt x="327" y="813" on="0"/>
        <pt x="322" y="797" on="0"/>
        <pt x="322" y="796" on="1"/>
        <pt x="259" y="796" on="1"/>
        <pt x="261" y="804" on="0"/>
        <pt x="279" y="842" on="0"/>
        <pt x="312" y="881" on="0"/>
        <pt x="358" y="911" on="0"/>
        <pt x="388" y="911" on="1"/>
        <pt x="409" y="911" on="0"/>
        <pt x="437" y="897" on="0"/>
        <pt x="461" y="881" on="0"/>
        <pt x="485" y="867" on="0"/>
        <pt x="502" y="867" on="1"/>
        <pt x="520" y="867" on="0"/>
        <pt x="543" y="881" on="0"/>
        <pt x="558" y="899" on="0"/>
        <pt x="565" y="914" on="0"/>
        <pt x="565" y="916" on="1"/>
        <pt x="627" y="916" on="1"/>
        <pt x="625" y="910" on="0"/>
        <pt x="607" y="872" on="0"/>
        <pt x="573" y="832" on="0"/>
        <pt x="524" y="801" on="0"/>
      </contour>
    </TTGlyph>
    <TTGlyph name="B" xMin="15" yMin="0" xMax="637" yMax="710">
      <contour>
        <pt x="166" y="710" on="1"/>
        <pt x="517" y="710" on="1"/>
        <pt x="547" y="710" on="0"/>
        <pt x="592" y="685" on="0"/>
        <pt x="622" y="645" on="0"/>
        <pt x="637" y="593" on="0"/>
        <pt x="637" y="565" on="1"/>
        <pt x="637" y="534" on="0"/>
        <pt x="618" y="473" on="0"/>
        <pt x="582" y="420" on="0"/>
        <pt x="531" y="377" on="0"/>
        <pt x="500" y="364" on="1"/>
        <pt x="545" y="349" on="0"/>
        <pt x="592" y="274" on="0"/>
        <pt x="592" y="222" on="1"/>
        <pt x="592" y="170" on="0"/>
        <pt x="549" y="88" on="0"/>
        <pt x="479" y="31" on="0"/>
        <pt x="388" y="0" on="0"/>
        <pt x="339" y="0" on="1"/>
        <pt x="15" y="0" on="1"/>
      </contour>
      <contour>
        <pt x="359" y="97" on="1"/>
        <pt x="382" y="97" on="0"/>
        <pt x="426" y="118" on="0"/>
        <pt x="460" y="154" on="0"/>
        <pt x="481" y="201" on="0"/>
        <pt x="481" y="227" on="1"/>
        <pt x="481" y="262" on="0"/>
        <pt x="444" y="314" on="0"/>
        <pt x="412" y="314" on="1"/>
        <pt x="194" y="314" on="1"/>
        <pt x="149" y="97" on="1"/>
      </contour>
      <contour>
        <pt x="404" y="404" on="1"/>
        <pt x="426" y="404" on="0"/>
        <pt x="468" y="424" on="0"/>
        <pt x="500" y="458" on="0"/>
        <pt x="519" y="505" on="0"/>
        <pt x="519" y="532" on="1"/>
        <pt x="519" y="567" on="0"/>
        <pt x="484" y="613" on="0"/>
        <pt x="455" y="613" on="1"/>
        <pt x="258" y="613" on="1"/>
        <pt x="213" y="404" on="1"/>
      </contour>
    </TTGlyph>
    <TTGlyph name="B.sc" xMin="9" yMin="0" xMax="533" yMax="555">
      <contour>
        <pt x="127" y="555" on="1"/>
        <pt x="429" y="555" on="1"/>
        <pt x="455" y="555" on="0"/>
        <pt x="494" y="535" on="0"/>
        <pt x="520" y="503" on="0"/>
        <pt x="533" y="461" on="0"/>
        <pt x="533" y="439" on="1"/>
        <pt x="533" y="415" on="0"/>
        <pt x="517" y="368" on="0"/>
        <pt x="488" y="327" on="0"/>
        <pt x="446" y="295" on="0"/>
        <pt x="420" y="285" on="1"/>
        <pt x="458" y="273" on="0"/>
        <pt x="501" y="214" on="0"/>
        <pt x="501" y="172" on="1"/>
        <pt x="501" y="131" on="0"/>
        <pt x="465" y="67" on="0"/>
        <pt x="406" y="23" on="0"/>
        <pt x="328" y="0" on="0"/>
        <pt x="286" y="0" on="1"/>
        <pt x="9" y="0" on="1"/>
      </contour>
      <contour>
        <pt x="303" y="85" on="1"/>
        <pt x="322" y="85" on="0"/>
        <pt x="358" y="100" on="0"/>
        <pt x="385" y="125" on="0"/>
        <pt x="402" y="158" on="0"/>
        <pt x="402" y="176" on="1"/>
        <pt x="402" y="202" on="0"/>
        <pt x="370" y="241" on="0"/>
        <pt x="343" y="241" on="1"/>
        <pt x="159" y="241" on="1"/>
        <pt x="127" y="85" on="1"/>
      </contour>
      <contour>
        <pt x="338" y="320" on="1"/>
        <pt x="356" y="320" on="0"/>
        <pt x="389" y="333" on="0"/>
        <pt x="414" y="357" on="0"/>
        <pt x="430" y="390" on="0"/>
        <pt x="430" y="410" on="1"/>
        <pt x="430" y="436" on="0"/>
        <pt x="399" y="468" on="0"/>
        <pt x="373" y="468" on="1"/>
        <pt x="208" y="468" on="1"/>
        <pt x="176" y="320" on="1"/>
      </contour>
    </TTGlyph>
    <TTGlyph name="C" xMin="41" yMin="-6" xMax="677" yMax="714">
      <contour>
        <pt x="294" y="-6" on="1"/>
        <pt x="234" y="-6" on="0"/>
        <pt x="139" y="45" on="0"/>
        <pt x="75" y="129" on="0"/>
        <pt x="41" y="237" on="0"/>
        <pt x="41" y="295" on="1"/>
        <pt x="41" y="368" on="0"/>
        <pt x="103" y="517" on="0"/>
        <pt x="213" y="638" on="0"/>
        <pt x="364" y="714" on="0"/>
        <pt x="453" y="714" on="1"/>
        <pt x="545" y="714" on="0"/>
        <pt x="659" y="628" on="0"/>
        <pt x="677" y="559" on="1"/>
        <pt x="577" y="500" on="1"/>
        <pt x="570" y="532" on="0"/>
        <pt x="540" y="576" on="0"/>
        <pt x="499" y="602" on="0"/>
        <pt x="451" y="613" on="0"/>
        <pt x="427" y="613" on="1"/>
        <pt x="366" y="613" on="0"/>
        <pt x="266" y="555" on="0"/>
        <pt x="195" y="464" on="0"/>
        <pt x="156" y="354" on="0"/>
        <pt x="156" y="302" on="1"/>
        <pt x="156" y="260" on="0"/>
        <pt x="178" y="185" on="0"/>
        <pt x="220" y="128" on="0"/>
        <pt x="281" y="95" on="0"/>
        <pt x="320" y="95" on="1"/>
        <pt x="344" y="95" on="0"/>
        <pt x="399" y="108" on="0"/>
        <pt x="452" y="137" on="0"/>
        <pt x="501" y="181" on="0"/>
        <pt x="521" y="212" on="1"/>
        <pt x="603" y="159" on="1"/>
        <pt x="579" y="119" on="0"/>
        <pt x="507" y="58" on="0"/>
        <pt x="423" y="16" on="0"/>
        <pt x="334" y="-6" on="0"/>
      </contour>
    </TTGlyph>
    <TTGlyph name="C.sc" xMin="27" yMin="-5" xMax="563" yMax="558">
      <contour>
        <pt x="247" y="-5" on="1"/>
        <pt x="194" y="-5" on="0"/>
        <pt x="113" y="35" on="0"/>
        <pt x="56" y="102" on="0"/>
        <pt x="27" y="188" on="0"/>
        <pt x="27" y="234" on="1"/>
        <pt x="27" y="291" on="0"/>
        <pt x="78" y="406" on="0"/>
        <pt x="170" y="499" on="0"/>
        <pt x="296" y="558" on="0"/>
        <pt x="371" y="558" on="1"/>
        <pt x="449" y="558" on="0"/>
        <pt x="548" y="491" on="0"/>
        <pt x="563" y="437" on="1"/>
        <pt x="476" y="384" on="1"/>
        <pt x="470" y="408" on="0"/>
        <pt x="443" y="441" on="0"/>
        <pt x="408" y="460" on="0"/>
        <pt x="368" y="469" on="0"/>
        <pt x="349" y="469" on="1"/>
        <pt x="299" y="469" on="0"/>
        <pt x="218" y="427" on="0"/>
        <pt x="160" y="361" on="0"/>
        <pt x="129" y="280" on="0"/>
        <pt x="129" y="241" on="1"/>
        <pt x="129" y="209" on="0"/>
        <pt x="148" y="153" on="0"/>
        <pt x="184" y="109" on="0"/>
        <pt x="236" y="84" on="0"/>
        <pt x="269" y="84" on="1"/>
        <pt x="310" y="84" on="0"/>
        <pt x="403" y="125" on="0"/>
        <pt x="435" y="172" on="1"/>
        <pt x="506" y="124" on="1"/>
        <pt x="486" y="93" on="0"/>
        <pt x="425" y="45" on="0"/>
        <pt x="355" y="12" on="0"/>
        <pt x="281" y="-5" on="0"/>
      </contour>
    </TTGlyph>
    <TTGlyph name="Cacute" xMin="41" yMin="-6" xMax="677" yMax="916">
      <contour>
        <pt x="484" y="788" on="1"/>
        <pt x="414" y="806" on="1"/>
        <pt x="490" y="916" on="1"/>
        <pt x="595" y="916" on="1"/>
      </contour>
      <contour>
        <pt x="294" y="-6" on="1"/>
        <pt x="234" y="-6" on="0"/>
        <pt x="139" y="45" on="0"/>
        <pt x="75" y="129" on="0"/>
        <pt x="41" y="237" on="0"/>
        <pt x="41" y="295" on="1"/>
        <pt x="41" y="368" on="0"/>
        <pt x="103" y="517" on="0"/>
        <pt x="213" y="638" on="0"/>
        <pt x="364" y="714" on="0"/>
        <pt x="453" y="714" on="1"/>
        <pt x="545" y="714" on="0"/>
        <pt x="659" y="628" on="0"/>
        <pt x="677" y="559" on="1"/>
        <pt x="577" y="500" on="1"/>
        <pt x="570" y="532" on="0"/>
        <pt x="540" y="576" on="0"/>
        <pt x="499" y="602" on="0"/>
        <pt x="451" y="613" on="0"/>
        <pt x="427" y="613" on="1"/>
        <pt x="366" y="613" on="0"/>
        <pt x="266" y="555" on="0"/>
        <pt x="195" y="464" on="0"/>
        <pt x="156" y="354" on="0"/>
        <pt x="156" y="302" on="1"/>
        <pt x="156" y="260" on="0"/>
        <pt x="178" y="185" on="0"/>
        <pt x="220" y="128" on="0"/>
        <pt x="281" y="95" on="0"/>
        <pt x="320" y="95" on="1"/>
        <pt x="344" y="95" on="0"/>
        <pt x="399" y="108" on="0"/>
        <pt x="452" y="137" on="0"/>
        <pt x="501" y="181" on="0"/>
        <pt x="521" y="212" on="1"/>
        <pt x="603" y="159" on="1"/>
        <pt x="579" y="119" on="0"/>
        <pt x="507" y="58" on="0"/>
        <pt x="423" y="16" on="0"/>
        <pt x="334" y="-6" on="0"/>
      </contour>
    </TTGlyph>
    <TTGlyph name="Ccaron" xMin="41" yMin="-6" xMax="677" yMax="916">
      <contour>
        <pt x="355" y="888" on="1"/>
        <pt x="419" y="916" on="1"/>
        <pt x="486" y="853" on="1"/>
        <pt x="580" y="916" on="1"/>
        <pt x="632" y="888" on="1"/>
        <pt x="513" y="793" on="1"/>
        <pt x="433" y="793" on="1"/>
      </contour>
      <contour>
        <pt x="294" y="-6" on="1"/>
        <pt x="234" y="-6" on="0"/>
        <pt x="139" y="45" on="0"/>
        <pt x="75" y="129" on="0"/>
        <pt x="41" y="237" on="0"/>
        <pt x="41" y="295" on="1"/>
        <pt x="41" y="368" on="0"/>
        <pt x="103" y="517" on="0"/>
        <pt x="213" y="638" on="0"/>
        <pt x="364" y="714" on="0"/>
        <pt x="453" y="714" on="1"/>
        <pt x="545" y="714" on="0"/>
        <pt x="659" y="628" on="0"/>
        <pt x="677" y="559" on="1"/>
        <pt x="577" y="500" on="1"/>
        <pt x="570" y="532" on="0"/>
        <pt x="540" y="576" on="0"/>
        <pt x="499" y="602" on="0"/>
        <pt x="451" y="613" on="0"/>
        <pt x="427" y="613" on="1"/>
        <pt x="366" y="613" on="0"/>
        <pt x="266" y="555" on="0"/>
        <pt x="195" y="464" on="0"/>
        <pt x="156" y="354" on="0"/>
        <pt x="156" y="302" on="1"/>
        <pt x="156" y="260" on="0"/>
        <pt x="178" y="185" on="0"/>
        <pt x="220" y="128" on="0"/>
        <pt x="281" y="95" on="0"/>
        <pt x="320" y="95" on="1"/>
        <pt x="344" y="95" on="0"/>
        <pt x="399" y="108" on="0"/>
        <pt x="452" y="137" on="0"/>
        <pt x="501" y="181" on="0"/>
        <pt x="521" y="212" on="1"/>
        <pt x="603" y="159" on="1"/>
        <pt x="579" y="119" on="0"/>
        <pt x="507" y="58" on="0"/>
        <pt x="423" y="16" on="0"/>
        <pt x="334" y="-6" on="0"/>
      </contour>
    </TTGlyph>
    <TTGlyph name="Ccedilla" xMin="38" yMin="-189" xMax="674" yMax="714">
      <contour>
        <pt x="182" y="-126" on="1"/>
        <pt x="192" y="-133" on="0"/>
        <pt x="236" y="-146" on="0"/>
        <pt x="261" y="-146" on="1"/>
        <pt x="290" y="-146" on="0"/>
        <pt x="324" y="-127" on="0"/>
        <pt x="324" y="-105" on="1"/>
        <pt x="324" y="-90" on="0"/>
        <pt x="300" y="-78" on="0"/>
        <pt x="281" y="-78" on="1"/>
        <pt x="261" y="-78" on="0"/>
        <pt x="215" y="-86" on="0"/>
        <pt x="202" y="-90" on="1"/>
        <pt x="263" y="-4" on="1"/>
        <pt x="209" y="2" on="0"/>
        <pt x="125" y="56" on="0"/>
        <pt x="68" y="138" on="0"/>
        <pt x="38" y="241" on="0"/>
        <pt x="38" y="295" on="1"/>
        <pt x="38" y="368" on="0"/>
        <pt x="100" y="517" on="0"/>
        <pt x="210" y="638" on="0"/>
        <pt x="361" y="714" on="0"/>
        <pt x="450" y="714" on="1"/>
        <pt x="542" y="714" on="0"/>
        <pt x="656" y="628" on="0"/>
        <pt x="674" y="559" on="1"/>
        <pt x="574" y="500" on="1"/>
        <pt x="567" y="532" on="0"/>
        <pt x="537" y="576" on="0"/>
        <pt x="496" y="602" on="0"/>
        <pt x="448" y="613" on="0"/>
        <pt x="424" y="613" on="1"/>
        <pt x="363" y="613" on="0"/>
        <pt x="263" y="555" on="0"/>
        <pt x="192" y="464" on="0"/>
        <pt x="153" y="354" on="0"/>
        <pt x="153" y="302" on="1"/>
        <pt x="153" y="260" on="0"/>
        <pt x="175" y="185" on="0"/>
        <pt x="217" y="128" on="0"/>
        <pt x="278" y="95" on="0"/>
        <pt x="317" y="95" on="1"/>
        <pt x="341" y="95" on="0"/>
        <pt x="396" y="108" on="0"/>
        <pt x="449" y="137" on="0"/>
        <pt x="498" y="181" on="0"/>
        <pt x="518" y="212" on="1"/>
        <pt x="600" y="159" on="1"/>
        <pt x="577" y="122" on="0"/>
        <pt x="511" y="63" on="0"/>
        <pt x="435" y="22" on="0"/>
        <pt x="352" y="-2" on="0"/>
        <pt x="313" y="-5" on="1"/>
        <pt x="280" y="-45" on="1"/>
        <pt x="288" y="-43" on="0"/>
        <pt x="305" y="-41" on="0"/>
        <pt x="312" y="-41" on="1"/>
        <pt x="341" y="-41" on="0"/>
        <pt x="378" y="-67" on="0"/>
        <pt x="378" y="-94" on="1"/>
        <pt x="378" y="-135" on="0"/>
        <pt x="311" y="-189" on="0"/>
        <pt x="244" y="-189" on="1"/>
        <pt x="214" y="-189" on="0"/>
        <pt x="166" y="-177" on="0"/>
        <pt x="149" y="-169" on="1"/>
      </contour>
    </TTGlyph>
    <TTGlyph name="Ccircumflex" xMin="41" yMin="-6" xMax="677" yMax="916">
      <contour>
        <pt x="345" y="821" on="1"/>
        <pt x="464" y="916" on="1"/>
        <pt x="544" y="916" on="1"/>
        <pt x="622" y="821" on="1"/>
        <pt x="558" y="793" on="1"/>
        <pt x="491" y="856" on="1"/>
        <pt x="397" y="793" on="1"/>
      </contour>
      <contour>
        <pt x="294" y="-6" on="1"/>
        <pt x="234" y="-6" on="0"/>
        <pt x="139" y="45" on="0"/>
        <pt x="75" y="129" on="0"/>
        <pt x="41" y="237" on="0"/>
        <pt x="41" y="295" on="1"/>
        <pt x="41" y="368" on="0"/>
        <pt x="103" y="517" on="0"/>
        <pt x="213" y="638" on="0"/>
        <pt x="364" y="714" on="0"/>
        <pt x="453" y="714" on="1"/>
        <pt x="545" y="714" on="0"/>
        <pt x="659" y="628" on="0"/>
        <pt x="677" y="559" on="1"/>
        <pt x="577" y="500" on="1"/>
        <pt x="570" y="532" on="0"/>
        <pt x="540" y="576" on="0"/>
        <pt x="499" y="602" on="0"/>
        <pt x="451" y="613" on="0"/>
        <pt x="427" y="613" on="1"/>
        <pt x="366" y="613" on="0"/>
        <pt x="266" y="555" on="0"/>
        <pt x="195" y="464" on="0"/>
        <pt x="156" y="354" on="0"/>
        <pt x="156" y="302" on="1"/>
        <pt x="156" y="260" on="0"/>
        <pt x="178" y="185" on="0"/>
        <pt x="220" y="128" on="0"/>
        <pt x="281" y="95" on="0"/>
        <pt x="320" y="95" on="1"/>
        <pt x="344" y="95" on="0"/>
        <pt x="399" y="108" on="0"/>
        <pt x="452" y="137" on="0"/>
        <pt x="501" y="181" on="0"/>
        <pt x="521" y="212" on="1"/>
        <pt x="603" y="159" on="1"/>
        <pt x="579" y="119" on="0"/>
        <pt x="507" y="58" on="0"/>
        <pt x="423" y="16" on="0"/>
        <pt x="334" y="-6" on="0"/>
      </contour>
    </TTGlyph>
    <TTGlyph name="Cdotaccent" xMin="41" yMin="-6" xMax="677" yMax="916">
      <contour>
        <pt x="294" y="-6" on="1"/>
        <pt x="234" y="-6" on="0"/>
        <pt x="139" y="45" on="0"/>
        <pt x="75" y="129" on="0"/>
        <pt x="41" y="237" on="0"/>
        <pt x="41" y="295" on="1"/>
        <pt x="41" y="368" on="0"/>
        <pt x="103" y="517" on="0"/>
        <pt x="213" y="638" on="0"/>
        <pt x="364" y="714" on="0"/>
        <pt x="453" y="714" on="1"/>
        <pt x="545" y="714" on="0"/>
        <pt x="659" y="628" on="0"/>
        <pt x="677" y="559" on="1"/>
        <pt x="577" y="500" on="1"/>
        <pt x="570" y="532" on="0"/>
        <pt x="540" y="576" on="0"/>
        <pt x="499" y="602" on="0"/>
        <pt x="451" y="613" on="0"/>
        <pt x="427" y="613" on="1"/>
        <pt x="366" y="613" on="0"/>
        <pt x="266" y="555" on="0"/>
        <pt x="195" y="464" on="0"/>
        <pt x="156" y="354" on="0"/>
        <pt x="156" y="302" on="1"/>
        <pt x="156" y="260" on="0"/>
        <pt x="178" y="185" on="0"/>
        <pt x="220" y="128" on="0"/>
        <pt x="281" y="95" on="0"/>
        <pt x="320" y="95" on="1"/>
        <pt x="344" y="95" on="0"/>
        <pt x="399" y="108" on="0"/>
        <pt x="452" y="137" on="0"/>
        <pt x="501" y="181" on="0"/>
        <pt x="521" y="212" on="1"/>
        <pt x="603" y="159" on="1"/>
        <pt x="579" y="119" on="0"/>
        <pt x="507" y="58" on="0"/>
        <pt x="423" y="16" on="0"/>
        <pt x="334" y="-6" on="0"/>
      </contour>
      <contour>
        <pt x="429" y="801" on="1"/>
        <pt x="454" y="916" on="1"/>
        <pt x="552" y="916" on="1"/>
        <pt x="528" y="801" on="1"/>
      </contour>
    </TTGlyph>
    <TTGlyph name="D" xMin="15" yMin="0" xMax="672" yMax="710">
      <contour>
        <pt x="166" y="710" on="1"/>
        <pt x="407" y="710" on="1"/>
        <pt x="475" y="710" on="0"/>
        <pt x="575" y="668" on="0"/>
        <pt x="640" y="594" on="0"/>
        <pt x="672" y="494" on="0"/>
        <pt x="672" y="436" on="1"/>
        <pt x="672" y="342" on="0"/>
        <pt x="609" y="182" on="0"/>
        <pt x="498" y="66" on="0"/>
        <pt x="345" y="0" on="0"/>
        <pt x="256" y="0" on="1"/>
        <pt x="15" y="0" on="1"/>
      </contour>
      <contour>
        <pt x="277" y="99" on="1"/>
        <pt x="341" y="99" on="0"/>
        <pt x="444" y="151" on="0"/>
        <pt x="517" y="240" on="0"/>
        <pt x="556" y="356" on="0"/>
        <pt x="556" y="419" on="1"/>
        <pt x="556" y="461" on="0"/>
        <pt x="534" y="531" on="0"/>
        <pt x="492" y="582" on="0"/>
        <pt x="428" y="611" on="0"/>
        <pt x="386" y="611" on="1"/>
        <pt x="258" y="611" on="1"/>
        <pt x="149" y="99" on="1"/>
      </contour>
    </TTGlyph>
    <TTGlyph name="D.sc" xMin="9" yMin="0" xMax="571" yMax="555">
      <contour>
        <pt x="127" y="555" on="1"/>
        <pt x="336" y="555" on="1"/>
        <pt x="396" y="555" on="0"/>
        <pt x="484" y="521" on="0"/>
        <pt x="543" y="462" on="0"/>
        <pt x="571" y="381" on="0"/>
        <pt x="571" y="335" on="1"/>
        <pt x="571" y="262" on="0"/>
        <pt x="517" y="139" on="0"/>
        <pt x="423" y="50" on="0"/>
        <pt x="294" y="0" on="0"/>
        <pt x="218" y="0" on="1"/>
        <pt x="9" y="0" on="1"/>
      </contour>
      <contour>
        <pt x="237" y="88" on="1"/>
        <pt x="290" y="88" on="0"/>
        <pt x="376" y="126" on="0"/>
        <pt x="436" y="189" on="0"/>
        <pt x="468" y="273" on="0"/>
        <pt x="468" y="320" on="1"/>
        <pt x="468" y="386" on="0"/>
        <pt x="392" y="467" on="0"/>
        <pt x="317" y="467" on="1"/>
        <pt x="208" y="467" on="1"/>
        <pt x="127" y="88" on="1"/>
      </contour>
    </TTGlyph>
    <TTGlyph name="Dcaron" xMin="15" yMin="0" xMax="672" yMax="916">
      <contour>
        <pt x="297" y="888" on="1"/>
        <pt x="361" y="916" on="1"/>
        <pt x="428" y="853" on="1"/>
        <pt x="522" y="916" on="1"/>
        <pt x="574" y="888" on="1"/>
        <pt x="455" y="793" on="1"/>
        <pt x="375" y="793" on="1"/>
      </contour>
      <contour>
        <pt x="166" y="710" on="1"/>
        <pt x="407" y="710" on="1"/>
        <pt x="475" y="710" on="0"/>
        <pt x="575" y="668" on="0"/>
        <pt x="640" y="594" on="0"/>
        <pt x="672" y="494" on="0"/>
        <pt x="672" y="436" on="1"/>
        <pt x="672" y="342" on="0"/>
        <pt x="609" y="182" on="0"/>
        <pt x="498" y="66" on="0"/>
        <pt x="345" y="0" on="0"/>
        <pt x="256" y="0" on="1"/>
        <pt x="15" y="0" on="1"/>
      </contour>
      <contour>
        <pt x="277" y="99" on="1"/>
        <pt x="341" y="99" on="0"/>
        <pt x="444" y="151" on="0"/>
        <pt x="517" y="240" on="0"/>
        <pt x="556" y="356" on="0"/>
        <pt x="556" y="419" on="1"/>
        <pt x="556" y="461" on="0"/>
        <pt x="534" y="531" on="0"/>
        <pt x="492" y="582" on="0"/>
        <pt x="428" y="611" on="0"/>
        <pt x="386" y="611" on="1"/>
        <pt x="258" y="611" on="1"/>
        <pt x="149" y="99" on="1"/>
      </contour>
    </TTGlyph>
    <TTGlyph name="Dcroat" xMin="21" yMin="0" xMax="678" yMax="710">
      <contour>
        <pt x="57" y="399" on="1"/>
        <pt x="106" y="399" on="1"/>
        <pt x="172" y="710" on="1"/>
        <pt x="413" y="710" on="1"/>
        <pt x="481" y="710" on="0"/>
        <pt x="581" y="668" on="0"/>
        <pt x="646" y="594" on="0"/>
        <pt x="678" y="494" on="0"/>
        <pt x="678" y="436" on="1"/>
        <pt x="678" y="342" on="0"/>
        <pt x="615" y="182" on="0"/>
        <pt x="504" y="66" on="0"/>
        <pt x="351" y="0" on="0"/>
        <pt x="262" y="0" on="1"/>
        <pt x="21" y="0" on="1"/>
        <pt x="88" y="315" on="1"/>
        <pt x="39" y="315" on="1"/>
      </contour>
      <contour>
        <pt x="283" y="99" on="1"/>
        <pt x="347" y="99" on="0"/>
        <pt x="450" y="151" on="0"/>
        <pt x="523" y="240" on="0"/>
        <pt x="562" y="356" on="0"/>
        <pt x="562" y="419" on="1"/>
        <pt x="562" y="461" on="0"/>
        <pt x="540" y="531" on="0"/>
        <pt x="498" y="582" on="0"/>
        <pt x="434" y="611" on="0"/>
        <pt x="392" y="611" on="1"/>
        <pt x="264" y="611" on="1"/>
        <pt x="219" y="399" on="1"/>
        <pt x="359" y="399" on="1"/>
        <pt x="342" y="315" on="1"/>
        <pt x="201" y="315" on="1"/>
        <pt x="155" y="99" on="1"/>
      </contour>
    </TTGlyph>
    <TTGlyph name="Ddotbelow" xMin="15" yMin="-189" xMax="672" yMax="710">
      <contour>
        <pt x="175" y="-189" on="1"/>
        <pt x="200" y="-73" on="1"/>
        <pt x="299" y="-73" on="1"/>
        <pt x="275" y="-189" on="1"/>
      </contour>
      <contour>
        <pt x="166" y="710" on="1"/>
        <pt x="407" y="710" on="1"/>
        <pt x="475" y="710" on="0"/>
        <pt x="575" y="668" on="0"/>
        <pt x="640" y="594" on="0"/>
        <pt x="672" y="494" on="0"/>
        <pt x="672" y="436" on="1"/>
        <pt x="672" y="342" on="0"/>
        <pt x="609" y="182" on="0"/>
        <pt x="498" y="66" on="0"/>
        <pt x="345" y="0" on="0"/>
        <pt x="256" y="0" on="1"/>
        <pt x="15" y="0" on="1"/>
      </contour>
      <contour>
        <pt x="277" y="99" on="1"/>
        <pt x="341" y="99" on="0"/>
        <pt x="444" y="151" on="0"/>
        <pt x="517" y="240" on="0"/>
        <pt x="556" y="356" on="0"/>
        <pt x="556" y="419" on="1"/>
        <pt x="556" y="461" on="0"/>
        <pt x="534" y="531" on="0"/>
        <pt x="492" y="582" on="0"/>
        <pt x="428" y="611" on="0"/>
        <pt x="386" y="611" on="1"/>
        <pt x="258" y="611" on="1"/>
        <pt x="149" y="99" on="1"/>
      </contour>
    </TTGlyph>
    <TTGlyph name="Delta" xMin="-1" yMin="0" xMax="607" yMax="710">
      <contour>
        <pt x="607" y="85" on="1"/>
        <pt x="607" y="0" on="1"/>
        <pt x="-1" y="0" on="1"/>
        <pt x="-1" y="85" on="1"/>
        <pt x="258" y="710" on="1"/>
        <pt x="350" y="710" on="1"/>
      </contour>
      <contour>
        <pt x="490" y="99" on="1"/>
        <pt x="304" y="582" on="1"/>
        <pt x="118" y="99" on="1"/>
      </contour>
    </TTGlyph>
    <TTGlyph name="E" xMin="15" yMin="0" xMax="621" yMax="710">
      <contour>
        <pt x="166" y="710" on="1"/>
        <pt x="621" y="710" on="1"/>
        <pt x="600" y="611" on="1"/>
        <pt x="258" y="611" on="1"/>
        <pt x="215" y="409" on="1"/>
        <pt x="511" y="409" on="1"/>
        <pt x="492" y="316" on="1"/>
        <pt x="195" y="316" on="1"/>
        <pt x="149" y="99" on="1"/>
        <pt x="500" y="99" on="1"/>
        <pt x="479" y="0" on="1"/>
        <pt x="15" y="0" on="1"/>
      </contour>
    </TTGlyph>
    <TTGlyph name="E.sc" xMin="9" yMin="0" xMax="522" yMax="555">
      <contour>
        <pt x="127" y="555" on="1"/>
        <pt x="522" y="555" on="1"/>
        <pt x="503" y="467" on="1"/>
        <pt x="208" y="467" on="1"/>
        <pt x="177" y="323" on="1"/>
        <pt x="433" y="323" on="1"/>
        <pt x="416" y="242" on="1"/>
        <pt x="160" y="242" on="1"/>
        <pt x="127" y="88" on="1"/>
        <pt x="430" y="88" on="1"/>
        <pt x="411" y="0" on="1"/>
        <pt x="9" y="0" on="1"/>
      </contour>
    </TTGlyph>
    <TTGlyph name="Eacute" xMin="15" yMin="0" xMax="621" yMax="916">
      <contour>
        <pt x="432" y="788" on="1"/>
        <pt x="362" y="806" on="1"/>
        <pt x="438" y="916" on="1"/>
        <pt x="543" y="916" on="1"/>
      </contour>
      <contour>
        <pt x="166" y="710" on="1"/>
        <pt x="621" y="710" on="1"/>
        <pt x="600" y="611" on="1"/>
        <pt x="258" y="611" on="1"/>
        <pt x="215" y="409" on="1"/>
        <pt x="511" y="409" on="1"/>
        <pt x="492" y="316" on="1"/>
        <pt x="195" y="316" on="1"/>
        <pt x="149" y="99" on="1"/>
        <pt x="500" y="99" on="1"/>
        <pt x="479" y="0" on="1"/>
        <pt x="15" y="0" on="1"/>
      </contour>
    </TTGlyph>
    <TTGlyph name="Ebreve" xMin="15" yMin="0" xMax="621" yMax="916">
      <contour>
        <pt x="166" y="710" on="1"/>
        <pt x="621" y="710" on="1"/>
        <pt x="600" y="611" on="1"/>
        <pt x="258" y="611" on="1"/>
        <pt x="215" y="409" on="1"/>
        <pt x="511" y="409" on="1"/>
        <pt x="492" y="316" on="1"/>
        <pt x="195" y="316" on="1"/>
        <pt x="149" y="99" on="1"/>
        <pt x="500" y="99" on="1"/>
        <pt x="479" y="0" on="1"/>
        <pt x="15" y="0" on="1"/>
      </contour>
      <contour>
        <pt x="413" y="845" on="1"/>
        <pt x="434" y="845" on="0"/>
        <pt x="474" y="885" on="0"/>
        <pt x="483" y="916" on="1"/>
        <pt x="544" y="916" on="1"/>
        <pt x="538" y="890" on="0"/>
        <pt x="511" y="845" on="0"/>
        <pt x="473" y="812" on="0"/>
        <pt x="427" y="794" on="0"/>
        <pt x="402" y="794" on="1"/>
        <pt x="359" y="794" on="0"/>
        <pt x="308" y="845" on="0"/>
        <pt x="308" y="887" on="1"/>
        <pt x="308" y="895" on="0"/>
        <pt x="310" y="909" on="0"/>
        <pt x="312" y="916" on="1"/>
        <pt x="373" y="916" on="1"/>
        <pt x="372" y="911" on="0"/>
        <pt x="371" y="903" on="0"/>
        <pt x="371" y="898" on="1"/>
        <pt x="371" y="876" on="0"/>
        <pt x="394" y="845" on="0"/>
      </contour>
    </TTGlyph>
    <TTGlyph name="Ecaron" xMin="15" yMin="0" xMax="621" yMax="916">
      <contour>
        <pt x="288" y="888" on="1"/>
        <pt x="352" y="916" on="1"/>
        <pt x="419" y="853" on="1"/>
        <pt x="513" y="916" on="1"/>
        <pt x="565" y="888" on="1"/>
        <pt x="446" y="793" on="1"/>
        <pt x="366" y="793" on="1"/>
      </contour>
      <contour>
        <pt x="166" y="710" on="1"/>
        <pt x="621" y="710" on="1"/>
        <pt x="600" y="611" on="1"/>
        <pt x="258" y="611" on="1"/>
        <pt x="215" y="409" on="1"/>
        <pt x="511" y="409" on="1"/>
        <pt x="492" y="316" on="1"/>
        <pt x="195" y="316" on="1"/>
        <pt x="149" y="99" on="1"/>
        <pt x="500" y="99" on="1"/>
        <pt x="479" y="0" on="1"/>
        <pt x="15" y="0" on="1"/>
      </contour>
    </TTGlyph>
    <TTGlyph name="Ecircumflex" xMin="15" yMin="0" xMax="621" yMax="916">
      <contour>
        <pt x="285" y="821" on="1"/>
        <pt x="404" y="916" on="1"/>
        <pt x="484" y="916" on="1"/>
        <pt x="562" y="821" on="1"/>
        <pt x="498" y="793" on="1"/>
        <pt x="431" y="856" on="1"/>
        <pt x="337" y="793" on="1"/>
      </contour>
      <contour>
        <pt x="166" y="710" on="1"/>
        <pt x="621" y="710" on="1"/>
        <pt x="600" y="611" on="1"/>
        <pt x="258" y="611" on="1"/>
        <pt x="215" y="409" on="1"/>
        <pt x="511" y="409" on="1"/>
        <pt x="492" y="316" on="1"/>
        <pt x="195" y="316" on="1"/>
        <pt x="149" y="99" on="1"/>
        <pt x="500" y="99" on="1"/>
        <pt x="479" y="0" on="1"/>
        <pt x="15" y="0" on="1"/>
      </contour>
    </TTGlyph>
    <TTGlyph name="Edblgrave" xMin="15" yMin="0" xMax="621" yMax="918">
      <contour>
        <pt x="427" y="918" on="1"/>
        <pt x="514" y="918" on="1"/>
        <pt x="539" y="808" on="1"/>
        <pt x="479" y="789" on="1"/>
      </contour>
      <contour>
        <pt x="283" y="918" on="1"/>
        <pt x="372" y="918" on="1"/>
        <pt x="396" y="808" on="1"/>
        <pt x="335" y="789" on="1"/>
      </contour>
      <contour>
        <pt x="166" y="710" on="1"/>
        <pt x="621" y="710" on="1"/>
        <pt x="600" y="611" on="1"/>
        <pt x="258" y="611" on="1"/>
        <pt x="215" y="409" on="1"/>
        <pt x="511" y="409" on="1"/>
        <pt x="492" y="316" on="1"/>
        <pt x="195" y="316" on="1"/>
        <pt x="149" y="99" on="1"/>
        <pt x="500" y="99" on="1"/>
        <pt x="479" y="0" on="1"/>
        <pt x="15" y="0" on="1"/>
      </contour>
    </TTGlyph>
    <TTGlyph name="Edieresis" xMin="15" yMin="0" xMax="621" yMax="912">
      <contour>
        <pt x="282" y="802" on="1"/>
        <pt x="306" y="912" on="1"/>
        <pt x="397" y="912" on="1"/>
        <pt x="374" y="802" on="1"/>
      </contour>
      <contour>
        <pt x="454" y="802" on="1"/>
        <pt x="477" y="912" on="1"/>
        <pt x="568" y="912" on="1"/>
        <pt x="545" y="802" on="1"/>
      </contour>
      <contour>
        <pt x="166" y="710" on="1"/>
        <pt x="621" y="710" on="1"/>
        <pt x="600" y="611" on="1"/>
        <pt x="258" y="611" on="1"/>
        <pt x="215" y="409" on="1"/>
        <pt x="511" y="409" on="1"/>
        <pt x="492" y="316" on="1"/>
        <pt x="195" y="316" on="1"/>
        <pt x="149" y="99" on="1"/>
        <pt x="500" y="99" on="1"/>
        <pt x="479" y="0" on="1"/>
        <pt x="15" y="0" on="1"/>
      </contour>
    </TTGlyph>
    <TTGlyph name="Edotaccent" xMin="15" yMin="0" xMax="621" yMax="916">
      <contour>
        <pt x="166" y="710" on="1"/>
        <pt x="621" y="710" on="1"/>
        <pt x="600" y="611" on="1"/>
        <pt x="258" y="611" on="1"/>
        <pt x="215" y="409" on="1"/>
        <pt x="511" y="409" on="1"/>
        <pt x="492" y="316" on="1"/>
        <pt x="195" y="316" on="1"/>
        <pt x="149" y="99" on="1"/>
        <pt x="500" y="99" on="1"/>
        <pt x="479" y="0" on="1"/>
        <pt x="15" y="0" on="1"/>
      </contour>
      <contour>
        <pt x="364" y="801" on="1"/>
        <pt x="389" y="916" on="1"/>
        <pt x="487" y="916" on="1"/>
        <pt x="463" y="801" on="1"/>
      </contour>
    </TTGlyph>
    <TTGlyph name="Edotbelow" xMin="15" yMin="-189" xMax="621" yMax="710">
      <contour>
        <pt x="166" y="710" on="1"/>
        <pt x="621" y="710" on="1"/>
        <pt x="600" y="611" on="1"/>
        <pt x="258" y="611" on="1"/>
        <pt x="215" y="409" on="1"/>
        <pt x="511" y="409" on="1"/>
        <pt x="492" y="316" on="1"/>
        <pt x="195" y="316" on="1"/>
        <pt x="149" y="99" on="1"/>
        <pt x="500" y="99" on="1"/>
        <pt x="479" y="0" on="1"/>
        <pt x="15" y="0" on="1"/>
      </contour>
      <contour>
        <pt x="153" y="-189" on="1"/>
        <pt x="178" y="-73" on="1"/>
        <pt x="277" y="-73" on="1"/>
        <pt x="253" y="-189" on="1"/>
      </contour>
    </TTGlyph>
    <TTGlyph name="Egrave" xMin="15" yMin="0" xMax="621" yMax="917">
      <contour>
        <pt x="166" y="710" on="1"/>
        <pt x="621" y="710" on="1"/>
        <pt x="600" y="611" on="1"/>
        <pt x="258" y="611" on="1"/>
        <pt x="215" y="409" on="1"/>
        <pt x="511" y="409" on="1"/>
        <pt x="492" y="316" on="1"/>
        <pt x="195" y="316" on="1"/>
        <pt x="149" y="99" on="1"/>
        <pt x="500" y="99" on="1"/>
        <pt x="479" y="0" on="1"/>
        <pt x="15" y="0" on="1"/>
      </contour>
      <contour>
        <pt x="338" y="917" on="1"/>
        <pt x="442" y="917" on="1"/>
        <pt x="472" y="807" on="1"/>
        <pt x="396" y="788" on="1"/>
      </contour>
    </TTGlyph>
    <TTGlyph name="Einvertedbreve" xMin="15" yMin="0" xMax="621" yMax="916">
      <contour>
        <pt x="299" y="794" on="1"/>
        <pt x="305" y="820" on="0"/>
        <pt x="332" y="865" on="0"/>
        <pt x="369" y="898" on="0"/>
        <pt x="415" y="916" on="0"/>
        <pt x="440" y="916" on="1"/>
        <pt x="483" y="916" on="0"/>
        <pt x="534" y="861" on="0"/>
        <pt x="534" y="821" on="1"/>
        <pt x="534" y="814" on="0"/>
        <pt x="532" y="801" on="0"/>
        <pt x="530" y="794" on="1"/>
        <pt x="471" y="794" on="1"/>
        <pt x="472" y="802" on="0"/>
        <pt x="473" y="814" on="0"/>
        <pt x="473" y="821" on="1"/>
        <pt x="473" y="865" on="0"/>
        <pt x="431" y="865" on="1"/>
        <pt x="401" y="865" on="0"/>
        <pt x="367" y="827" on="0"/>
        <pt x="359" y="794" on="1"/>
      </contour>
      <contour>
        <pt x="166" y="710" on="1"/>
        <pt x="621" y="710" on="1"/>
        <pt x="600" y="611" on="1"/>
        <pt x="258" y="611" on="1"/>
        <pt x="215" y="409" on="1"/>
        <pt x="511" y="409" on="1"/>
        <pt x="492" y="316" on="1"/>
        <pt x="195" y="316" on="1"/>
        <pt x="149" y="99" on="1"/>
        <pt x="500" y="99" on="1"/>
        <pt x="479" y="0" on="1"/>
        <pt x="15" y="0" on="1"/>
      </contour>
    </TTGlyph>
    <TTGlyph name="Emacron" xMin="15" yMin="0" xMax="621" yMax="898">
      <contour>
        <pt x="166" y="710" on="1"/>
        <pt x="621" y="710" on="1"/>
        <pt x="600" y="611" on="1"/>
        <pt x="258" y="611" on="1"/>
        <pt x="215" y="409" on="1"/>
        <pt x="511" y="409" on="1"/>
        <pt x="492" y="316" on="1"/>
        <pt x="195" y="316" on="1"/>
        <pt x="149" y="99" on="1"/>
        <pt x="500" y="99" on="1"/>
        <pt x="479" y="0" on="1"/>
        <pt x="15" y="0" on="1"/>
      </contour>
      <contour>
        <pt x="277" y="828" on="1"/>
        <pt x="291" y="898" on="1"/>
        <pt x="574" y="898" on="1"/>
        <pt x="559" y="828" on="1"/>
      </contour>
    </TTGlyph>
    <TTGlyph name="Eng" xMin="15" yMin="-191" xMax="733" yMax="710">
      <contour>
        <pt x="376" y="-191" on="1"/>
        <pt x="342" y="-191" on="0"/>
        <pt x="285" y="-169" on="0"/>
        <pt x="265" y="-146" on="1"/>
        <pt x="329" y="-72" on="1"/>
        <pt x="338" y="-84" on="0"/>
        <pt x="367" y="-95" on="0"/>
        <pt x="383" y="-95" on="1"/>
        <pt x="411" y="-95" on="0"/>
        <pt x="461" y="-52" on="0"/>
        <pt x="468" y="-19" on="1"/>
        <pt x="477" y="21" on="1"/>
        <pt x="234" y="498" on="1"/>
        <pt x="128" y="0" on="1"/>
        <pt x="15" y="0" on="1"/>
        <pt x="166" y="710" on="1"/>
        <pt x="253" y="710" on="1"/>
        <pt x="513" y="204" on="1"/>
        <pt x="621" y="709" on="1"/>
        <pt x="733" y="709" on="1"/>
        <pt x="579" y="-15" on="1"/>
        <pt x="571" y="-54" on="0"/>
        <pt x="530" y="-119" on="0"/>
        <pt x="474" y="-166" on="0"/>
        <pt x="409" y="-191" on="0"/>
      </contour>
    </TTGlyph>
    <TTGlyph name="Eogonek" xMin="15" yMin="-188" xMax="621" yMax="710">
      <contour>
        <pt x="166" y="710" on="1"/>
        <pt x="621" y="710" on="1"/>
        <pt x="600" y="611" on="1"/>
        <pt x="258" y="611" on="1"/>
        <pt x="215" y="409" on="1"/>
        <pt x="511" y="409" on="1"/>
        <pt x="492" y="316" on="1"/>
        <pt x="195" y="316" on="1"/>
        <pt x="149" y="99" on="1"/>
        <pt x="500" y="99" on="1"/>
        <pt x="479" y="0" on="1"/>
        <pt x="286" y="0" on="1"/>
        <pt x="235" y="-29" on="0"/>
        <pt x="191" y="-74" on="0"/>
        <pt x="191" y="-95" on="1"/>
        <pt x="191" y="-127" on="0"/>
        <pt x="239" y="-130" on="1"/>
        <pt x="203" y="-188" on="1"/>
        <pt x="161" y="-181" on="0"/>
        <pt x="121" y="-143" on="0"/>
        <pt x="121" y="-118" on="1"/>
        <pt x="121" y="-89" on="0"/>
        <pt x="169" y="-30" on="0"/>
        <pt x="220" y="0" on="1"/>
        <pt x="15" y="0" on="1"/>
      </contour>
    </TTGlyph>
    <TTGlyph name="Eth" xMin="21" yMin="0" xMax="678" yMax="710">
      <contour>
        <pt x="57" y="399" on="1"/>
        <pt x="106" y="399" on="1"/>
        <pt x="172" y="710" on="1"/>
        <pt x="413" y="710" on="1"/>
        <pt x="481" y="710" on="0"/>
        <pt x="581" y="668" on="0"/>
        <pt x="646" y="594" on="0"/>
        <pt x="678" y="494" on="0"/>
        <pt x="678" y="436" on="1"/>
        <pt x="678" y="342" on="0"/>
        <pt x="615" y="182" on="0"/>
        <pt x="504" y="66" on="0"/>
        <pt x="351" y="0" on="0"/>
        <pt x="262" y="0" on="1"/>
        <pt x="21" y="0" on="1"/>
        <pt x="88" y="315" on="1"/>
        <pt x="39" y="315" on="1"/>
      </contour>
      <contour>
        <pt x="283" y="99" on="1"/>
        <pt x="347" y="99" on="0"/>
        <pt x="450" y="151" on="0"/>
        <pt x="523" y="240" on="0"/>
        <pt x="562" y="356" on="0"/>
        <pt x="562" y="419" on="1"/>
        <pt x="562" y="461" on="0"/>
        <pt x="540" y="531" on="0"/>
        <pt x="498" y="582" on="0"/>
        <pt x="434" y="611" on="0"/>
        <pt x="392" y="611" on="1"/>
        <pt x="264" y="611" on="1"/>
        <pt x="219" y="399" on="1"/>
        <pt x="359" y="399" on="1"/>
        <pt x="342" y="315" on="1"/>
        <pt x="201" y="315" on="1"/>
        <pt x="155" y="99" on="1"/>
      </contour>
    </TTGlyph>
    <TTGlyph name="Etilde" xMin="15" yMin="0" xMax="621" yMax="916">
      <contour>
        <pt x="166" y="710" on="1"/>
        <pt x="621" y="710" on="1"/>
        <pt x="600" y="611" on="1"/>
        <pt x="258" y="611" on="1"/>
        <pt x="215" y="409" on="1"/>
        <pt x="511" y="409" on="1"/>
        <pt x="492" y="316" on="1"/>
        <pt x="195" y="316" on="1"/>
        <pt x="149" y="99" on="1"/>
        <pt x="500" y="99" on="1"/>
        <pt x="479" y="0" on="1"/>
        <pt x="15" y="0" on="1"/>
      </contour>
      <contour>
        <pt x="468" y="801" on="1"/>
        <pt x="447" y="801" on="0"/>
        <pt x="417" y="814" on="0"/>
        <pt x="393" y="831" on="0"/>
        <pt x="369" y="844" on="0"/>
        <pt x="353" y="844" on="1"/>
        <pt x="337" y="844" on="0"/>
        <pt x="316" y="830" on="0"/>
        <pt x="303" y="813" on="0"/>
        <pt x="298" y="797" on="0"/>
        <pt x="298" y="796" on="1"/>
        <pt x="235" y="796" on="1"/>
        <pt x="237" y="804" on="0"/>
        <pt x="255" y="842" on="0"/>
        <pt x="288" y="881" on="0"/>
        <pt x="334" y="911" on="0"/>
        <pt x="364" y="911" on="1"/>
        <pt x="385" y="911" on="0"/>
        <pt x="413" y="897" on="0"/>
        <pt x="437" y="881" on="0"/>
        <pt x="461" y="867" on="0"/>
        <pt x="478" y="867" on="1"/>
        <pt x="496" y="867" on="0"/>
        <pt x="519" y="881" on="0"/>
        <pt x="534" y="899" on="0"/>
        <pt x="541" y="914" on="0"/>
        <pt x="541" y="916" on="1"/>
        <pt x="603" y="916" on="1"/>
        <pt x="601" y="910" on="0"/>
        <pt x="583" y="872" on="0"/>
        <pt x="549" y="832" on="0"/>
        <pt x="500" y="801" on="0"/>
      </contour>
    </TTGlyph>
    <TTGlyph name="Euro" xMin="23" yMin="-6" xMax="759" yMax="714">
      <contour>
        <pt x="149" y="431" on="1"/>
        <pt x="171" y="487" on="0"/>
        <pt x="245" y="590" on="0"/>
        <pt x="345" y="668" on="0"/>
        <pt x="466" y="714" on="0"/>
        <pt x="534" y="714" on="1"/>
        <pt x="627" y="714" on="0"/>
        <pt x="741" y="628" on="0"/>
        <pt x="759" y="559" on="1"/>
        <pt x="659" y="500" on="1"/>
        <pt x="652" y="532" on="0"/>
        <pt x="621" y="576" on="0"/>
        <pt x="580" y="602" on="0"/>
        <pt x="533" y="613" on="0"/>
        <pt x="509" y="613" on="1"/>
        <pt x="467" y="613" on="0"/>
        <pt x="392" y="584" on="0"/>
        <pt x="329" y="534" on="0"/>
        <pt x="281" y="468" on="0"/>
        <pt x="265" y="431" on="1"/>
        <pt x="536" y="431" on="1"/>
        <pt x="497" y="369" on="1"/>
        <pt x="245" y="369" on="1"/>
        <pt x="237" y="339" on="0"/>
        <pt x="237" y="313" on="1"/>
        <pt x="479" y="313" on="1"/>
        <pt x="440" y="251" on="1"/>
        <pt x="241" y="251" on="1"/>
        <pt x="247" y="218" on="0"/>
        <pt x="274" y="161" on="0"/>
        <pt x="315" y="119" on="0"/>
        <pt x="368" y="95" on="0"/>
        <pt x="401" y="95" on="1"/>
        <pt x="425" y="95" on="0"/>
        <pt x="480" y="108" on="0"/>
        <pt x="534" y="137" on="0"/>
        <pt x="583" y="181" on="0"/>
        <pt x="603" y="212" on="1"/>
        <pt x="685" y="159" on="1"/>
        <pt x="661" y="119" on="0"/>
        <pt x="589" y="58" on="0"/>
        <pt x="505" y="16" on="0"/>
        <pt x="416" y="-6" on="0"/>
        <pt x="376" y="-6" on="1"/>
        <pt x="321" y="-6" on="0"/>
        <pt x="234" y="36" on="0"/>
        <pt x="170" y="106" on="0"/>
        <pt x="131" y="200" on="0"/>
        <pt x="125" y="251" on="1"/>
        <pt x="23" y="251" on="1"/>
        <pt x="63" y="313" on="1"/>
        <pt x="123" y="313" on="1"/>
        <pt x="124" y="327" on="0"/>
        <pt x="128" y="355" on="0"/>
        <pt x="131" y="369" on="1"/>
        <pt x="65" y="369" on="1"/>
        <pt x="104" y="431" on="1"/>
      </contour>
    </TTGlyph>
    <TTGlyph name="F" xMin="15" yMin="0" xMax="616" yMax="710">
      <contour>
        <pt x="166" y="710" on="1"/>
        <pt x="616" y="710" on="1"/>
        <pt x="595" y="611" on="1"/>
        <pt x="258" y="611" on="1"/>
        <pt x="213" y="399" on="1"/>
        <pt x="495" y="399" on="1"/>
        <pt x="475" y="306" on="1"/>
        <pt x="193" y="306" on="1"/>
        <pt x="128" y="0" on="1"/>
        <pt x="15" y="0" on="1"/>
      </contour>
    </TTGlyph>
    <TTGlyph name="F.sc" xMin="9" yMin="0" xMax="517" yMax="555">
      <contour>
        <pt x="127" y="555" on="1"/>
        <pt x="517" y="555" on="1"/>
        <pt x="498" y="467" on="1"/>
        <pt x="208" y="467" on="1"/>
        <pt x="175" y="315" on="1"/>
        <pt x="419" y="315" on="1"/>
        <pt x="401" y="233" on="1"/>
        <pt x="158" y="233" on="1"/>
        <pt x="108" y="0" on="1"/>
        <pt x="9" y="0" on="1"/>
      </contour>
    </TTGlyph>
    <TTGlyph name="G" xMin="41" yMin="-5" xMax="679" yMax="715">
      <contour>
        <pt x="505" y="87" on="1"/>
        <pt x="401" y="-5" on="0"/>
        <pt x="292" y="-5" on="1"/>
        <pt x="235" y="-5" on="0"/>
        <pt x="142" y="42" on="0"/>
        <pt x="76" y="122" on="0"/>
        <pt x="41" y="230" on="0"/>
        <pt x="41" y="290" on="1"/>
        <pt x="41" y="373" on="0"/>
        <pt x="109" y="527" on="0"/>
        <pt x="223" y="645" on="0"/>
        <pt x="370" y="715" on="0"/>
        <pt x="449" y="715" on="1"/>
        <pt x="546" y="715" on="0"/>
        <pt x="659" y="630" on="0"/>
        <pt x="679" y="560" on="1"/>
        <pt x="581" y="498" on="1"/>
        <pt x="565" y="556" on="0"/>
        <pt x="482" y="614" on="0"/>
        <pt x="424" y="614" on="1"/>
        <pt x="370" y="614" on="0"/>
        <pt x="272" y="560" on="0"/>
        <pt x="199" y="471" on="0"/>
        <pt x="156" y="358" on="0"/>
        <pt x="156" y="299" on="1"/>
        <pt x="156" y="257" on="0"/>
        <pt x="179" y="183" on="0"/>
        <pt x="222" y="128" on="0"/>
        <pt x="284" y="96" on="0"/>
        <pt x="322" y="96" on="1"/>
        <pt x="426" y="96" on="0"/>
        <pt x="530" y="201" on="1"/>
        <pt x="546" y="276" on="1"/>
        <pt x="406" y="276" on="1"/>
        <pt x="424" y="359" on="1"/>
        <pt x="657" y="359" on="1"/>
        <pt x="581" y="0" on="1"/>
        <pt x="487" y="0" on="1"/>
      </contour>
    </TTGlyph>
    <TTGlyph name="G.alt" xMin="42" yMin="-5" xMax="685" yMax="715">
      <contour>
        <pt x="301" y="-5" on="1"/>
        <pt x="239" y="-5" on="0"/>
        <pt x="143" y="44" on="0"/>
        <pt x="77" y="126" on="0"/>
        <pt x="42" y="233" on="0"/>
        <pt x="42" y="292" on="1"/>
        <pt x="42" y="370" on="0"/>
        <pt x="107" y="522" on="0"/>
        <pt x="218" y="642" on="0"/>
        <pt x="367" y="715" on="0"/>
        <pt x="451" y="715" on="1"/>
        <pt x="537" y="715" on="0"/>
        <pt x="652" y="634" on="0"/>
        <pt x="677" y="565" on="1"/>
        <pt x="573" y="494" on="1"/>
        <pt x="567" y="512" on="0"/>
        <pt x="545" y="554" on="0"/>
        <pt x="509" y="590" on="0"/>
        <pt x="458" y="614" on="0"/>
        <pt x="424" y="614" on="1"/>
        <pt x="367" y="614" on="0"/>
        <pt x="269" y="557" on="0"/>
        <pt x="197" y="466" on="0"/>
        <pt x="156" y="353" on="0"/>
        <pt x="156" y="297" on="1"/>
        <pt x="156" y="258" on="0"/>
        <pt x="175" y="186" on="0"/>
        <pt x="214" y="130" on="0"/>
        <pt x="273" y="96" on="0"/>
        <pt x="313" y="96" on="1"/>
        <pt x="350" y="96" on="0"/>
        <pt x="421" y="125" on="0"/>
        <pt x="481" y="172" on="0"/>
        <pt x="527" y="233" on="0"/>
        <pt x="541" y="266" on="1"/>
        <pt x="380" y="266" on="1"/>
        <pt x="401" y="366" on="1"/>
        <pt x="685" y="366" on="1"/>
        <pt x="684" y="362" on="0"/>
        <pt x="680" y="346" on="0"/>
        <pt x="676" y="328" on="0"/>
        <pt x="672" y="312" on="0"/>
        <pt x="671" y="308" on="1"/>
        <pt x="654" y="245" on="0"/>
        <pt x="584" y="131" on="0"/>
        <pt x="486" y="46" on="0"/>
        <pt x="367" y="-5" on="0"/>
      </contour>
    </TTGlyph>
    <TTGlyph name="G.sc" xMin="28" yMin="-4" xMax="560" yMax="559">
      <contour>
        <pt x="416" y="64" on="1"/>
        <pt x="332" y="-4" on="0"/>
        <pt x="242" y="-4" on="1"/>
        <pt x="193" y="-4" on="0"/>
        <pt x="114" y="35" on="0"/>
        <pt x="58" y="100" on="0"/>
        <pt x="28" y="186" on="0"/>
        <pt x="28" y="233" on="1"/>
        <pt x="28" y="297" on="0"/>
        <pt x="84" y="415" on="0"/>
        <pt x="177" y="505" on="0"/>
        <pt x="300" y="559" on="0"/>
        <pt x="366" y="559" on="1"/>
        <pt x="447" y="559" on="0"/>
        <pt x="543" y="492" on="0"/>
        <pt x="560" y="438" on="1"/>
        <pt x="473" y="382" on="1"/>
        <pt x="460" y="426" on="0"/>
        <pt x="391" y="470" on="0"/>
        <pt x="344" y="470" on="1"/>
        <pt x="300" y="470" on="0"/>
        <pt x="221" y="431" on="0"/>
        <pt x="163" y="366" on="0"/>
        <pt x="129" y="283" on="0"/>
        <pt x="129" y="239" on="1"/>
        <pt x="129" y="206" on="0"/>
        <pt x="149" y="150" on="0"/>
        <pt x="185" y="109" on="0"/>
        <pt x="237" y="85" on="0"/>
        <pt x="269" y="85" on="1"/>
        <pt x="351" y="85" on="0"/>
        <pt x="437" y="163" on="1"/>
        <pt x="447" y="210" on="1"/>
        <pt x="328" y="210" on="1"/>
        <pt x="343" y="283" on="1"/>
        <pt x="546" y="283" on="1"/>
        <pt x="486" y="0" on="1"/>
        <pt x="403" y="0" on="1"/>
      </contour>
    </TTGlyph>
    <TTGlyph name="Gacute" xMin="41" yMin="-5" xMax="679" yMax="916">
      <contour>
        <pt x="470" y="788" on="1"/>
        <pt x="400" y="806" on="1"/>
        <pt x="476" y="916" on="1"/>
        <pt x="581" y="916" on="1"/>
      </contour>
      <contour>
        <pt x="505" y="87" on="1"/>
        <pt x="401" y="-5" on="0"/>
        <pt x="292" y="-5" on="1"/>
        <pt x="235" y="-5" on="0"/>
        <pt x="142" y="42" on="0"/>
        <pt x="76" y="122" on="0"/>
        <pt x="41" y="230" on="0"/>
        <pt x="41" y="290" on="1"/>
        <pt x="41" y="373" on="0"/>
        <pt x="109" y="527" on="0"/>
        <pt x="223" y="645" on="0"/>
        <pt x="370" y="715" on="0"/>
        <pt x="449" y="715" on="1"/>
        <pt x="546" y="715" on="0"/>
        <pt x="659" y="630" on="0"/>
        <pt x="679" y="560" on="1"/>
        <pt x="581" y="498" on="1"/>
        <pt x="565" y="556" on="0"/>
        <pt x="482" y="614" on="0"/>
        <pt x="424" y="614" on="1"/>
        <pt x="370" y="614" on="0"/>
        <pt x="272" y="560" on="0"/>
        <pt x="199" y="471" on="0"/>
        <pt x="156" y="358" on="0"/>
        <pt x="156" y="299" on="1"/>
        <pt x="156" y="257" on="0"/>
        <pt x="179" y="183" on="0"/>
        <pt x="222" y="128" on="0"/>
        <pt x="284" y="96" on="0"/>
        <pt x="322" y="96" on="1"/>
        <pt x="426" y="96" on="0"/>
        <pt x="530" y="201" on="1"/>
        <pt x="546" y="276" on="1"/>
        <pt x="406" y="276" on="1"/>
        <pt x="424" y="359" on="1"/>
        <pt x="657" y="359" on="1"/>
        <pt x="581" y="0" on="1"/>
        <pt x="487" y="0" on="1"/>
      </contour>
    </TTGlyph>
    <TTGlyph name="Gbreve" xMin="41" yMin="-5" xMax="679" yMax="916">
      <contour>
        <pt x="505" y="87" on="1"/>
        <pt x="401" y="-5" on="0"/>
        <pt x="292" y="-5" on="1"/>
        <pt x="235" y="-5" on="0"/>
        <pt x="142" y="42" on="0"/>
        <pt x="76" y="122" on="0"/>
        <pt x="41" y="230" on="0"/>
        <pt x="41" y="290" on="1"/>
        <pt x="41" y="373" on="0"/>
        <pt x="109" y="527" on="0"/>
        <pt x="223" y="645" on="0"/>
        <pt x="370" y="715" on="0"/>
        <pt x="449" y="715" on="1"/>
        <pt x="546" y="715" on="0"/>
        <pt x="659" y="630" on="0"/>
        <pt x="679" y="560" on="1"/>
        <pt x="581" y="498" on="1"/>
        <pt x="565" y="556" on="0"/>
        <pt x="482" y="614" on="0"/>
        <pt x="424" y="614" on="1"/>
        <pt x="370" y="614" on="0"/>
        <pt x="272" y="560" on="0"/>
        <pt x="199" y="471" on="0"/>
        <pt x="156" y="358" on="0"/>
        <pt x="156" y="299" on="1"/>
        <pt x="156" y="257" on="0"/>
        <pt x="179" y="183" on="0"/>
        <pt x="222" y="128" on="0"/>
        <pt x="284" y="96" on="0"/>
        <pt x="322" y="96" on="1"/>
        <pt x="426" y="96" on="0"/>
        <pt x="530" y="201" on="1"/>
        <pt x="546" y="276" on="1"/>
        <pt x="406" y="276" on="1"/>
        <pt x="424" y="359" on="1"/>
        <pt x="657" y="359" on="1"/>
        <pt x="581" y="0" on="1"/>
        <pt x="487" y="0" on="1"/>
      </contour>
      <contour>
        <pt x="470" y="845" on="1"/>
        <pt x="491" y="845" on="0"/>
        <pt x="531" y="885" on="0"/>
        <pt x="540" y="916" on="1"/>
        <pt x="601" y="916" on="1"/>
        <pt x="595" y="890" on="0"/>
        <pt x="568" y="845" on="0"/>
        <pt x="530" y="812" on="0"/>
        <pt x="484" y="794" on="0"/>
        <pt x="459" y="794" on="1"/>
        <pt x="416" y="794" on="0"/>
        <pt x="365" y="845" on="0"/>
        <pt x="365" y="887" on="1"/>
        <pt x="365" y="895" on="0"/>
        <pt x="367" y="909" on="0"/>
        <pt x="369" y="916" on="1"/>
        <pt x="430" y="916" on="1"/>
        <pt x="429" y="911" on="0"/>
        <pt x="428" y="903" on="0"/>
        <pt x="428" y="898" on="1"/>
        <pt x="428" y="876" on="0"/>
        <pt x="451" y="845" on="0"/>
      </contour>
    </TTGlyph>
    <TTGlyph name="Gcircumflex" xMin="41" yMin="-5" xMax="679" yMax="916">
      <contour>
        <pt x="333" y="821" on="1"/>
        <pt x="452" y="916" on="1"/>
        <pt x="532" y="916" on="1"/>
        <pt x="610" y="821" on="1"/>
        <pt x="546" y="793" on="1"/>
        <pt x="479" y="856" on="1"/>
        <pt x="385" y="793" on="1"/>
      </contour>
      <contour>
        <pt x="505" y="87" on="1"/>
        <pt x="401" y="-5" on="0"/>
        <pt x="292" y="-5" on="1"/>
        <pt x="235" y="-5" on="0"/>
        <pt x="142" y="42" on="0"/>
        <pt x="76" y="122" on="0"/>
        <pt x="41" y="230" on="0"/>
        <pt x="41" y="290" on="1"/>
        <pt x="41" y="373" on="0"/>
        <pt x="109" y="527" on="0"/>
        <pt x="223" y="645" on="0"/>
        <pt x="370" y="715" on="0"/>
        <pt x="449" y="715" on="1"/>
        <pt x="546" y="715" on="0"/>
        <pt x="659" y="630" on="0"/>
        <pt x="679" y="560" on="1"/>
        <pt x="581" y="498" on="1"/>
        <pt x="565" y="556" on="0"/>
        <pt x="482" y="614" on="0"/>
        <pt x="424" y="614" on="1"/>
        <pt x="370" y="614" on="0"/>
        <pt x="272" y="560" on="0"/>
        <pt x="199" y="471" on="0"/>
        <pt x="156" y="358" on="0"/>
        <pt x="156" y="299" on="1"/>
        <pt x="156" y="257" on="0"/>
        <pt x="179" y="183" on="0"/>
        <pt x="222" y="128" on="0"/>
        <pt x="284" y="96" on="0"/>
        <pt x="322" y="96" on="1"/>
        <pt x="426" y="96" on="0"/>
        <pt x="530" y="201" on="1"/>
        <pt x="546" y="276" on="1"/>
        <pt x="406" y="276" on="1"/>
        <pt x="424" y="359" on="1"/>
        <pt x="657" y="359" on="1"/>
        <pt x="581" y="0" on="1"/>
        <pt x="487" y="0" on="1"/>
      </contour>
    </TTGlyph>
    <TTGlyph name="Gcommaaccent" xMin="41" yMin="-213" xMax="679" yMax="715">
      <contour>
        <pt x="215" y="-213" on="1"/>
        <pt x="254" y="-136" on="1"/>
        <pt x="222" y="-136" on="1"/>
        <pt x="241" y="-48" on="1"/>
        <pt x="335" y="-48" on="1"/>
        <pt x="316" y="-136" on="1"/>
        <pt x="266" y="-213" on="1"/>
      </contour>
      <contour>
        <pt x="505" y="87" on="1"/>
        <pt x="401" y="-5" on="0"/>
        <pt x="292" y="-5" on="1"/>
        <pt x="235" y="-5" on="0"/>
        <pt x="142" y="42" on="0"/>
        <pt x="76" y="122" on="0"/>
        <pt x="41" y="230" on="0"/>
        <pt x="41" y="290" on="1"/>
        <pt x="41" y="373" on="0"/>
        <pt x="109" y="527" on="0"/>
        <pt x="223" y="645" on="0"/>
        <pt x="370" y="715" on="0"/>
        <pt x="449" y="715" on="1"/>
        <pt x="546" y="715" on="0"/>
        <pt x="659" y="630" on="0"/>
        <pt x="679" y="560" on="1"/>
        <pt x="581" y="498" on="1"/>
        <pt x="565" y="556" on="0"/>
        <pt x="482" y="614" on="0"/>
        <pt x="424" y="614" on="1"/>
        <pt x="370" y="614" on="0"/>
        <pt x="272" y="560" on="0"/>
        <pt x="199" y="471" on="0"/>
        <pt x="156" y="358" on="0"/>
        <pt x="156" y="299" on="1"/>
        <pt x="156" y="257" on="0"/>
        <pt x="179" y="183" on="0"/>
        <pt x="222" y="128" on="0"/>
        <pt x="284" y="96" on="0"/>
        <pt x="322" y="96" on="1"/>
        <pt x="426" y="96" on="0"/>
        <pt x="530" y="201" on="1"/>
        <pt x="546" y="276" on="1"/>
        <pt x="406" y="276" on="1"/>
        <pt x="424" y="359" on="1"/>
        <pt x="657" y="359" on="1"/>
        <pt x="581" y="0" on="1"/>
        <pt x="487" y="0" on="1"/>
      </contour>
    </TTGlyph>
    <TTGlyph name="Gdotaccent" xMin="41" yMin="-5" xMax="679" yMax="916">
      <contour>
        <pt x="505" y="87" on="1"/>
        <pt x="401" y="-5" on="0"/>
        <pt x="292" y="-5" on="1"/>
        <pt x="235" y="-5" on="0"/>
        <pt x="142" y="42" on="0"/>
        <pt x="76" y="122" on="0"/>
        <pt x="41" y="230" on="0"/>
        <pt x="41" y="290" on="1"/>
        <pt x="41" y="373" on="0"/>
        <pt x="109" y="527" on="0"/>
        <pt x="223" y="645" on="0"/>
        <pt x="370" y="715" on="0"/>
        <pt x="449" y="715" on="1"/>
        <pt x="546" y="715" on="0"/>
        <pt x="659" y="630" on="0"/>
        <pt x="679" y="560" on="1"/>
        <pt x="581" y="498" on="1"/>
        <pt x="565" y="556" on="0"/>
        <pt x="482" y="614" on="0"/>
        <pt x="424" y="614" on="1"/>
        <pt x="370" y="614" on="0"/>
        <pt x="272" y="560" on="0"/>
        <pt x="199" y="471" on="0"/>
        <pt x="156" y="358" on="0"/>
        <pt x="156" y="299" on="1"/>
        <pt x="156" y="257" on="0"/>
        <pt x="179" y="183" on="0"/>
        <pt x="222" y="128" on="0"/>
        <pt x="284" y="96" on="0"/>
        <pt x="322" y="96" on="1"/>
        <pt x="426" y="96" on="0"/>
        <pt x="530" y="201" on="1"/>
        <pt x="546" y="276" on="1"/>
        <pt x="406" y="276" on="1"/>
        <pt x="424" y="359" on="1"/>
        <pt x="657" y="359" on="1"/>
        <pt x="581" y="0" on="1"/>
        <pt x="487" y="0" on="1"/>
      </contour>
      <contour>
        <pt x="422" y="801" on="1"/>
        <pt x="447" y="916" on="1"/>
        <pt x="545" y="916" on="1"/>
        <pt x="521" y="801" on="1"/>
      </contour>
    </TTGlyph>
    <TTGlyph name="H" xMin="15" yMin="0" xMax="723" yMax="710">
      <contour>
        <pt x="166" y="710" on="1"/>
        <pt x="279" y="710" on="1"/>
        <pt x="216" y="413" on="1"/>
        <pt x="548" y="413" on="1"/>
        <pt x="611" y="710" on="1"/>
        <pt x="723" y="710" on="1"/>
        <pt x="572" y="0" on="1"/>
        <pt x="460" y="0" on="1"/>
        <pt x="527" y="313" on="1"/>
        <pt x="195" y="313" on="1"/>
        <pt x="128" y="0" on="1"/>
        <pt x="15" y="0" on="1"/>
      </contour>
    </TTGlyph>
    <TTGlyph name="H.sc" xMin="9" yMin="0" xMax="610" yMax="555">
      <contour>
        <pt x="127" y="555" on="1"/>
        <pt x="226" y="555" on="1"/>
        <pt x="178" y="328" on="1"/>
        <pt x="463" y="328" on="1"/>
        <pt x="510" y="555" on="1"/>
        <pt x="610" y="555" on="1"/>
        <pt x="492" y="0" on="1"/>
        <pt x="393" y="0" on="1"/>
        <pt x="443" y="240" on="1"/>
        <pt x="159" y="240" on="1"/>
        <pt x="108" y="0" on="1"/>
        <pt x="9" y="0" on="1"/>
      </contour>
    </TTGlyph>
    <TTGlyph name="Hbar" xMin="20" yMin="0" xMax="753" yMax="710">
      <contour>
        <pt x="101" y="602" on="1"/>
        <pt x="148" y="602" on="1"/>
        <pt x="171" y="710" on="1"/>
        <pt x="284" y="710" on="1"/>
        <pt x="261" y="602" on="1"/>
        <pt x="593" y="602" on="1"/>
        <pt x="616" y="710" on="1"/>
        <pt x="729" y="710" on="1"/>
        <pt x="706" y="602" on="1"/>
        <pt x="753" y="602" on="1"/>
        <pt x="741" y="546" on="1"/>
        <pt x="694" y="546" on="1"/>
        <pt x="578" y="0" on="1"/>
        <pt x="465" y="0" on="1"/>
        <pt x="532" y="313" on="1"/>
        <pt x="200" y="313" on="1"/>
        <pt x="133" y="0" on="1"/>
        <pt x="20" y="0" on="1"/>
        <pt x="136" y="546" on="1"/>
        <pt x="89" y="546" on="1"/>
      </contour>
      <contour>
        <pt x="553" y="413" on="1"/>
        <pt x="581" y="546" on="1"/>
        <pt x="249" y="546" on="1"/>
        <pt x="221" y="413" on="1"/>
      </contour>
    </TTGlyph>
    <TTGlyph name="Hcircumflex" xMin="15" yMin="0" xMax="723" yMax="916">
      <contour>
        <pt x="327" y="821" on="1"/>
        <pt x="446" y="916" on="1"/>
        <pt x="526" y="916" on="1"/>
        <pt x="604" y="821" on="1"/>
        <pt x="540" y="793" on="1"/>
        <pt x="473" y="856" on="1"/>
        <pt x="379" y="793" on="1"/>
      </contour>
      <contour>
        <pt x="166" y="710" on="1"/>
        <pt x="279" y="710" on="1"/>
        <pt x="216" y="413" on="1"/>
        <pt x="548" y="413" on="1"/>
        <pt x="611" y="710" on="1"/>
        <pt x="723" y="710" on="1"/>
        <pt x="572" y="0" on="1"/>
        <pt x="460" y="0" on="1"/>
        <pt x="527" y="313" on="1"/>
        <pt x="195" y="313" on="1"/>
        <pt x="128" y="0" on="1"/>
        <pt x="15" y="0" on="1"/>
      </contour>
    </TTGlyph>
    <TTGlyph name="Hdotbelow" xMin="15" yMin="-189" xMax="723" yMax="710">
      <contour>
        <pt x="166" y="710" on="1"/>
        <pt x="279" y="710" on="1"/>
        <pt x="216" y="413" on="1"/>
        <pt x="548" y="413" on="1"/>
        <pt x="611" y="710" on="1"/>
        <pt x="723" y="710" on="1"/>
        <pt x="572" y="0" on="1"/>
        <pt x="460" y="0" on="1"/>
        <pt x="527" y="313" on="1"/>
        <pt x="195" y="313" on="1"/>
        <pt x="128" y="0" on="1"/>
        <pt x="15" y="0" on="1"/>
      </contour>
      <contour>
        <pt x="204" y="-189" on="1"/>
        <pt x="229" y="-73" on="1"/>
        <pt x="328" y="-73" on="1"/>
        <pt x="304" y="-189" on="1"/>
      </contour>
    </TTGlyph>
    <TTGlyph name="I" xMin="15" yMin="0" xMax="279" yMax="709">
      <contour>
        <pt x="166" y="709" on="1"/>
        <pt x="279" y="709" on="1"/>
        <pt x="128" y="0" on="1"/>
        <pt x="15" y="0" on="1"/>
      </contour>
    </TTGlyph>
    <TTGlyph name="I.sc" xMin="9" yMin="0" xMax="226" yMax="555">
      <contour>
        <pt x="127" y="555" on="1"/>
        <pt x="226" y="555" on="1"/>
        <pt x="108" y="0" on="1"/>
        <pt x="9" y="0" on="1"/>
      </contour>
    </TTGlyph>
    <TTGlyph name="IJ" xMin="15" yMin="-11" xMax="762" yMax="709">
      <contour>
        <pt x="166" y="709" on="1"/>
        <pt x="279" y="709" on="1"/>
        <pt x="128" y="0" on="1"/>
        <pt x="15" y="0" on="1"/>
      </contour>
      <contour>
        <pt x="367" y="-11" on="1"/>
        <pt x="282" y="-11" on="0"/>
        <pt x="230" y="33" on="1"/>
        <pt x="276" y="125" on="1"/>
        <pt x="289" y="113" on="0"/>
        <pt x="347" y="90" on="0"/>
        <pt x="388" y="90" on="1"/>
        <pt x="431" y="90" on="0"/>
        <pt x="489" y="123" on="0"/>
        <pt x="530" y="188" on="0"/>
        <pt x="559" y="285" on="0"/>
        <pt x="573" y="349" on="1"/>
        <pt x="650" y="709" on="1"/>
        <pt x="762" y="709" on="1"/>
        <pt x="685" y="349" on="1"/>
        <pt x="668" y="268" on="0"/>
        <pt x="625" y="135" on="0"/>
        <pt x="554" y="41" on="0"/>
        <pt x="448" y="-11" on="0"/>
      </contour>
    </TTGlyph>
    <TTGlyph name="Iacute" xMin="15" yMin="0" xMax="353" yMax="916">
      <contour>
        <pt x="166" y="709" on="1"/>
        <pt x="279" y="709" on="1"/>
        <pt x="128" y="0" on="1"/>
        <pt x="15" y="0" on="1"/>
      </contour>
      <contour>
        <pt x="242" y="788" on="1"/>
        <pt x="172" y="806" on="1"/>
        <pt x="248" y="916" on="1"/>
        <pt x="353" y="916" on="1"/>
      </contour>
    </TTGlyph>
    <TTGlyph name="Ibreve" xMin="15" yMin="0" xMax="372" yMax="916">
      <contour>
        <pt x="166" y="709" on="1"/>
        <pt x="279" y="709" on="1"/>
        <pt x="128" y="0" on="1"/>
        <pt x="15" y="0" on="1"/>
      </contour>
      <contour>
        <pt x="241" y="845" on="1"/>
        <pt x="262" y="845" on="0"/>
        <pt x="302" y="885" on="0"/>
        <pt x="311" y="916" on="1"/>
        <pt x="372" y="916" on="1"/>
        <pt x="366" y="890" on="0"/>
        <pt x="339" y="845" on="0"/>
        <pt x="301" y="812" on="0"/>
        <pt x="255" y="794" on="0"/>
        <pt x="230" y="794" on="1"/>
        <pt x="187" y="794" on="0"/>
        <pt x="136" y="845" on="0"/>
        <pt x="136" y="887" on="1"/>
        <pt x="136" y="895" on="0"/>
        <pt x="138" y="909" on="0"/>
        <pt x="140" y="916" on="1"/>
        <pt x="201" y="916" on="1"/>
        <pt x="200" y="911" on="0"/>
        <pt x="199" y="903" on="0"/>
        <pt x="199" y="898" on="1"/>
        <pt x="199" y="876" on="0"/>
        <pt x="222" y="845" on="0"/>
      </contour>
    </TTGlyph>
    <TTGlyph name="Icircumflex" xMin="15" yMin="0" xMax="383" yMax="916">
      <contour>
        <pt x="166" y="709" on="1"/>
        <pt x="279" y="709" on="1"/>
        <pt x="128" y="0" on="1"/>
        <pt x="15" y="0" on="1"/>
      </contour>
      <contour>
        <pt x="106" y="821" on="1"/>
        <pt x="225" y="916" on="1"/>
        <pt x="305" y="916" on="1"/>
        <pt x="383" y="821" on="1"/>
        <pt x="319" y="793" on="1"/>
        <pt x="252" y="856" on="1"/>
        <pt x="158" y="793" on="1"/>
      </contour>
    </TTGlyph>
    <TTGlyph name="Idblgrave" xMin="15" yMin="0" xMax="359" yMax="918">
      <contour>
        <pt x="166" y="709" on="1"/>
        <pt x="279" y="709" on="1"/>
        <pt x="128" y="0" on="1"/>
        <pt x="15" y="0" on="1"/>
      </contour>
      <contour>
        <pt x="247" y="918" on="1"/>
        <pt x="334" y="918" on="1"/>
        <pt x="359" y="808" on="1"/>
        <pt x="299" y="789" on="1"/>
      </contour>
      <contour>
        <pt x="103" y="918" on="1"/>
        <pt x="192" y="918" on="1"/>
        <pt x="216" y="808" on="1"/>
        <pt x="155" y="789" on="1"/>
      </contour>
    </TTGlyph>
    <TTGlyph name="Idieresis" xMin="15" yMin="0" xMax="396" yMax="912">
      <contour>
        <pt x="166" y="709" on="1"/>
        <pt x="279" y="709" on="1"/>
        <pt x="128" y="0" on="1"/>
        <pt x="15" y="0" on="1"/>
      </contour>
      <contour>
        <pt x="110" y="802" on="1"/>
        <pt x="134" y="912" on="1"/>
        <pt x="225" y="912" on="1"/>
        <pt x="202" y="802" on="1"/>
      </contour>
      <contour>
        <pt x="282" y="802" on="1"/>
        <pt x="305" y="912" on="1"/>
        <pt x="396" y="912" on="1"/>
        <pt x="373" y="802" on="1"/>
      </contour>
    </TTGlyph>
    <TTGlyph name="Idotaccent" xMin="15" yMin="0" xMax="315" yMax="916">
      <contour>
        <pt x="166" y="709" on="1"/>
        <pt x="279" y="709" on="1"/>
        <pt x="128" y="0" on="1"/>
        <pt x="15" y="0" on="1"/>
      </contour>
      <contour>
        <pt x="192" y="801" on="1"/>
        <pt x="217" y="916" on="1"/>
        <pt x="315" y="916" on="1"/>
        <pt x="291" y="801" on="1"/>
      </contour>
    </TTGlyph>
    <TTGlyph name="Idotbelow" xMin="-20" yMin="-189" xMax="279" yMax="709">
      <contour>
        <pt x="166" y="709" on="1"/>
        <pt x="279" y="709" on="1"/>
        <pt x="128" y="0" on="1"/>
        <pt x="15" y="0" on="1"/>
      </contour>
      <contour>
        <pt x="-20" y="-189" on="1"/>
        <pt x="5" y="-73" on="1"/>
        <pt x="104" y="-73" on="1"/>
        <pt x="80" y="-189" on="1"/>
      </contour>
    </TTGlyph>
    <TTGlyph name="Igrave" xMin="15" yMin="0" xMax="296" yMax="917">
      <contour>
        <pt x="166" y="709" on="1"/>
        <pt x="279" y="709" on="1"/>
        <pt x="128" y="0" on="1"/>
        <pt x="15" y="0" on="1"/>
      </contour>
      <contour>
        <pt x="162" y="917" on="1"/>
        <pt x="266" y="917" on="1"/>
        <pt x="296" y="807" on="1"/>
        <pt x="220" y="788" on="1"/>
      </contour>
    </TTGlyph>
    <TTGlyph name="Iinvertedbreve" xMin="15" yMin="0" xMax="360" yMax="916">
      <contour>
        <pt x="166" y="709" on="1"/>
        <pt x="279" y="709" on="1"/>
        <pt x="128" y="0" on="1"/>
        <pt x="15" y="0" on="1"/>
      </contour>
      <contour>
        <pt x="125" y="794" on="1"/>
        <pt x="131" y="820" on="0"/>
        <pt x="158" y="865" on="0"/>
        <pt x="195" y="898" on="0"/>
        <pt x="241" y="916" on="0"/>
        <pt x="266" y="916" on="1"/>
        <pt x="309" y="916" on="0"/>
        <pt x="360" y="861" on="0"/>
        <pt x="360" y="821" on="1"/>
        <pt x="360" y="814" on="0"/>
        <pt x="358" y="801" on="0"/>
        <pt x="356" y="794" on="1"/>
        <pt x="297" y="794" on="1"/>
        <pt x="298" y="802" on="0"/>
        <pt x="299" y="814" on="0"/>
        <pt x="299" y="821" on="1"/>
        <pt x="299" y="865" on="0"/>
        <pt x="257" y="865" on="1"/>
        <pt x="227" y="865" on="0"/>
        <pt x="193" y="827" on="0"/>
        <pt x="185" y="794" on="1"/>
      </contour>
    </TTGlyph>
    <TTGlyph name="Imacron" xMin="15" yMin="0" xMax="404" yMax="898">
      <contour>
        <pt x="166" y="709" on="1"/>
        <pt x="279" y="709" on="1"/>
        <pt x="128" y="0" on="1"/>
        <pt x="15" y="0" on="1"/>
      </contour>
      <contour>
        <pt x="107" y="828" on="1"/>
        <pt x="121" y="898" on="1"/>
        <pt x="404" y="898" on="1"/>
        <pt x="389" y="828" on="1"/>
      </contour>
    </TTGlyph>
    <TTGlyph name="Iogonek" xMin="-38" yMin="-188" xMax="279" yMax="709">
      <contour>
        <pt x="166" y="709" on="1"/>
        <pt x="279" y="709" on="1"/>
        <pt x="128" y="0" on="1"/>
        <pt x="77" y="-29" on="0"/>
        <pt x="32" y="-74" on="0"/>
        <pt x="32" y="-95" on="1"/>
        <pt x="32" y="-127" on="0"/>
        <pt x="80" y="-130" on="1"/>
        <pt x="44" y="-188" on="1"/>
        <pt x="2" y="-181" on="0"/>
        <pt x="-38" y="-143" on="0"/>
        <pt x="-38" y="-118" on="1"/>
        <pt x="-38" y="-59" on="0"/>
        <pt x="61" y="0" on="1"/>
        <pt x="15" y="0" on="1"/>
      </contour>
    </TTGlyph>
    <TTGlyph name="Itilde" xMin="15" yMin="0" xMax="440" yMax="916">
      <contour>
        <pt x="166" y="709" on="1"/>
        <pt x="279" y="709" on="1"/>
        <pt x="128" y="0" on="1"/>
        <pt x="15" y="0" on="1"/>
      </contour>
      <contour>
        <pt x="305" y="801" on="1"/>
        <pt x="284" y="801" on="0"/>
        <pt x="254" y="814" on="0"/>
        <pt x="230" y="831" on="0"/>
        <pt x="206" y="844" on="0"/>
        <pt x="190" y="844" on="1"/>
        <pt x="174" y="844" on="0"/>
        <pt x="153" y="830" on="0"/>
        <pt x="140" y="813" on="0"/>
        <pt x="135" y="797" on="0"/>
        <pt x="135" y="796" on="1"/>
        <pt x="72" y="796" on="1"/>
        <pt x="74" y="804" on="0"/>
        <pt x="92" y="842" on="0"/>
        <pt x="125" y="881" on="0"/>
        <pt x="171" y="911" on="0"/>
        <pt x="201" y="911" on="1"/>
        <pt x="222" y="911" on="0"/>
        <pt x="250" y="897" on="0"/>
        <pt x="274" y="881" on="0"/>
        <pt x="298" y="867" on="0"/>
        <pt x="315" y="867" on="1"/>
        <pt x="333" y="867" on="0"/>
        <pt x="356" y="881" on="0"/>
        <pt x="371" y="899" on="0"/>
        <pt x="378" y="914" on="0"/>
        <pt x="378" y="916" on="1"/>
        <pt x="440" y="916" on="1"/>
        <pt x="438" y="910" on="0"/>
        <pt x="420" y="872" on="0"/>
        <pt x="386" y="832" on="0"/>
        <pt x="337" y="801" on="0"/>
      </contour>
    </TTGlyph>
    <TTGlyph name="J" xMin="-41" yMin="-11" xMax="491" yMax="709">
      <contour>
        <pt x="96" y="-11" on="1"/>
        <pt x="11" y="-11" on="0"/>
        <pt x="-41" y="33" on="1"/>
        <pt x="5" y="125" on="1"/>
        <pt x="18" y="113" on="0"/>
        <pt x="76" y="90" on="0"/>
        <pt x="117" y="90" on="1"/>
        <pt x="160" y="90" on="0"/>
        <pt x="218" y="123" on="0"/>
        <pt x="259" y="188" on="0"/>
        <pt x="288" y="285" on="0"/>
        <pt x="302" y="349" on="1"/>
        <pt x="379" y="709" on="1"/>
        <pt x="491" y="709" on="1"/>
        <pt x="414" y="349" on="1"/>
        <pt x="397" y="268" on="0"/>
        <pt x="354" y="135" on="0"/>
        <pt x="283" y="41" on="0"/>
        <pt x="177" y="-11" on="0"/>
      </contour>
    </TTGlyph>
    <TTGlyph name="J.sc" xMin="-39" yMin="-8" xMax="411" yMax="555">
      <contour>
        <pt x="81" y="-8" on="1"/>
        <pt x="6" y="-8" on="0"/>
        <pt x="-39" y="25" on="1"/>
        <pt x="2" y="107" on="1"/>
        <pt x="13" y="98" on="0"/>
        <pt x="64" y="80" on="0"/>
        <pt x="100" y="80" on="1"/>
        <pt x="137" y="80" on="0"/>
        <pt x="186" y="104" on="0"/>
        <pt x="219" y="152" on="0"/>
        <pt x="241" y="225" on="0"/>
        <pt x="251" y="273" on="1"/>
        <pt x="311" y="555" on="1"/>
        <pt x="411" y="555" on="1"/>
        <pt x="350" y="273" on="1"/>
        <pt x="336" y="210" on="0"/>
        <pt x="302" y="106" on="0"/>
        <pt x="243" y="32" on="0"/>
        <pt x="151" y="-8" on="0"/>
      </contour>
    </TTGlyph>
    <TTGlyph name="Jcircumflex" xMin="-41" yMin="-11" xMax="596" yMax="916">
      <contour>
        <pt x="319" y="821" on="1"/>
        <pt x="438" y="916" on="1"/>
        <pt x="518" y="916" on="1"/>
        <pt x="596" y="821" on="1"/>
        <pt x="532" y="793" on="1"/>
        <pt x="465" y="856" on="1"/>
        <pt x="371" y="793" on="1"/>
      </contour>
      <contour>
        <pt x="96" y="-11" on="1"/>
        <pt x="11" y="-11" on="0"/>
        <pt x="-41" y="33" on="1"/>
        <pt x="5" y="125" on="1"/>
        <pt x="18" y="113" on="0"/>
        <pt x="76" y="90" on="0"/>
        <pt x="117" y="90" on="1"/>
        <pt x="160" y="90" on="0"/>
        <pt x="218" y="123" on="0"/>
        <pt x="259" y="188" on="0"/>
        <pt x="288" y="285" on="0"/>
        <pt x="302" y="349" on="1"/>
        <pt x="379" y="709" on="1"/>
        <pt x="491" y="709" on="1"/>
        <pt x="414" y="349" on="1"/>
        <pt x="397" y="268" on="0"/>
        <pt x="354" y="135" on="0"/>
        <pt x="283" y="41" on="0"/>
        <pt x="177" y="-11" on="0"/>
      </contour>
    </TTGlyph>
    <TTGlyph name="K" xMin="15" yMin="0" xMax="712" yMax="710">
      <contour>
        <pt x="166" y="709" on="1"/>
        <pt x="279" y="709" on="1"/>
        <pt x="201" y="344" on="1"/>
        <pt x="587" y="710" on="1"/>
        <pt x="712" y="710" on="1"/>
        <pt x="381" y="396" on="1"/>
        <pt x="576" y="0" on="1"/>
        <pt x="450" y="0" on="1"/>
        <pt x="296" y="327" on="1"/>
        <pt x="173" y="214" on="1"/>
        <pt x="128" y="0" on="1"/>
        <pt x="15" y="0" on="1"/>
      </contour>
    </TTGlyph>
    <TTGlyph name="K.sc" xMin="9" yMin="0" xMax="600" yMax="555">
      <contour>
        <pt x="127" y="555" on="1"/>
        <pt x="226" y="555" on="1"/>
        <pt x="167" y="276" on="1"/>
        <pt x="495" y="555" on="1"/>
        <pt x="600" y="555" on="1"/>
        <pt x="321" y="309" on="1"/>
        <pt x="496" y="0" on="1"/>
        <pt x="390" y="0" on="1"/>
        <pt x="248" y="252" on="1"/>
        <pt x="144" y="168" on="1"/>
        <pt x="108" y="0" on="1"/>
        <pt x="9" y="0" on="1"/>
      </contour>
    </TTGlyph>
    <TTGlyph name="Kcommaaccent" xMin="15" yMin="-213" xMax="712" yMax="710">
      <contour>
        <pt x="200" y="-213" on="1"/>
        <pt x="239" y="-136" on="1"/>
        <pt x="207" y="-136" on="1"/>
        <pt x="226" y="-48" on="1"/>
        <pt x="320" y="-48" on="1"/>
        <pt x="301" y="-136" on="1"/>
        <pt x="251" y="-213" on="1"/>
      </contour>
      <contour>
        <pt x="166" y="709" on="1"/>
        <pt x="279" y="709" on="1"/>
        <pt x="201" y="344" on="1"/>
        <pt x="587" y="710" on="1"/>
        <pt x="712" y="710" on="1"/>
        <pt x="381" y="396" on="1"/>
        <pt x="576" y="0" on="1"/>
        <pt x="450" y="0" on="1"/>
        <pt x="296" y="327" on="1"/>
        <pt x="173" y="214" on="1"/>
        <pt x="128" y="0" on="1"/>
        <pt x="15" y="0" on="1"/>
      </contour>
    </TTGlyph>
    <TTGlyph name="L" xMin="15" yMin="0" xMax="506" yMax="710">
      <contour>
        <pt x="166" y="710" on="1"/>
        <pt x="279" y="710" on="1"/>
        <pt x="149" y="99" on="1"/>
        <pt x="506" y="99" on="1"/>
        <pt x="485" y="0" on="1"/>
        <pt x="15" y="0" on="1"/>
      </contour>
    </TTGlyph>
    <TTGlyph name="L.sc" xMin="9" yMin="0" xMax="410" yMax="555">
      <contour>
        <pt x="127" y="555" on="1"/>
        <pt x="226" y="555" on="1"/>
        <pt x="127" y="88" on="1"/>
        <pt x="410" y="88" on="1"/>
        <pt x="392" y="0" on="1"/>
        <pt x="9" y="0" on="1"/>
      </contour>
    </TTGlyph>
    <TTGlyph name="Lacute" xMin="15" yMin="0" xMax="506" yMax="916">
      <contour>
        <pt x="255" y="788" on="1"/>
        <pt x="185" y="806" on="1"/>
        <pt x="261" y="916" on="1"/>
        <pt x="366" y="916" on="1"/>
      </contour>
      <contour>
        <pt x="166" y="710" on="1"/>
        <pt x="279" y="710" on="1"/>
        <pt x="149" y="99" on="1"/>
        <pt x="506" y="99" on="1"/>
        <pt x="485" y="0" on="1"/>
        <pt x="15" y="0" on="1"/>
      </contour>
    </TTGlyph>
    <TTGlyph name="Lcaron" xMin="15" yMin="0" xMax="510" yMax="730">
      <contour>
        <pt x="330" y="620" on="1"/>
        <pt x="406" y="730" on="1"/>
        <pt x="510" y="730" on="1"/>
        <pt x="396" y="598" on="1"/>
      </contour>
      <contour>
        <pt x="166" y="710" on="1"/>
        <pt x="279" y="710" on="1"/>
        <pt x="149" y="99" on="1"/>
        <pt x="506" y="99" on="1"/>
        <pt x="485" y="0" on="1"/>
        <pt x="15" y="0" on="1"/>
      </contour>
    </TTGlyph>
    <TTGlyph name="Lcommaaccent" xMin="15" yMin="-213" xMax="506" yMax="710">
      <contour>
        <pt x="172" y="-213" on="1"/>
        <pt x="211" y="-136" on="1"/>
        <pt x="179" y="-136" on="1"/>
        <pt x="198" y="-48" on="1"/>
        <pt x="292" y="-48" on="1"/>
        <pt x="273" y="-136" on="1"/>
        <pt x="223" y="-213" on="1"/>
      </contour>
      <contour>
        <pt x="166" y="710" on="1"/>
        <pt x="279" y="710" on="1"/>
        <pt x="149" y="99" on="1"/>
        <pt x="506" y="99" on="1"/>
        <pt x="485" y="0" on="1"/>
        <pt x="15" y="0" on="1"/>
      </contour>
    </TTGlyph>
    <TTGlyph name="Ldot" xMin="15" yMin="0" xMax="506" yMax="710">
      <contour>
        <pt x="166" y="710" on="1"/>
        <pt x="279" y="710" on="1"/>
        <pt x="149" y="99" on="1"/>
        <pt x="506" y="99" on="1"/>
        <pt x="485" y="0" on="1"/>
        <pt x="15" y="0" on="1"/>
      </contour>
      <contour>
        <pt x="331" y="341" on="1"/>
        <pt x="360" y="478" on="1"/>
        <pt x="451" y="478" on="1"/>
        <pt x="422" y="341" on="1"/>
      </contour>
    </TTGlyph>
    <TTGlyph name="Lslash" xMin="6" yMin="0" xMax="513" yMax="710">
      <contour>
        <pt x="6" y="298" on="1"/>
        <pt x="99" y="357" on="1"/>
        <pt x="174" y="710" on="1"/>
        <pt x="286" y="710" on="1"/>
        <pt x="228" y="439" on="1"/>
        <pt x="363" y="524" on="1"/>
        <pt x="379" y="464" on="1"/>
        <pt x="211" y="357" on="1"/>
        <pt x="156" y="99" on="1"/>
        <pt x="513" y="99" on="1"/>
        <pt x="492" y="0" on="1"/>
        <pt x="23" y="0" on="1"/>
        <pt x="81" y="275" on="1"/>
        <pt x="22" y="237" on="1"/>
      </contour>
    </TTGlyph>
    <TTGlyph name="M" xMin="15" yMin="0" xMax="842" yMax="710">
      <contour>
        <pt x="166" y="710" on="1"/>
        <pt x="286" y="710" on="1"/>
        <pt x="412" y="276" on="1"/>
        <pt x="723" y="710" on="1"/>
        <pt x="842" y="710" on="1"/>
        <pt x="691" y="0" on="1"/>
        <pt x="578" y="0" on="1"/>
        <pt x="687" y="511" on="1"/>
        <pt x="411" y="124" on="1"/>
        <pt x="349" y="124" on="1"/>
        <pt x="237" y="511" on="1"/>
        <pt x="128" y="0" on="1"/>
        <pt x="15" y="0" on="1"/>
      </contour>
    </TTGlyph>
    <TTGlyph name="M.sc" xMin="9" yMin="0" xMax="712" yMax="555">
      <contour>
        <pt x="127" y="555" on="1"/>
        <pt x="234" y="555" on="1"/>
        <pt x="351" y="230" on="1"/>
        <pt x="606" y="555" on="1"/>
        <pt x="712" y="555" on="1"/>
        <pt x="594" y="0" on="1"/>
        <pt x="495" y="0" on="1"/>
        <pt x="576" y="380" on="1"/>
        <pt x="349" y="95" on="1"/>
        <pt x="295" y="95" on="1"/>
        <pt x="189" y="380" on="1"/>
        <pt x="108" y="0" on="1"/>
        <pt x="9" y="0" on="1"/>
      </contour>
    </TTGlyph>
    <TTGlyph name="N" xMin="15" yMin="0" xMax="744" yMax="710">
      <contour>
        <pt x="166" y="710" on="1"/>
        <pt x="254" y="710" on="1"/>
        <pt x="523" y="198" on="1"/>
        <pt x="631" y="709" on="1"/>
        <pt x="744" y="709" on="1"/>
        <pt x="593" y="0" on="1"/>
        <pt x="501" y="0" on="1"/>
        <pt x="234" y="500" on="1"/>
        <pt x="128" y="0" on="1"/>
        <pt x="15" y="0" on="1"/>
      </contour>
    </TTGlyph>
    <TTGlyph name="N.sc" xMin="9" yMin="0" xMax="628" yMax="555">
      <contour>
        <pt x="127" y="555" on="1"/>
        <pt x="204" y="555" on="1"/>
        <pt x="448" y="177" on="1"/>
        <pt x="528" y="555" on="1"/>
        <pt x="628" y="555" on="1"/>
        <pt x="510" y="0" on="1"/>
        <pt x="428" y="0" on="1"/>
        <pt x="187" y="370" on="1"/>
        <pt x="108" y="0" on="1"/>
        <pt x="9" y="0" on="1"/>
      </contour>
    </TTGlyph>
    <TTGlyph name="Nacute" xMin="15" yMin="0" xMax="744" yMax="916">
      <contour>
        <pt x="485" y="788" on="1"/>
        <pt x="415" y="806" on="1"/>
        <pt x="491" y="916" on="1"/>
        <pt x="596" y="916" on="1"/>
      </contour>
      <contour>
        <pt x="166" y="710" on="1"/>
        <pt x="254" y="710" on="1"/>
        <pt x="523" y="198" on="1"/>
        <pt x="631" y="709" on="1"/>
        <pt x="744" y="709" on="1"/>
        <pt x="593" y="0" on="1"/>
        <pt x="501" y="0" on="1"/>
        <pt x="234" y="500" on="1"/>
        <pt x="128" y="0" on="1"/>
        <pt x="15" y="0" on="1"/>
      </contour>
    </TTGlyph>
    <TTGlyph name="Ncaron" xMin="15" yMin="0" xMax="744" yMax="916">
      <contour>
        <pt x="344" y="888" on="1"/>
        <pt x="408" y="916" on="1"/>
        <pt x="475" y="853" on="1"/>
        <pt x="569" y="916" on="1"/>
        <pt x="621" y="888" on="1"/>
        <pt x="502" y="793" on="1"/>
        <pt x="422" y="793" on="1"/>
      </contour>
      <contour>
        <pt x="166" y="710" on="1"/>
        <pt x="254" y="710" on="1"/>
        <pt x="523" y="198" on="1"/>
        <pt x="631" y="709" on="1"/>
        <pt x="744" y="709" on="1"/>
        <pt x="593" y="0" on="1"/>
        <pt x="501" y="0" on="1"/>
        <pt x="234" y="500" on="1"/>
        <pt x="128" y="0" on="1"/>
        <pt x="15" y="0" on="1"/>
      </contour>
    </TTGlyph>
    <TTGlyph name="Ncommaaccent" xMin="15" yMin="-213" xMax="744" yMax="710">
      <contour>
        <pt x="224" y="-213" on="1"/>
        <pt x="263" y="-136" on="1"/>
        <pt x="231" y="-136" on="1"/>
        <pt x="250" y="-48" on="1"/>
        <pt x="344" y="-48" on="1"/>
        <pt x="325" y="-136" on="1"/>
        <pt x="275" y="-213" on="1"/>
      </contour>
      <contour>
        <pt x="166" y="710" on="1"/>
        <pt x="254" y="710" on="1"/>
        <pt x="523" y="198" on="1"/>
        <pt x="631" y="709" on="1"/>
        <pt x="744" y="709" on="1"/>
        <pt x="593" y="0" on="1"/>
        <pt x="501" y="0" on="1"/>
        <pt x="234" y="500" on="1"/>
        <pt x="128" y="0" on="1"/>
        <pt x="15" y="0" on="1"/>
      </contour>
    </TTGlyph>
    <TTGlyph name="Ndotaccent" xMin="15" yMin="0" xMax="744" yMax="916">
      <contour>
        <pt x="420" y="801" on="1"/>
        <pt x="445" y="916" on="1"/>
        <pt x="543" y="916" on="1"/>
        <pt x="519" y="801" on="1"/>
      </contour>
      <contour>
        <pt x="166" y="710" on="1"/>
        <pt x="254" y="710" on="1"/>
        <pt x="523" y="198" on="1"/>
        <pt x="631" y="709" on="1"/>
        <pt x="744" y="709" on="1"/>
        <pt x="593" y="0" on="1"/>
        <pt x="501" y="0" on="1"/>
        <pt x="234" y="500" on="1"/>
        <pt x="128" y="0" on="1"/>
        <pt x="15" y="0" on="1"/>
      </contour>
    </TTGlyph>
    <TTGlyph name="Ntilde" xMin="15" yMin="0" xMax="744" yMax="916">
      <contour>
        <pt x="166" y="710" on="1"/>
        <pt x="254" y="710" on="1"/>
        <pt x="523" y="198" on="1"/>
        <pt x="631" y="709" on="1"/>
        <pt x="744" y="709" on="1"/>
        <pt x="593" y="0" on="1"/>
        <pt x="501" y="0" on="1"/>
        <pt x="234" y="500" on="1"/>
        <pt x="128" y="0" on="1"/>
        <pt x="15" y="0" on="1"/>
      </contour>
      <contour>
        <pt x="535" y="801" on="1"/>
        <pt x="514" y="801" on="0"/>
        <pt x="484" y="814" on="0"/>
        <pt x="460" y="831" on="0"/>
        <pt x="436" y="844" on="0"/>
        <pt x="420" y="844" on="1"/>
        <pt x="404" y="844" on="0"/>
        <pt x="383" y="830" on="0"/>
        <pt x="370" y="813" on="0"/>
        <pt x="365" y="797" on="0"/>
        <pt x="365" y="796" on="1"/>
        <pt x="302" y="796" on="1"/>
        <pt x="304" y="804" on="0"/>
        <pt x="322" y="842" on="0"/>
        <pt x="355" y="881" on="0"/>
        <pt x="401" y="911" on="0"/>
        <pt x="431" y="911" on="1"/>
        <pt x="452" y="911" on="0"/>
        <pt x="480" y="897" on="0"/>
        <pt x="504" y="881" on="0"/>
        <pt x="528" y="867" on="0"/>
        <pt x="545" y="867" on="1"/>
        <pt x="563" y="867" on="0"/>
        <pt x="586" y="881" on="0"/>
        <pt x="601" y="899" on="0"/>
        <pt x="608" y="914" on="0"/>
        <pt x="608" y="916" on="1"/>
        <pt x="670" y="916" on="1"/>
        <pt x="668" y="910" on="0"/>
        <pt x="650" y="872" on="0"/>
        <pt x="616" y="832" on="0"/>
        <pt x="567" y="801" on="0"/>
      </contour>
    </TTGlyph>
    <TTGlyph name="O" xMin="41" yMin="-5" xMax="706" yMax="715">
      <contour>
        <pt x="297" y="-5" on="1"/>
        <pt x="235" y="-5" on="0"/>
        <pt x="140" y="44" on="0"/>
        <pt x="75" y="125" on="0"/>
        <pt x="41" y="231" on="0"/>
        <pt x="41" y="289" on="1"/>
        <pt x="41" y="370" on="0"/>
        <pt x="110" y="523" on="0"/>
        <pt x="224" y="643" on="0"/>
        <pt x="372" y="715" on="0"/>
        <pt x="452" y="715" on="1"/>
        <pt x="514" y="715" on="0"/>
        <pt x="609" y="665" on="0"/>
        <pt x="673" y="583" on="0"/>
        <pt x="706" y="476" on="0"/>
        <pt x="706" y="419" on="1"/>
        <pt x="706" y="339" on="0"/>
        <pt x="638" y="186" on="0"/>
        <pt x="525" y="67" on="0"/>
        <pt x="377" y="-5" on="0"/>
      </contour>
      <contour>
        <pt x="319" y="96" on="1"/>
        <pt x="377" y="96" on="0"/>
        <pt x="477" y="153" on="0"/>
        <pt x="550" y="244" on="0"/>
        <pt x="591" y="356" on="0"/>
        <pt x="591" y="411" on="1"/>
        <pt x="591" y="451" on="0"/>
        <pt x="570" y="525" on="0"/>
        <pt x="529" y="580" on="0"/>
        <pt x="469" y="613" on="0"/>
        <pt x="429" y="613" on="1"/>
        <pt x="370" y="613" on="0"/>
        <pt x="271" y="556" on="0"/>
        <pt x="197" y="466" on="0"/>
        <pt x="156" y="353" on="0"/>
        <pt x="156" y="298" on="1"/>
        <pt x="156" y="257" on="0"/>
        <pt x="177" y="184" on="0"/>
        <pt x="217" y="129" on="0"/>
        <pt x="278" y="96" on="0"/>
      </contour>
    </TTGlyph>
    <TTGlyph name="O.sc" xMin="26" yMin="-4" xMax="590" yMax="558">
      <contour>
        <pt x="248" y="-4" on="1"/>
        <pt x="195" y="-4" on="0"/>
        <pt x="112" y="35" on="0"/>
        <pt x="55" y="100" on="0"/>
        <pt x="26" y="184" on="0"/>
        <pt x="26" y="230" on="1"/>
        <pt x="26" y="293" on="0"/>
        <pt x="83" y="411" on="0"/>
        <pt x="177" y="502" on="0"/>
        <pt x="301" y="558" on="0"/>
        <pt x="369" y="558" on="1"/>
        <pt x="423" y="558" on="0"/>
        <pt x="505" y="519" on="0"/>
        <pt x="561" y="453" on="0"/>
        <pt x="590" y="368" on="0"/>
        <pt x="590" y="323" on="1"/>
        <pt x="590" y="261" on="0"/>
        <pt x="534" y="143" on="0"/>
        <pt x="440" y="51" on="0"/>
        <pt x="316" y="-4" on="0"/>
      </contour>
      <contour>
        <pt x="269" y="85" on="1"/>
        <pt x="317" y="85" on="0"/>
        <pt x="397" y="127" on="0"/>
        <pt x="455" y="193" on="0"/>
        <pt x="488" y="274" on="0"/>
        <pt x="488" y="314" on="1"/>
        <pt x="488" y="345" on="0"/>
        <pt x="470" y="401" on="0"/>
        <pt x="435" y="444" on="0"/>
        <pt x="383" y="469" on="0"/>
        <pt x="349" y="469" on="1"/>
        <pt x="301" y="469" on="0"/>
        <pt x="220" y="428" on="0"/>
        <pt x="161" y="362" on="0"/>
        <pt x="128" y="280" on="0"/>
        <pt x="128" y="240" on="1"/>
        <pt x="128" y="209" on="0"/>
        <pt x="146" y="153" on="0"/>
        <pt x="181" y="110" on="0"/>
        <pt x="234" y="85" on="0"/>
      </contour>
    </TTGlyph>
    <TTGlyph name="OE" xMin="41" yMin="-5" xMax="1099" yMax="715">
      <contour>
        <pt x="292" y="-5" on="1"/>
        <pt x="232" y="-5" on="0"/>
        <pt x="138" y="44" on="0"/>
        <pt x="74" y="125" on="0"/>
        <pt x="41" y="231" on="0"/>
        <pt x="41" y="288" on="1"/>
        <pt x="41" y="369" on="0"/>
        <pt x="109" y="523" on="0"/>
        <pt x="221" y="643" on="0"/>
        <pt x="368" y="715" on="0"/>
        <pt x="447" y="715" on="1"/>
        <pt x="481" y="715" on="0"/>
        <pt x="539" y="694" on="0"/>
        <pt x="584" y="657" on="0"/>
        <pt x="616" y="607" on="0"/>
        <pt x="626" y="578" on="1"/>
        <pt x="653" y="710" on="1"/>
        <pt x="1099" y="710" on="1"/>
        <pt x="1078" y="611" on="1"/>
        <pt x="745" y="611" on="1"/>
        <pt x="703" y="411" on="1"/>
        <pt x="984" y="411" on="1"/>
        <pt x="963" y="312" on="1"/>
        <pt x="682" y="312" on="1"/>
        <pt x="636" y="99" on="1"/>
        <pt x="977" y="99" on="1"/>
        <pt x="956" y="0" on="1"/>
        <pt x="502" y="0" on="1"/>
        <pt x="531" y="132" on="1"/>
        <pt x="508" y="103" on="0"/>
        <pt x="453" y="53" on="0"/>
        <pt x="392" y="16" on="0"/>
        <pt x="326" y="-5" on="0"/>
      </contour>
      <contour>
        <pt x="314" y="96" on="1"/>
        <pt x="371" y="96" on="0"/>
        <pt x="469" y="154" on="0"/>
        <pt x="541" y="245" on="0"/>
        <pt x="582" y="358" on="0"/>
        <pt x="582" y="413" on="1"/>
        <pt x="582" y="453" on="0"/>
        <pt x="561" y="526" on="0"/>
        <pt x="521" y="581" on="0"/>
        <pt x="462" y="614" on="0"/>
        <pt x="424" y="614" on="1"/>
        <pt x="367" y="614" on="0"/>
        <pt x="269" y="557" on="0"/>
        <pt x="197" y="465" on="0"/>
        <pt x="156" y="352" on="0"/>
        <pt x="156" y="297" on="1"/>
        <pt x="156" y="256" on="0"/>
        <pt x="176" y="184" on="0"/>
        <pt x="216" y="128" on="0"/>
        <pt x="275" y="96" on="0"/>
      </contour>
    </TTGlyph>
    <TTGlyph name="Oacute" xMin="41" yMin="-5" xMax="706" yMax="916">
      <contour>
        <pt x="484" y="788" on="1"/>
        <pt x="414" y="806" on="1"/>
        <pt x="490" y="916" on="1"/>
        <pt x="595" y="916" on="1"/>
      </contour>
      <contour>
        <pt x="297" y="-5" on="1"/>
        <pt x="235" y="-5" on="0"/>
        <pt x="140" y="44" on="0"/>
        <pt x="75" y="125" on="0"/>
        <pt x="41" y="231" on="0"/>
        <pt x="41" y="289" on="1"/>
        <pt x="41" y="370" on="0"/>
        <pt x="110" y="523" on="0"/>
        <pt x="224" y="643" on="0"/>
        <pt x="372" y="715" on="0"/>
        <pt x="452" y="715" on="1"/>
        <pt x="514" y="715" on="0"/>
        <pt x="609" y="665" on="0"/>
        <pt x="673" y="583" on="0"/>
        <pt x="706" y="476" on="0"/>
        <pt x="706" y="419" on="1"/>
        <pt x="706" y="339" on="0"/>
        <pt x="638" y="186" on="0"/>
        <pt x="525" y="67" on="0"/>
        <pt x="377" y="-5" on="0"/>
      </contour>
      <contour>
        <pt x="319" y="96" on="1"/>
        <pt x="377" y="96" on="0"/>
        <pt x="477" y="153" on="0"/>
        <pt x="550" y="244" on="0"/>
        <pt x="591" y="356" on="0"/>
        <pt x="591" y="411" on="1"/>
        <pt x="591" y="451" on="0"/>
        <pt x="570" y="525" on="0"/>
        <pt x="529" y="580" on="0"/>
        <pt x="469" y="613" on="0"/>
        <pt x="429" y="613" on="1"/>
        <pt x="370" y="613" on="0"/>
        <pt x="271" y="556" on="0"/>
        <pt x="197" y="466" on="0"/>
        <pt x="156" y="353" on="0"/>
        <pt x="156" y="298" on="1"/>
        <pt x="156" y="257" on="0"/>
        <pt x="177" y="184" on="0"/>
        <pt x="217" y="129" on="0"/>
        <pt x="278" y="96" on="0"/>
      </contour>
    </TTGlyph>
    <TTGlyph name="Obreve" xMin="41" yMin="-5" xMax="706" yMax="916">
      <contour>
        <pt x="297" y="-5" on="1"/>
        <pt x="235" y="-5" on="0"/>
        <pt x="140" y="44" on="0"/>
        <pt x="75" y="125" on="0"/>
        <pt x="41" y="231" on="0"/>
        <pt x="41" y="289" on="1"/>
        <pt x="41" y="370" on="0"/>
        <pt x="110" y="523" on="0"/>
        <pt x="224" y="643" on="0"/>
        <pt x="372" y="715" on="0"/>
        <pt x="452" y="715" on="1"/>
        <pt x="514" y="715" on="0"/>
        <pt x="609" y="665" on="0"/>
        <pt x="673" y="583" on="0"/>
        <pt x="706" y="476" on="0"/>
        <pt x="706" y="419" on="1"/>
        <pt x="706" y="339" on="0"/>
        <pt x="638" y="186" on="0"/>
        <pt x="525" y="67" on="0"/>
        <pt x="377" y="-5" on="0"/>
      </contour>
      <contour>
        <pt x="319" y="96" on="1"/>
        <pt x="377" y="96" on="0"/>
        <pt x="477" y="153" on="0"/>
        <pt x="550" y="244" on="0"/>
        <pt x="591" y="356" on="0"/>
        <pt x="591" y="411" on="1"/>
        <pt x="591" y="451" on="0"/>
        <pt x="570" y="525" on="0"/>
        <pt x="529" y="580" on="0"/>
        <pt x="469" y="613" on="0"/>
        <pt x="429" y="613" on="1"/>
        <pt x="370" y="613" on="0"/>
        <pt x="271" y="556" on="0"/>
        <pt x="197" y="466" on="0"/>
        <pt x="156" y="353" on="0"/>
        <pt x="156" y="298" on="1"/>
        <pt x="156" y="257" on="0"/>
        <pt x="177" y="184" on="0"/>
        <pt x="217" y="129" on="0"/>
        <pt x="278" y="96" on="0"/>
      </contour>
      <contour>
        <pt x="475" y="845" on="1"/>
        <pt x="496" y="845" on="0"/>
        <pt x="536" y="885" on="0"/>
        <pt x="545" y="916" on="1"/>
        <pt x="606" y="916" on="1"/>
        <pt x="600" y="890" on="0"/>
        <pt x="573" y="845" on="0"/>
        <pt x="535" y="812" on="0"/>
        <pt x="489" y="794" on="0"/>
        <pt x="464" y="794" on="1"/>
        <pt x="421" y="794" on="0"/>
        <pt x="370" y="845" on="0"/>
        <pt x="370" y="887" on="1"/>
        <pt x="370" y="895" on="0"/>
        <pt x="372" y="909" on="0"/>
        <pt x="374" y="916" on="1"/>
        <pt x="435" y="916" on="1"/>
        <pt x="434" y="911" on="0"/>
        <pt x="433" y="903" on="0"/>
        <pt x="433" y="898" on="1"/>
        <pt x="433" y="876" on="0"/>
        <pt x="456" y="845" on="0"/>
      </contour>
    </TTGlyph>
    <TTGlyph name="Ocircumflex" xMin="41" yMin="-5" xMax="706" yMax="916">
      <contour>
        <pt x="341" y="821" on="1"/>
        <pt x="460" y="916" on="1"/>
        <pt x="540" y="916" on="1"/>
        <pt x="618" y="821" on="1"/>
        <pt x="554" y="793" on="1"/>
        <pt x="487" y="856" on="1"/>
        <pt x="393" y="793" on="1"/>
      </contour>
      <contour>
        <pt x="297" y="-5" on="1"/>
        <pt x="235" y="-5" on="0"/>
        <pt x="140" y="44" on="0"/>
        <pt x="75" y="125" on="0"/>
        <pt x="41" y="231" on="0"/>
        <pt x="41" y="289" on="1"/>
        <pt x="41" y="370" on="0"/>
        <pt x="110" y="523" on="0"/>
        <pt x="224" y="643" on="0"/>
        <pt x="372" y="715" on="0"/>
        <pt x="452" y="715" on="1"/>
        <pt x="514" y="715" on="0"/>
        <pt x="609" y="665" on="0"/>
        <pt x="673" y="583" on="0"/>
        <pt x="706" y="476" on="0"/>
        <pt x="706" y="419" on="1"/>
        <pt x="706" y="339" on="0"/>
        <pt x="638" y="186" on="0"/>
        <pt x="525" y="67" on="0"/>
        <pt x="377" y="-5" on="0"/>
      </contour>
      <contour>
        <pt x="319" y="96" on="1"/>
        <pt x="377" y="96" on="0"/>
        <pt x="477" y="153" on="0"/>
        <pt x="550" y="244" on="0"/>
        <pt x="591" y="356" on="0"/>
        <pt x="591" y="411" on="1"/>
        <pt x="591" y="451" on="0"/>
        <pt x="570" y="525" on="0"/>
        <pt x="529" y="580" on="0"/>
        <pt x="469" y="613" on="0"/>
        <pt x="429" y="613" on="1"/>
        <pt x="370" y="613" on="0"/>
        <pt x="271" y="556" on="0"/>
        <pt x="197" y="466" on="0"/>
        <pt x="156" y="353" on="0"/>
        <pt x="156" y="298" on="1"/>
        <pt x="156" y="257" on="0"/>
        <pt x="177" y="184" on="0"/>
        <pt x="217" y="129" on="0"/>
        <pt x="278" y="96" on="0"/>
      </contour>
    </TTGlyph>
    <TTGlyph name="Odblgrave" xMin="41" yMin="-5" xMax="706" yMax="918">
      <contour>
        <pt x="498" y="918" on="1"/>
        <pt x="585" y="918" on="1"/>
        <pt x="610" y="808" on="1"/>
        <pt x="550" y="789" on="1"/>
      </contour>
      <contour>
        <pt x="354" y="918" on="1"/>
        <pt x="443" y="918" on="1"/>
        <pt x="467" y="808" on="1"/>
        <pt x="406" y="789" on="1"/>
      </contour>
      <contour>
        <pt x="297" y="-5" on="1"/>
        <pt x="235" y="-5" on="0"/>
        <pt x="140" y="44" on="0"/>
        <pt x="75" y="125" on="0"/>
        <pt x="41" y="231" on="0"/>
        <pt x="41" y="289" on="1"/>
        <pt x="41" y="370" on="0"/>
        <pt x="110" y="523" on="0"/>
        <pt x="224" y="643" on="0"/>
        <pt x="372" y="715" on="0"/>
        <pt x="452" y="715" on="1"/>
        <pt x="514" y="715" on="0"/>
        <pt x="609" y="665" on="0"/>
        <pt x="673" y="583" on="0"/>
        <pt x="706" y="476" on="0"/>
        <pt x="706" y="419" on="1"/>
        <pt x="706" y="339" on="0"/>
        <pt x="638" y="186" on="0"/>
        <pt x="525" y="67" on="0"/>
        <pt x="377" y="-5" on="0"/>
      </contour>
      <contour>
        <pt x="319" y="96" on="1"/>
        <pt x="377" y="96" on="0"/>
        <pt x="477" y="153" on="0"/>
        <pt x="550" y="244" on="0"/>
        <pt x="591" y="356" on="0"/>
        <pt x="591" y="411" on="1"/>
        <pt x="591" y="451" on="0"/>
        <pt x="570" y="525" on="0"/>
        <pt x="529" y="580" on="0"/>
        <pt x="469" y="613" on="0"/>
        <pt x="429" y="613" on="1"/>
        <pt x="370" y="613" on="0"/>
        <pt x="271" y="556" on="0"/>
        <pt x="197" y="466" on="0"/>
        <pt x="156" y="353" on="0"/>
        <pt x="156" y="298" on="1"/>
        <pt x="156" y="257" on="0"/>
        <pt x="177" y="184" on="0"/>
        <pt x="217" y="129" on="0"/>
        <pt x="278" y="96" on="0"/>
      </contour>
    </TTGlyph>
    <TTGlyph name="Odieresis" xMin="41" yMin="-5" xMax="706" yMax="912">
      <contour>
        <pt x="339" y="802" on="1"/>
        <pt x="363" y="912" on="1"/>
        <pt x="454" y="912" on="1"/>
        <pt x="431" y="802" on="1"/>
      </contour>
      <contour>
        <pt x="511" y="802" on="1"/>
        <pt x="534" y="912" on="1"/>
        <pt x="625" y="912" on="1"/>
        <pt x="602" y="802" on="1"/>
      </contour>
      <contour>
        <pt x="297" y="-5" on="1"/>
        <pt x="235" y="-5" on="0"/>
        <pt x="140" y="44" on="0"/>
        <pt x="75" y="125" on="0"/>
        <pt x="41" y="231" on="0"/>
        <pt x="41" y="289" on="1"/>
        <pt x="41" y="370" on="0"/>
        <pt x="110" y="523" on="0"/>
        <pt x="224" y="643" on="0"/>
        <pt x="372" y="715" on="0"/>
        <pt x="452" y="715" on="1"/>
        <pt x="514" y="715" on="0"/>
        <pt x="609" y="665" on="0"/>
        <pt x="673" y="583" on="0"/>
        <pt x="706" y="476" on="0"/>
        <pt x="706" y="419" on="1"/>
        <pt x="706" y="339" on="0"/>
        <pt x="638" y="186" on="0"/>
        <pt x="525" y="67" on="0"/>
        <pt x="377" y="-5" on="0"/>
      </contour>
      <contour>
        <pt x="319" y="96" on="1"/>
        <pt x="377" y="96" on="0"/>
        <pt x="477" y="153" on="0"/>
        <pt x="550" y="244" on="0"/>
        <pt x="591" y="356" on="0"/>
        <pt x="591" y="411" on="1"/>
        <pt x="591" y="451" on="0"/>
        <pt x="570" y="525" on="0"/>
        <pt x="529" y="580" on="0"/>
        <pt x="469" y="613" on="0"/>
        <pt x="429" y="613" on="1"/>
        <pt x="370" y="613" on="0"/>
        <pt x="271" y="556" on="0"/>
        <pt x="197" y="466" on="0"/>
        <pt x="156" y="353" on="0"/>
        <pt x="156" y="298" on="1"/>
        <pt x="156" y="257" on="0"/>
        <pt x="177" y="184" on="0"/>
        <pt x="217" y="129" on="0"/>
        <pt x="278" y="96" on="0"/>
      </contour>
    </TTGlyph>
    <TTGlyph name="Odotbelow" xMin="41" yMin="-189" xMax="706" yMax="715">
      <contour>
        <pt x="214" y="-189" on="1"/>
        <pt x="239" y="-73" on="1"/>
        <pt x="338" y="-73" on="1"/>
        <pt x="314" y="-189" on="1"/>
      </contour>
      <contour>
        <pt x="297" y="-5" on="1"/>
        <pt x="235" y="-5" on="0"/>
        <pt x="140" y="44" on="0"/>
        <pt x="75" y="125" on="0"/>
        <pt x="41" y="231" on="0"/>
        <pt x="41" y="289" on="1"/>
        <pt x="41" y="370" on="0"/>
        <pt x="110" y="523" on="0"/>
        <pt x="224" y="643" on="0"/>
        <pt x="372" y="715" on="0"/>
        <pt x="452" y="715" on="1"/>
        <pt x="514" y="715" on="0"/>
        <pt x="609" y="665" on="0"/>
        <pt x="673" y="583" on="0"/>
        <pt x="706" y="476" on="0"/>
        <pt x="706" y="419" on="1"/>
        <pt x="706" y="339" on="0"/>
        <pt x="638" y="186" on="0"/>
        <pt x="525" y="67" on="0"/>
        <pt x="377" y="-5" on="0"/>
      </contour>
      <contour>
        <pt x="319" y="96" on="1"/>
        <pt x="377" y="96" on="0"/>
        <pt x="477" y="153" on="0"/>
        <pt x="550" y="244" on="0"/>
        <pt x="591" y="356" on="0"/>
        <pt x="591" y="411" on="1"/>
        <pt x="591" y="451" on="0"/>
        <pt x="570" y="525" on="0"/>
        <pt x="529" y="580" on="0"/>
        <pt x="469" y="613" on="0"/>
        <pt x="429" y="613" on="1"/>
        <pt x="370" y="613" on="0"/>
        <pt x="271" y="556" on="0"/>
        <pt x="197" y="466" on="0"/>
        <pt x="156" y="353" on="0"/>
        <pt x="156" y="298" on="1"/>
        <pt x="156" y="257" on="0"/>
        <pt x="177" y="184" on="0"/>
        <pt x="217" y="129" on="0"/>
        <pt x="278" y="96" on="0"/>
      </contour>
    </TTGlyph>
    <TTGlyph name="Ograve" xMin="41" yMin="-5" xMax="706" yMax="917">
      <contour>
        <pt x="297" y="-5" on="1"/>
        <pt x="235" y="-5" on="0"/>
        <pt x="140" y="44" on="0"/>
        <pt x="75" y="125" on="0"/>
        <pt x="41" y="231" on="0"/>
        <pt x="41" y="289" on="1"/>
        <pt x="41" y="370" on="0"/>
        <pt x="110" y="523" on="0"/>
        <pt x="224" y="643" on="0"/>
        <pt x="372" y="715" on="0"/>
        <pt x="452" y="715" on="1"/>
        <pt x="514" y="715" on="0"/>
        <pt x="609" y="665" on="0"/>
        <pt x="673" y="583" on="0"/>
        <pt x="706" y="476" on="0"/>
        <pt x="706" y="419" on="1"/>
        <pt x="706" y="339" on="0"/>
        <pt x="638" y="186" on="0"/>
        <pt x="525" y="67" on="0"/>
        <pt x="377" y="-5" on="0"/>
      </contour>
      <contour>
        <pt x="319" y="96" on="1"/>
        <pt x="377" y="96" on="0"/>
        <pt x="477" y="153" on="0"/>
        <pt x="550" y="244" on="0"/>
        <pt x="591" y="356" on="0"/>
        <pt x="591" y="411" on="1"/>
        <pt x="591" y="451" on="0"/>
        <pt x="570" y="525" on="0"/>
        <pt x="529" y="580" on="0"/>
        <pt x="469" y="613" on="0"/>
        <pt x="429" y="613" on="1"/>
        <pt x="370" y="613" on="0"/>
        <pt x="271" y="556" on="0"/>
        <pt x="197" y="466" on="0"/>
        <pt x="156" y="353" on="0"/>
        <pt x="156" y="298" on="1"/>
        <pt x="156" y="257" on="0"/>
        <pt x="177" y="184" on="0"/>
        <pt x="217" y="129" on="0"/>
        <pt x="278" y="96" on="0"/>
      </contour>
      <contour>
        <pt x="408" y="917" on="1"/>
        <pt x="512" y="917" on="1"/>
        <pt x="542" y="807" on="1"/>
        <pt x="466" y="788" on="1"/>
      </contour>
    </TTGlyph>
    <TTGlyph name="Ohungarumlaut" xMin="41" yMin="-5" xMax="706" yMax="912">
      <contour>
        <pt x="405" y="785" on="1"/>
        <pt x="351" y="802" on="1"/>
        <pt x="422" y="912" on="1"/>
        <pt x="511" y="912" on="1"/>
      </contour>
      <contour>
        <pt x="548" y="785" on="1"/>
        <pt x="495" y="802" on="1"/>
        <pt x="565" y="912" on="1"/>
        <pt x="654" y="912" on="1"/>
      </contour>
      <contour>
        <pt x="297" y="-5" on="1"/>
        <pt x="235" y="-5" on="0"/>
        <pt x="140" y="44" on="0"/>
        <pt x="75" y="125" on="0"/>
        <pt x="41" y="231" on="0"/>
        <pt x="41" y="289" on="1"/>
        <pt x="41" y="370" on="0"/>
        <pt x="110" y="523" on="0"/>
        <pt x="224" y="643" on="0"/>
        <pt x="372" y="715" on="0"/>
        <pt x="452" y="715" on="1"/>
        <pt x="514" y="715" on="0"/>
        <pt x="609" y="665" on="0"/>
        <pt x="673" y="583" on="0"/>
        <pt x="706" y="476" on="0"/>
        <pt x="706" y="419" on="1"/>
        <pt x="706" y="339" on="0"/>
        <pt x="638" y="186" on="0"/>
        <pt x="525" y="67" on="0"/>
        <pt x="377" y="-5" on="0"/>
      </contour>
      <contour>
        <pt x="319" y="96" on="1"/>
        <pt x="377" y="96" on="0"/>
        <pt x="477" y="153" on="0"/>
        <pt x="550" y="244" on="0"/>
        <pt x="591" y="356" on="0"/>
        <pt x="591" y="411" on="1"/>
        <pt x="591" y="451" on="0"/>
        <pt x="570" y="525" on="0"/>
        <pt x="529" y="580" on="0"/>
        <pt x="469" y="613" on="0"/>
        <pt x="429" y="613" on="1"/>
        <pt x="370" y="613" on="0"/>
        <pt x="271" y="556" on="0"/>
        <pt x="197" y="466" on="0"/>
        <pt x="156" y="353" on="0"/>
        <pt x="156" y="298" on="1"/>
        <pt x="156" y="257" on="0"/>
        <pt x="177" y="184" on="0"/>
        <pt x="217" y="129" on="0"/>
        <pt x="278" y="96" on="0"/>
      </contour>
    </TTGlyph>
    <TTGlyph name="Oinvertedbreve" xMin="41" yMin="-5" xMax="706" yMax="916">
      <contour>
        <pt x="363" y="794" on="1"/>
        <pt x="369" y="820" on="0"/>
        <pt x="396" y="865" on="0"/>
        <pt x="433" y="898" on="0"/>
        <pt x="479" y="916" on="0"/>
        <pt x="504" y="916" on="1"/>
        <pt x="547" y="916" on="0"/>
        <pt x="598" y="861" on="0"/>
        <pt x="598" y="821" on="1"/>
        <pt x="598" y="814" on="0"/>
        <pt x="596" y="801" on="0"/>
        <pt x="594" y="794" on="1"/>
        <pt x="535" y="794" on="1"/>
        <pt x="536" y="802" on="0"/>
        <pt x="537" y="814" on="0"/>
        <pt x="537" y="821" on="1"/>
        <pt x="537" y="865" on="0"/>
        <pt x="495" y="865" on="1"/>
        <pt x="465" y="865" on="0"/>
        <pt x="431" y="827" on="0"/>
        <pt x="423" y="794" on="1"/>
      </contour>
      <contour>
        <pt x="297" y="-5" on="1"/>
        <pt x="235" y="-5" on="0"/>
        <pt x="140" y="44" on="0"/>
        <pt x="75" y="125" on="0"/>
        <pt x="41" y="231" on="0"/>
        <pt x="41" y="289" on="1"/>
        <pt x="41" y="370" on="0"/>
        <pt x="110" y="523" on="0"/>
        <pt x="224" y="643" on="0"/>
        <pt x="372" y="715" on="0"/>
        <pt x="452" y="715" on="1"/>
        <pt x="514" y="715" on="0"/>
        <pt x="609" y="665" on="0"/>
        <pt x="673" y="583" on="0"/>
        <pt x="706" y="476" on="0"/>
        <pt x="706" y="419" on="1"/>
        <pt x="706" y="339" on="0"/>
        <pt x="638" y="186" on="0"/>
        <pt x="525" y="67" on="0"/>
        <pt x="377" y="-5" on="0"/>
      </contour>
      <contour>
        <pt x="319" y="96" on="1"/>
        <pt x="377" y="96" on="0"/>
        <pt x="477" y="153" on="0"/>
        <pt x="550" y="244" on="0"/>
        <pt x="591" y="356" on="0"/>
        <pt x="591" y="411" on="1"/>
        <pt x="591" y="451" on="0"/>
        <pt x="570" y="525" on="0"/>
        <pt x="529" y="580" on="0"/>
        <pt x="469" y="613" on="0"/>
        <pt x="429" y="613" on="1"/>
        <pt x="370" y="613" on="0"/>
        <pt x="271" y="556" on="0"/>
        <pt x="197" y="466" on="0"/>
        <pt x="156" y="353" on="0"/>
        <pt x="156" y="298" on="1"/>
        <pt x="156" y="257" on="0"/>
        <pt x="177" y="184" on="0"/>
        <pt x="217" y="129" on="0"/>
        <pt x="278" y="96" on="0"/>
      </contour>
    </TTGlyph>
    <TTGlyph name="Omacron" xMin="41" yMin="-5" xMax="706" yMax="898">
      <contour>
        <pt x="337" y="828" on="1"/>
        <pt x="351" y="898" on="1"/>
        <pt x="634" y="898" on="1"/>
        <pt x="619" y="828" on="1"/>
      </contour>
      <contour>
        <pt x="297" y="-5" on="1"/>
        <pt x="235" y="-5" on="0"/>
        <pt x="140" y="44" on="0"/>
        <pt x="75" y="125" on="0"/>
        <pt x="41" y="231" on="0"/>
        <pt x="41" y="289" on="1"/>
        <pt x="41" y="370" on="0"/>
        <pt x="110" y="523" on="0"/>
        <pt x="224" y="643" on="0"/>
        <pt x="372" y="715" on="0"/>
        <pt x="452" y="715" on="1"/>
        <pt x="514" y="715" on="0"/>
        <pt x="609" y="665" on="0"/>
        <pt x="673" y="583" on="0"/>
        <pt x="706" y="476" on="0"/>
        <pt x="706" y="419" on="1"/>
        <pt x="706" y="339" on="0"/>
        <pt x="638" y="186" on="0"/>
        <pt x="525" y="67" on="0"/>
        <pt x="377" y="-5" on="0"/>
      </contour>
      <contour>
        <pt x="319" y="96" on="1"/>
        <pt x="377" y="96" on="0"/>
        <pt x="477" y="153" on="0"/>
        <pt x="550" y="244" on="0"/>
        <pt x="591" y="356" on="0"/>
        <pt x="591" y="411" on="1"/>
        <pt x="591" y="451" on="0"/>
        <pt x="570" y="525" on="0"/>
        <pt x="529" y="580" on="0"/>
        <pt x="469" y="613" on="0"/>
        <pt x="429" y="613" on="1"/>
        <pt x="370" y="613" on="0"/>
        <pt x="271" y="556" on="0"/>
        <pt x="197" y="466" on="0"/>
        <pt x="156" y="353" on="0"/>
        <pt x="156" y="298" on="1"/>
        <pt x="156" y="257" on="0"/>
        <pt x="177" y="184" on="0"/>
        <pt x="217" y="129" on="0"/>
        <pt x="278" y="96" on="0"/>
      </contour>
    </TTGlyph>
    <TTGlyph name="Omega" xMin="48" yMin="0" xMax="733" yMax="715">
      <contour>
        <pt x="48" y="90" on="1"/>
        <pt x="220" y="90" on="1"/>
        <pt x="145" y="132" on="0"/>
        <pt x="58" y="277" on="0"/>
        <pt x="58" y="367" on="1"/>
        <pt x="58" y="436" on="0"/>
        <pt x="108" y="562" on="0"/>
        <pt x="197" y="658" on="0"/>
        <pt x="319" y="715" on="0"/>
        <pt x="390" y="715" on="1"/>
        <pt x="461" y="715" on="0"/>
        <pt x="583" y="658" on="0"/>
        <pt x="672" y="562" on="0"/>
        <pt x="723" y="436" on="0"/>
        <pt x="723" y="367" on="1"/>
        <pt x="723" y="277" on="0"/>
        <pt x="635" y="132" on="0"/>
        <pt x="560" y="90" on="1"/>
        <pt x="733" y="90" on="1"/>
        <pt x="733" y="0" on="1"/>
        <pt x="435" y="0" on="1"/>
        <pt x="435" y="90" on="1"/>
        <pt x="475" y="104" on="0"/>
        <pt x="540" y="161" on="0"/>
        <pt x="585" y="236" on="0"/>
        <pt x="610" y="323" on="0"/>
        <pt x="610" y="367" on="1"/>
        <pt x="610" y="413" on="0"/>
        <pt x="579" y="501" on="0"/>
        <pt x="522" y="571" on="0"/>
        <pt x="441" y="614" on="0"/>
        <pt x="390" y="614" on="1"/>
        <pt x="339" y="614" on="0"/>
        <pt x="257" y="571" on="0"/>
        <pt x="200" y="501" on="0"/>
        <pt x="170" y="413" on="0"/>
        <pt x="170" y="367" on="1"/>
        <pt x="170" y="323" on="0"/>
        <pt x="195" y="236" on="0"/>
        <pt x="240" y="161" on="0"/>
        <pt x="305" y="104" on="0"/>
        <pt x="345" y="90" on="1"/>
        <pt x="345" y="0" on="1"/>
        <pt x="48" y="0" on="1"/>
      </contour>
    </TTGlyph>
    <TTGlyph name="Oogonek" xMin="41" yMin="-188" xMax="706" yMax="715">
      <contour>
        <pt x="250" y="-188" on="1"/>
        <pt x="208" y="-181" on="0"/>
        <pt x="168" y="-143" on="0"/>
        <pt x="168" y="-118" on="1"/>
        <pt x="168" y="-59" on="0"/>
        <pt x="262" y="-2" on="1"/>
        <pt x="208" y="4" on="0"/>
        <pt x="126" y="57" on="0"/>
        <pt x="70" y="136" on="0"/>
        <pt x="41" y="235" on="0"/>
        <pt x="41" y="289" on="1"/>
        <pt x="41" y="370" on="0"/>
        <pt x="110" y="523" on="0"/>
        <pt x="224" y="643" on="0"/>
        <pt x="372" y="715" on="0"/>
        <pt x="452" y="715" on="1"/>
        <pt x="514" y="715" on="0"/>
        <pt x="609" y="665" on="0"/>
        <pt x="673" y="583" on="0"/>
        <pt x="706" y="476" on="0"/>
        <pt x="706" y="419" on="1"/>
        <pt x="706" y="342" on="0"/>
        <pt x="644" y="196" on="0"/>
        <pt x="539" y="79" on="0"/>
        <pt x="402" y="3" on="0"/>
        <pt x="326" y="-3" on="1"/>
        <pt x="279" y="-30" on="0"/>
        <pt x="238" y="-75" on="0"/>
        <pt x="238" y="-95" on="1"/>
        <pt x="238" y="-127" on="0"/>
        <pt x="286" y="-130" on="1"/>
      </contour>
      <contour>
        <pt x="319" y="96" on="1"/>
        <pt x="377" y="96" on="0"/>
        <pt x="477" y="153" on="0"/>
        <pt x="550" y="244" on="0"/>
        <pt x="591" y="356" on="0"/>
        <pt x="591" y="411" on="1"/>
        <pt x="591" y="451" on="0"/>
        <pt x="570" y="525" on="0"/>
        <pt x="529" y="580" on="0"/>
        <pt x="469" y="613" on="0"/>
        <pt x="429" y="613" on="1"/>
        <pt x="370" y="613" on="0"/>
        <pt x="271" y="556" on="0"/>
        <pt x="197" y="466" on="0"/>
        <pt x="156" y="353" on="0"/>
        <pt x="156" y="298" on="1"/>
        <pt x="156" y="257" on="0"/>
        <pt x="177" y="184" on="0"/>
        <pt x="217" y="129" on="0"/>
        <pt x="278" y="96" on="0"/>
      </contour>
    </TTGlyph>
    <TTGlyph name="Oslash" xMin="8" yMin="-5" xMax="745" yMax="715">
      <contour>
        <pt x="745" y="710" on="1"/>
        <pt x="654" y="605" on="1"/>
        <pt x="680" y="565" on="0"/>
        <pt x="706" y="470" on="0"/>
        <pt x="706" y="419" on="1"/>
        <pt x="706" y="339" on="0"/>
        <pt x="638" y="186" on="0"/>
        <pt x="525" y="67" on="0"/>
        <pt x="377" y="-5" on="0"/>
        <pt x="297" y="-5" on="1"/>
        <pt x="256" y="-5" on="0"/>
        <pt x="188" y="16" on="0"/>
        <pt x="160" y="35" on="1"/>
        <pt x="130" y="0" on="1"/>
        <pt x="8" y="0" on="1"/>
        <pt x="95" y="100" on="1"/>
        <pt x="68" y="139" on="0"/>
        <pt x="41" y="236" on="0"/>
        <pt x="41" y="289" on="1"/>
        <pt x="41" y="370" on="0"/>
        <pt x="110" y="523" on="0"/>
        <pt x="224" y="643" on="0"/>
        <pt x="372" y="715" on="0"/>
        <pt x="452" y="715" on="1"/>
        <pt x="493" y="715" on="0"/>
        <pt x="562" y="692" on="0"/>
        <pt x="590" y="672" on="1"/>
        <pt x="623" y="710" on="1"/>
      </contour>
      <contour>
        <pt x="156" y="298" on="1"/>
        <pt x="156" y="269" on="0"/>
        <pt x="165" y="216" on="0"/>
        <pt x="175" y="193" on="1"/>
        <pt x="516" y="586" on="1"/>
        <pt x="478" y="613" on="0"/>
        <pt x="429" y="613" on="1"/>
        <pt x="370" y="613" on="0"/>
        <pt x="271" y="556" on="0"/>
        <pt x="197" y="466" on="0"/>
        <pt x="156" y="353" on="0"/>
      </contour>
      <contour>
        <pt x="319" y="96" on="1"/>
        <pt x="377" y="96" on="0"/>
        <pt x="477" y="153" on="0"/>
        <pt x="550" y="244" on="0"/>
        <pt x="591" y="356" on="0"/>
        <pt x="591" y="411" on="1"/>
        <pt x="591" y="438" on="0"/>
        <pt x="581" y="488" on="0"/>
        <pt x="572" y="511" on="1"/>
        <pt x="234" y="120" on="1"/>
        <pt x="251" y="109" on="0"/>
        <pt x="293" y="96" on="0"/>
      </contour>
    </TTGlyph>
    <TTGlyph name="Oslashacute" xMin="7" yMin="-5" xMax="744" yMax="916">
      <contour>
        <pt x="744" y="710" on="1"/>
        <pt x="654" y="606" on="1"/>
        <pt x="680" y="566" on="0"/>
        <pt x="706" y="470" on="0"/>
        <pt x="706" y="419" on="1"/>
        <pt x="706" y="339" on="0"/>
        <pt x="638" y="186" on="0"/>
        <pt x="525" y="67" on="0"/>
        <pt x="377" y="-5" on="0"/>
        <pt x="297" y="-5" on="1"/>
        <pt x="256" y="-5" on="0"/>
        <pt x="188" y="16" on="0"/>
        <pt x="159" y="35" on="1"/>
        <pt x="129" y="0" on="1"/>
        <pt x="7" y="0" on="1"/>
        <pt x="94" y="101" on="1"/>
        <pt x="68" y="140" on="0"/>
        <pt x="41" y="236" on="0"/>
        <pt x="41" y="289" on="1"/>
        <pt x="41" y="370" on="0"/>
        <pt x="110" y="523" on="0"/>
        <pt x="224" y="643" on="0"/>
        <pt x="372" y="715" on="0"/>
        <pt x="452" y="715" on="1"/>
        <pt x="493" y="715" on="0"/>
        <pt x="561" y="693" on="0"/>
        <pt x="590" y="673" on="1"/>
        <pt x="622" y="710" on="1"/>
      </contour>
      <contour>
        <pt x="156" y="298" on="1"/>
        <pt x="156" y="270" on="0"/>
        <pt x="165" y="217" on="0"/>
        <pt x="175" y="194" on="1"/>
        <pt x="515" y="587" on="1"/>
        <pt x="498" y="599" on="0"/>
        <pt x="455" y="613" on="0"/>
        <pt x="429" y="613" on="1"/>
        <pt x="370" y="613" on="0"/>
        <pt x="271" y="556" on="0"/>
        <pt x="197" y="466" on="0"/>
        <pt x="156" y="353" on="0"/>
      </contour>
      <contour>
        <pt x="319" y="96" on="1"/>
        <pt x="377" y="96" on="0"/>
        <pt x="477" y="153" on="0"/>
        <pt x="550" y="244" on="0"/>
        <pt x="591" y="356" on="0"/>
        <pt x="591" y="411" on="1"/>
        <pt x="591" y="438" on="0"/>
        <pt x="582" y="489" on="0"/>
        <pt x="572" y="512" on="1"/>
        <pt x="233" y="121" on="1"/>
        <pt x="270" y="96" on="0"/>
      </contour>
      <contour>
        <pt x="489" y="788" on="1"/>
        <pt x="419" y="806" on="1"/>
        <pt x="495" y="916" on="1"/>
        <pt x="600" y="916" on="1"/>
      </contour>
    </TTGlyph>
    <TTGlyph name="Otilde" xMin="41" yMin="-5" xMax="706" yMax="916">
      <contour>
        <pt x="297" y="-5" on="1"/>
        <pt x="235" y="-5" on="0"/>
        <pt x="140" y="44" on="0"/>
        <pt x="75" y="125" on="0"/>
        <pt x="41" y="231" on="0"/>
        <pt x="41" y="289" on="1"/>
        <pt x="41" y="370" on="0"/>
        <pt x="110" y="523" on="0"/>
        <pt x="224" y="643" on="0"/>
        <pt x="372" y="715" on="0"/>
        <pt x="452" y="715" on="1"/>
        <pt x="514" y="715" on="0"/>
        <pt x="609" y="665" on="0"/>
        <pt x="673" y="583" on="0"/>
        <pt x="706" y="476" on="0"/>
        <pt x="706" y="419" on="1"/>
        <pt x="706" y="339" on="0"/>
        <pt x="638" y="186" on="0"/>
        <pt x="525" y="67" on="0"/>
        <pt x="377" y="-5" on="0"/>
      </contour>
      <contour>
        <pt x="319" y="96" on="1"/>
        <pt x="377" y="96" on="0"/>
        <pt x="477" y="153" on="0"/>
        <pt x="550" y="244" on="0"/>
        <pt x="591" y="356" on="0"/>
        <pt x="591" y="411" on="1"/>
        <pt x="591" y="451" on="0"/>
        <pt x="570" y="525" on="0"/>
        <pt x="529" y="580" on="0"/>
        <pt x="469" y="613" on="0"/>
        <pt x="429" y="613" on="1"/>
        <pt x="370" y="613" on="0"/>
        <pt x="271" y="556" on="0"/>
        <pt x="197" y="466" on="0"/>
        <pt x="156" y="353" on="0"/>
        <pt x="156" y="298" on="1"/>
        <pt x="156" y="257" on="0"/>
        <pt x="177" y="184" on="0"/>
        <pt x="217" y="129" on="0"/>
        <pt x="278" y="96" on="0"/>
      </contour>
      <contour>
        <pt x="533" y="801" on="1"/>
        <pt x="512" y="801" on="0"/>
        <pt x="482" y="814" on="0"/>
        <pt x="458" y="831" on="0"/>
        <pt x="434" y="844" on="0"/>
        <pt x="418" y="844" on="1"/>
        <pt x="402" y="844" on="0"/>
        <pt x="381" y="830" on="0"/>
        <pt x="368" y="813" on="0"/>
        <pt x="363" y="797" on="0"/>
        <pt x="363" y="796" on="1"/>
        <pt x="300" y="796" on="1"/>
        <pt x="302" y="804" on="0"/>
        <pt x="320" y="842" on="0"/>
        <pt x="353" y="881" on="0"/>
        <pt x="399" y="911" on="0"/>
        <pt x="429" y="911" on="1"/>
        <pt x="450" y="911" on="0"/>
        <pt x="478" y="897" on="0"/>
        <pt x="502" y="881" on="0"/>
        <pt x="526" y="867" on="0"/>
        <pt x="543" y="867" on="1"/>
        <pt x="561" y="867" on="0"/>
        <pt x="584" y="881" on="0"/>
        <pt x="599" y="899" on="0"/>
        <pt x="606" y="914" on="0"/>
        <pt x="606" y="916" on="1"/>
        <pt x="668" y="916" on="1"/>
        <pt x="666" y="910" on="0"/>
        <pt x="648" y="872" on="0"/>
        <pt x="614" y="832" on="0"/>
        <pt x="565" y="801" on="0"/>
      </contour>
    </TTGlyph>
    <TTGlyph name="P" xMin="15" yMin="0" xMax="617" yMax="710">
      <contour>
        <pt x="166" y="710" on="1"/>
        <pt x="450" y="710" on="1"/>
        <pt x="489" y="710" on="0"/>
        <pt x="551" y="678" on="0"/>
        <pt x="594" y="624" on="0"/>
        <pt x="617" y="555" on="0"/>
        <pt x="617" y="518" on="1"/>
        <pt x="617" y="469" on="0"/>
        <pt x="575" y="372" on="0"/>
        <pt x="504" y="295" on="0"/>
        <pt x="409" y="247" on="0"/>
        <pt x="356" y="247" on="1"/>
        <pt x="180" y="247" on="1"/>
        <pt x="128" y="0" on="1"/>
        <pt x="15" y="0" on="1"/>
      </contour>
      <contour>
        <pt x="371" y="346" on="1"/>
        <pt x="397" y="346" on="0"/>
        <pt x="444" y="372" on="0"/>
        <pt x="480" y="417" on="0"/>
        <pt x="501" y="476" on="0"/>
        <pt x="501" y="509" on="1"/>
        <pt x="501" y="555" on="0"/>
        <pt x="456" y="611" on="0"/>
        <pt x="421" y="611" on="1"/>
        <pt x="258" y="611" on="1"/>
        <pt x="201" y="346" on="1"/>
      </contour>
    </TTGlyph>
    <TTGlyph name="P.sc" xMin="9" yMin="0" xMax="520" yMax="555">
      <contour>
        <pt x="127" y="555" on="1"/>
        <pt x="373" y="555" on="1"/>
        <pt x="407" y="555" on="0"/>
        <pt x="462" y="529" on="0"/>
        <pt x="500" y="486" on="0"/>
        <pt x="520" y="430" on="0"/>
        <pt x="520" y="401" on="1"/>
        <pt x="520" y="362" on="0"/>
        <pt x="485" y="286" on="0"/>
        <pt x="425" y="226" on="0"/>
        <pt x="345" y="189" on="0"/>
        <pt x="299" y="189" on="1"/>
        <pt x="148" y="189" on="1"/>
        <pt x="108" y="0" on="1"/>
        <pt x="9" y="0" on="1"/>
      </contour>
      <contour>
        <pt x="312" y="276" on="1"/>
        <pt x="334" y="276" on="0"/>
        <pt x="372" y="294" on="0"/>
        <pt x="401" y="325" on="0"/>
        <pt x="418" y="367" on="0"/>
        <pt x="418" y="391" on="1"/>
        <pt x="418" y="426" on="0"/>
        <pt x="378" y="467" on="0"/>
        <pt x="348" y="467" on="1"/>
        <pt x="208" y="467" on="1"/>
        <pt x="167" y="276" on="1"/>
      </contour>
    </TTGlyph>
    <TTGlyph name="Q" xMin="40" yMin="-5" xMax="706" yMax="715">
      <contour>
        <pt x="483" y="48" on="1"/>
        <pt x="440" y="23" on="0"/>
        <pt x="346" y="-5" on="0"/>
        <pt x="297" y="-5" on="1"/>
        <pt x="235" y="-5" on="0"/>
        <pt x="139" y="44" on="0"/>
        <pt x="74" y="125" on="0"/>
        <pt x="40" y="231" on="0"/>
        <pt x="40" y="289" on="1"/>
        <pt x="40" y="370" on="0"/>
        <pt x="109" y="523" on="0"/>
        <pt x="223" y="643" on="0"/>
        <pt x="372" y="715" on="0"/>
        <pt x="452" y="715" on="1"/>
        <pt x="513" y="715" on="0"/>
        <pt x="608" y="665" on="0"/>
        <pt x="673" y="583" on="0"/>
        <pt x="706" y="476" on="0"/>
        <pt x="706" y="419" on="1"/>
        <pt x="706" y="330" on="0"/>
        <pt x="624" y="164" on="0"/>
        <pt x="557" y="103" on="1"/>
        <pt x="623" y="0" on="1"/>
        <pt x="514" y="0" on="1"/>
      </contour>
      <contour>
        <pt x="319" y="96" on="1"/>
        <pt x="350" y="96" on="0"/>
        <pt x="407" y="113" on="0"/>
        <pt x="433" y="128" on="1"/>
        <pt x="358" y="247" on="1"/>
        <pt x="465" y="247" on="1"/>
        <pt x="503" y="187" on="1"/>
        <pt x="545" y="234" on="0"/>
        <pt x="591" y="352" on="0"/>
        <pt x="591" y="411" on="1"/>
        <pt x="591" y="451" on="0"/>
        <pt x="570" y="525" on="0"/>
        <pt x="529" y="581" on="0"/>
        <pt x="468" y="614" on="0"/>
        <pt x="428" y="614" on="1"/>
        <pt x="370" y="614" on="0"/>
        <pt x="270" y="557" on="0"/>
        <pt x="197" y="466" on="0"/>
        <pt x="156" y="353" on="0"/>
        <pt x="156" y="298" on="1"/>
        <pt x="156" y="257" on="0"/>
        <pt x="177" y="184" on="0"/>
        <pt x="217" y="129" on="0"/>
        <pt x="278" y="96" on="0"/>
      </contour>
    </TTGlyph>
    <TTGlyph name="Q.sc" xMin="26" yMin="-4" xMax="590" yMax="559">
      <contour>
        <pt x="408" y="39" on="1"/>
        <pt x="372" y="19" on="0"/>
        <pt x="291" y="-4" on="0"/>
        <pt x="248" y="-4" on="1"/>
        <pt x="195" y="-4" on="0"/>
        <pt x="112" y="35" on="0"/>
        <pt x="55" y="100" on="0"/>
        <pt x="26" y="184" on="0"/>
        <pt x="26" y="230" on="1"/>
        <pt x="26" y="293" on="0"/>
        <pt x="83" y="411" on="0"/>
        <pt x="177" y="503" on="0"/>
        <pt x="301" y="559" on="0"/>
        <pt x="369" y="559" on="1"/>
        <pt x="423" y="559" on="0"/>
        <pt x="505" y="519" on="0"/>
        <pt x="561" y="453" on="0"/>
        <pt x="590" y="368" on="0"/>
        <pt x="590" y="323" on="1"/>
        <pt x="590" y="256" on="0"/>
        <pt x="526" y="131" on="0"/>
        <pt x="472" y="84" on="1"/>
        <pt x="531" y="0" on="1"/>
        <pt x="436" y="0" on="1"/>
      </contour>
      <contour>
        <pt x="269" y="85" on="1"/>
        <pt x="316" y="85" on="0"/>
        <pt x="360" y="107" on="1"/>
        <pt x="295" y="200" on="1"/>
        <pt x="391" y="200" on="1"/>
        <pt x="422" y="155" on="1"/>
        <pt x="453" y="189" on="0"/>
        <pt x="488" y="273" on="0"/>
        <pt x="488" y="315" on="1"/>
        <pt x="488" y="346" on="0"/>
        <pt x="470" y="402" on="0"/>
        <pt x="435" y="445" on="0"/>
        <pt x="383" y="470" on="0"/>
        <pt x="349" y="470" on="1"/>
        <pt x="301" y="470" on="0"/>
        <pt x="220" y="428" on="0"/>
        <pt x="161" y="362" on="0"/>
        <pt x="128" y="280" on="0"/>
        <pt x="128" y="240" on="1"/>
        <pt x="128" y="209" on="0"/>
        <pt x="146" y="153" on="0"/>
        <pt x="181" y="110" on="0"/>
        <pt x="234" y="85" on="0"/>
      </contour>
    </TTGlyph>
    <TTGlyph name="R" xMin="15" yMin="0" xMax="627" yMax="710">
      <contour>
        <pt x="15" y="0" on="1"/>
        <pt x="166" y="710" on="1"/>
        <pt x="461" y="710" on="1"/>
        <pt x="500" y="710" on="0"/>
        <pt x="562" y="678" on="0"/>
        <pt x="605" y="624" on="0"/>
        <pt x="627" y="555" on="0"/>
        <pt x="627" y="518" on="1"/>
        <pt x="627" y="478" on="0"/>
        <pt x="599" y="400" on="0"/>
        <pt x="551" y="333" on="0"/>
        <pt x="486" y="282" on="0"/>
        <pt x="448" y="270" on="1"/>
        <pt x="548" y="0" on="1"/>
        <pt x="421" y="0" on="1"/>
        <pt x="329" y="247" on="1"/>
        <pt x="180" y="247" on="1"/>
        <pt x="128" y="0" on="1"/>
      </contour>
      <contour>
        <pt x="382" y="346" on="1"/>
        <pt x="407" y="346" on="0"/>
        <pt x="454" y="373" on="0"/>
        <pt x="490" y="418" on="0"/>
        <pt x="511" y="476" on="0"/>
        <pt x="511" y="506" on="1"/>
        <pt x="511" y="551" on="0"/>
        <pt x="467" y="611" on="0"/>
        <pt x="433" y="611" on="1"/>
        <pt x="258" y="611" on="1"/>
        <pt x="201" y="346" on="1"/>
      </contour>
    </TTGlyph>
    <TTGlyph name="R.sc" xMin="9" yMin="0" xMax="529" yMax="555">
      <contour>
        <pt x="127" y="555" on="1"/>
        <pt x="382" y="555" on="1"/>
        <pt x="417" y="555" on="0"/>
        <pt x="472" y="529" on="0"/>
        <pt x="509" y="486" on="0"/>
        <pt x="529" y="430" on="0"/>
        <pt x="529" y="401" on="1"/>
        <pt x="529" y="370" on="0"/>
        <pt x="507" y="310" on="0"/>
        <pt x="467" y="259" on="0"/>
        <pt x="413" y="220" on="0"/>
        <pt x="381" y="209" on="1"/>
        <pt x="475" y="0" on="1"/>
        <pt x="361" y="0" on="1"/>
        <pt x="276" y="189" on="1"/>
        <pt x="148" y="189" on="1"/>
        <pt x="108" y="0" on="1"/>
        <pt x="9" y="0" on="1"/>
      </contour>
      <contour>
        <pt x="321" y="276" on="1"/>
        <pt x="342" y="276" on="0"/>
        <pt x="380" y="295" on="0"/>
        <pt x="410" y="326" on="0"/>
        <pt x="427" y="367" on="0"/>
        <pt x="427" y="389" on="1"/>
        <pt x="427" y="423" on="0"/>
        <pt x="388" y="467" on="0"/>
        <pt x="357" y="467" on="1"/>
        <pt x="208" y="467" on="1"/>
        <pt x="167" y="276" on="1"/>
      </contour>
    </TTGlyph>
    <TTGlyph name="Racute" xMin="15" yMin="0" xMax="627" yMax="918">
      <contour>
        <pt x="422" y="790" on="1"/>
        <pt x="352" y="808" on="1"/>
        <pt x="428" y="918" on="1"/>
        <pt x="533" y="918" on="1"/>
      </contour>
      <contour>
        <pt x="15" y="0" on="1"/>
        <pt x="166" y="710" on="1"/>
        <pt x="461" y="710" on="1"/>
        <pt x="500" y="710" on="0"/>
        <pt x="562" y="678" on="0"/>
        <pt x="605" y="624" on="0"/>
        <pt x="627" y="555" on="0"/>
        <pt x="627" y="518" on="1"/>
        <pt x="627" y="478" on="0"/>
        <pt x="599" y="400" on="0"/>
        <pt x="551" y="333" on="0"/>
        <pt x="486" y="282" on="0"/>
        <pt x="448" y="270" on="1"/>
        <pt x="548" y="0" on="1"/>
        <pt x="421" y="0" on="1"/>
        <pt x="329" y="247" on="1"/>
        <pt x="180" y="247" on="1"/>
        <pt x="128" y="0" on="1"/>
      </contour>
      <contour>
        <pt x="382" y="346" on="1"/>
        <pt x="407" y="346" on="0"/>
        <pt x="454" y="373" on="0"/>
        <pt x="490" y="418" on="0"/>
        <pt x="511" y="476" on="0"/>
        <pt x="511" y="506" on="1"/>
        <pt x="511" y="551" on="0"/>
        <pt x="467" y="611" on="0"/>
        <pt x="433" y="611" on="1"/>
        <pt x="258" y="611" on="1"/>
        <pt x="201" y="346" on="1"/>
      </contour>
    </TTGlyph>
    <TTGlyph name="Rcaron" xMin="15" yMin="0" xMax="627" yMax="918">
      <contour>
        <pt x="296" y="890" on="1"/>
        <pt x="360" y="918" on="1"/>
        <pt x="427" y="855" on="1"/>
        <pt x="521" y="918" on="1"/>
        <pt x="573" y="890" on="1"/>
        <pt x="454" y="795" on="1"/>
        <pt x="374" y="795" on="1"/>
      </contour>
      <contour>
        <pt x="15" y="0" on="1"/>
        <pt x="166" y="710" on="1"/>
        <pt x="461" y="710" on="1"/>
        <pt x="500" y="710" on="0"/>
        <pt x="562" y="678" on="0"/>
        <pt x="605" y="624" on="0"/>
        <pt x="627" y="555" on="0"/>
        <pt x="627" y="518" on="1"/>
        <pt x="627" y="478" on="0"/>
        <pt x="599" y="400" on="0"/>
        <pt x="551" y="333" on="0"/>
        <pt x="486" y="282" on="0"/>
        <pt x="448" y="270" on="1"/>
        <pt x="548" y="0" on="1"/>
        <pt x="421" y="0" on="1"/>
        <pt x="329" y="247" on="1"/>
        <pt x="180" y="247" on="1"/>
        <pt x="128" y="0" on="1"/>
      </contour>
      <contour>
        <pt x="382" y="346" on="1"/>
        <pt x="407" y="346" on="0"/>
        <pt x="454" y="373" on="0"/>
        <pt x="490" y="418" on="0"/>
        <pt x="511" y="476" on="0"/>
        <pt x="511" y="506" on="1"/>
        <pt x="511" y="551" on="0"/>
        <pt x="467" y="611" on="0"/>
        <pt x="433" y="611" on="1"/>
        <pt x="258" y="611" on="1"/>
        <pt x="201" y="346" on="1"/>
      </contour>
    </TTGlyph>
    <TTGlyph name="Rcommaaccent" xMin="15" yMin="-213" xMax="627" yMax="710">
      <contour>
        <pt x="174" y="-213" on="1"/>
        <pt x="213" y="-136" on="1"/>
        <pt x="181" y="-136" on="1"/>
        <pt x="200" y="-48" on="1"/>
        <pt x="294" y="-48" on="1"/>
        <pt x="275" y="-136" on="1"/>
        <pt x="225" y="-213" on="1"/>
      </contour>
      <contour>
        <pt x="15" y="0" on="1"/>
        <pt x="166" y="710" on="1"/>
        <pt x="461" y="710" on="1"/>
        <pt x="500" y="710" on="0"/>
        <pt x="562" y="678" on="0"/>
        <pt x="605" y="624" on="0"/>
        <pt x="627" y="555" on="0"/>
        <pt x="627" y="518" on="1"/>
        <pt x="627" y="478" on="0"/>
        <pt x="599" y="400" on="0"/>
        <pt x="551" y="333" on="0"/>
        <pt x="486" y="282" on="0"/>
        <pt x="448" y="270" on="1"/>
        <pt x="548" y="0" on="1"/>
        <pt x="421" y="0" on="1"/>
        <pt x="329" y="247" on="1"/>
        <pt x="180" y="247" on="1"/>
        <pt x="128" y="0" on="1"/>
      </contour>
      <contour>
        <pt x="382" y="346" on="1"/>
        <pt x="407" y="346" on="0"/>
        <pt x="454" y="373" on="0"/>
        <pt x="490" y="418" on="0"/>
        <pt x="511" y="476" on="0"/>
        <pt x="511" y="506" on="1"/>
        <pt x="511" y="551" on="0"/>
        <pt x="467" y="611" on="0"/>
        <pt x="433" y="611" on="1"/>
        <pt x="258" y="611" on="1"/>
        <pt x="201" y="346" on="1"/>
      </contour>
    </TTGlyph>
    <TTGlyph name="Rdblgrave" xMin="15" yMin="0" xMax="627" yMax="918">
      <contour>
        <pt x="418" y="918" on="1"/>
        <pt x="505" y="918" on="1"/>
        <pt x="530" y="808" on="1"/>
        <pt x="470" y="789" on="1"/>
      </contour>
      <contour>
        <pt x="274" y="918" on="1"/>
        <pt x="363" y="918" on="1"/>
        <pt x="387" y="808" on="1"/>
        <pt x="326" y="789" on="1"/>
      </contour>
      <contour>
        <pt x="15" y="0" on="1"/>
        <pt x="166" y="710" on="1"/>
        <pt x="461" y="710" on="1"/>
        <pt x="500" y="710" on="0"/>
        <pt x="562" y="678" on="0"/>
        <pt x="605" y="624" on="0"/>
        <pt x="627" y="555" on="0"/>
        <pt x="627" y="518" on="1"/>
        <pt x="627" y="478" on="0"/>
        <pt x="599" y="400" on="0"/>
        <pt x="551" y="333" on="0"/>
        <pt x="486" y="282" on="0"/>
        <pt x="448" y="270" on="1"/>
        <pt x="548" y="0" on="1"/>
        <pt x="421" y="0" on="1"/>
        <pt x="329" y="247" on="1"/>
        <pt x="180" y="247" on="1"/>
        <pt x="128" y="0" on="1"/>
      </contour>
      <contour>
        <pt x="382" y="346" on="1"/>
        <pt x="407" y="346" on="0"/>
        <pt x="454" y="373" on="0"/>
        <pt x="490" y="418" on="0"/>
        <pt x="511" y="476" on="0"/>
        <pt x="511" y="506" on="1"/>
        <pt x="511" y="551" on="0"/>
        <pt x="467" y="611" on="0"/>
        <pt x="433" y="611" on="1"/>
        <pt x="258" y="611" on="1"/>
        <pt x="201" y="346" on="1"/>
      </contour>
    </TTGlyph>
    <TTGlyph name="Rdotbelow" xMin="15" yMin="-189" xMax="627" yMax="710">
      <contour>
        <pt x="15" y="0" on="1"/>
        <pt x="166" y="710" on="1"/>
        <pt x="461" y="710" on="1"/>
        <pt x="500" y="710" on="0"/>
        <pt x="562" y="678" on="0"/>
        <pt x="605" y="624" on="0"/>
        <pt x="627" y="555" on="0"/>
        <pt x="627" y="518" on="1"/>
        <pt x="627" y="478" on="0"/>
        <pt x="599" y="400" on="0"/>
        <pt x="551" y="333" on="0"/>
        <pt x="486" y="282" on="0"/>
        <pt x="448" y="270" on="1"/>
        <pt x="548" y="0" on="1"/>
        <pt x="421" y="0" on="1"/>
        <pt x="329" y="247" on="1"/>
        <pt x="180" y="247" on="1"/>
        <pt x="128" y="0" on="1"/>
      </contour>
      <contour>
        <pt x="382" y="346" on="1"/>
        <pt x="407" y="346" on="0"/>
        <pt x="454" y="373" on="0"/>
        <pt x="490" y="418" on="0"/>
        <pt x="511" y="476" on="0"/>
        <pt x="511" y="506" on="1"/>
        <pt x="511" y="551" on="0"/>
        <pt x="467" y="611" on="0"/>
        <pt x="433" y="611" on="1"/>
        <pt x="258" y="611" on="1"/>
        <pt x="201" y="346" on="1"/>
      </contour>
      <contour>
        <pt x="167" y="-189" on="1"/>
        <pt x="192" y="-73" on="1"/>
        <pt x="291" y="-73" on="1"/>
        <pt x="267" y="-189" on="1"/>
      </contour>
    </TTGlyph>
    <TTGlyph name="Rinvertedbreve" xMin="15" yMin="0" xMax="627" yMax="916">
      <contour>
        <pt x="299" y="794" on="1"/>
        <pt x="305" y="820" on="0"/>
        <pt x="332" y="865" on="0"/>
        <pt x="369" y="898" on="0"/>
        <pt x="415" y="916" on="0"/>
        <pt x="440" y="916" on="1"/>
        <pt x="483" y="916" on="0"/>
        <pt x="534" y="861" on="0"/>
        <pt x="534" y="821" on="1"/>
        <pt x="534" y="814" on="0"/>
        <pt x="532" y="801" on="0"/>
        <pt x="530" y="794" on="1"/>
        <pt x="471" y="794" on="1"/>
        <pt x="472" y="802" on="0"/>
        <pt x="473" y="814" on="0"/>
        <pt x="473" y="821" on="1"/>
        <pt x="473" y="865" on="0"/>
        <pt x="431" y="865" on="1"/>
        <pt x="401" y="865" on="0"/>
        <pt x="367" y="827" on="0"/>
        <pt x="359" y="794" on="1"/>
      </contour>
      <contour>
        <pt x="15" y="0" on="1"/>
        <pt x="166" y="710" on="1"/>
        <pt x="461" y="710" on="1"/>
        <pt x="500" y="710" on="0"/>
        <pt x="562" y="678" on="0"/>
        <pt x="605" y="624" on="0"/>
        <pt x="627" y="555" on="0"/>
        <pt x="627" y="518" on="1"/>
        <pt x="627" y="478" on="0"/>
        <pt x="599" y="400" on="0"/>
        <pt x="551" y="333" on="0"/>
        <pt x="486" y="282" on="0"/>
        <pt x="448" y="270" on="1"/>
        <pt x="548" y="0" on="1"/>
        <pt x="421" y="0" on="1"/>
        <pt x="329" y="247" on="1"/>
        <pt x="180" y="247" on="1"/>
        <pt x="128" y="0" on="1"/>
      </contour>
      <contour>
        <pt x="382" y="346" on="1"/>
        <pt x="407" y="346" on="0"/>
        <pt x="454" y="373" on="0"/>
        <pt x="490" y="418" on="0"/>
        <pt x="511" y="476" on="0"/>
        <pt x="511" y="506" on="1"/>
        <pt x="511" y="551" on="0"/>
        <pt x="467" y="611" on="0"/>
        <pt x="433" y="611" on="1"/>
        <pt x="258" y="611" on="1"/>
        <pt x="201" y="346" on="1"/>
      </contour>
    </TTGlyph>
    <TTGlyph name="S" xMin="-17" yMin="-7" xMax="601" yMax="715">
      <contour>
        <pt x="243" y="-7" on="1"/>
        <pt x="166" y="-7" on="0"/>
        <pt x="31" y="42" on="0"/>
        <pt x="-17" y="89" on="1"/>
        <pt x="56" y="185" on="1"/>
        <pt x="64" y="172" on="0"/>
        <pt x="103" y="140" on="0"/>
        <pt x="158" y="113" on="0"/>
        <pt x="227" y="94" on="0"/>
        <pt x="266" y="94" on="1"/>
        <pt x="338" y="94" on="0"/>
        <pt x="414" y="151" on="0"/>
        <pt x="414" y="202" on="1"/>
        <pt x="414" y="224" on="0"/>
        <pt x="391" y="255" on="0"/>
        <pt x="350" y="279" on="0"/>
        <pt x="291" y="298" on="0"/>
        <pt x="255" y="309" on="1"/>
        <pt x="175" y="332" on="0"/>
        <pt x="92" y="399" on="0"/>
        <pt x="92" y="461" on="1"/>
        <pt x="92" y="521" on="0"/>
        <pt x="140" y="615" on="0"/>
        <pt x="221" y="681" on="0"/>
        <pt x="328" y="715" on="0"/>
        <pt x="388" y="715" on="1"/>
        <pt x="457" y="715" on="0"/>
        <pt x="565" y="669" on="0"/>
        <pt x="601" y="635" on="1"/>
        <pt x="531" y="543" on="1"/>
        <pt x="525" y="554" on="0"/>
        <pt x="493" y="579" on="0"/>
        <pt x="449" y="601" on="0"/>
        <pt x="394" y="615" on="0"/>
        <pt x="364" y="615" on="1"/>
        <pt x="288" y="615" on="0"/>
        <pt x="215" y="550" on="0"/>
        <pt x="215" y="499" on="1"/>
        <pt x="215" y="479" on="0"/>
        <pt x="233" y="451" on="0"/>
        <pt x="269" y="430" on="0"/>
        <pt x="322" y="412" on="0"/>
        <pt x="357" y="403" on="1"/>
        <pt x="399" y="392" on="0"/>
        <pt x="466" y="364" on="0"/>
        <pt x="514" y="326" on="0"/>
        <pt x="540" y="273" on="0"/>
        <pt x="540" y="236" on="1"/>
        <pt x="540" y="173" on="0"/>
        <pt x="491" y="81" on="0"/>
        <pt x="408" y="21" on="0"/>
        <pt x="301" y="-7" on="0"/>
      </contour>
    </TTGlyph>
    <TTGlyph name="S.sc" xMin="-20" yMin="-6" xMax="496" yMax="559">
      <contour>
        <pt x="202" y="-6" on="1"/>
        <pt x="138" y="-6" on="0"/>
        <pt x="22" y="32" on="0"/>
        <pt x="-20" y="67" on="1"/>
        <pt x="44" y="153" on="1"/>
        <pt x="53" y="141" on="0"/>
        <pt x="86" y="116" on="0"/>
        <pt x="133" y="96" on="0"/>
        <pt x="190" y="83" on="0"/>
        <pt x="223" y="83" on="1"/>
        <pt x="278" y="83" on="0"/>
        <pt x="339" y="122" on="0"/>
        <pt x="339" y="158" on="1"/>
        <pt x="339" y="174" on="0"/>
        <pt x="320" y="197" on="0"/>
        <pt x="285" y="214" on="0"/>
        <pt x="236" y="229" on="0"/>
        <pt x="205" y="237" on="1"/>
        <pt x="137" y="255" on="0"/>
        <pt x="68" y="310" on="0"/>
        <pt x="68" y="361" on="1"/>
        <pt x="68" y="408" on="0"/>
        <pt x="108" y="481" on="0"/>
        <pt x="176" y="532" on="0"/>
        <pt x="265" y="559" on="0"/>
        <pt x="315" y="559" on="1"/>
        <pt x="374" y="559" on="0"/>
        <pt x="465" y="523" on="0"/>
        <pt x="496" y="496" on="1"/>
        <pt x="436" y="415" on="1"/>
        <pt x="422" y="434" on="0"/>
        <pt x="345" y="471" on="0"/>
        <pt x="294" y="471" on="1"/>
        <pt x="233" y="471" on="0"/>
        <pt x="176" y="426" on="0"/>
        <pt x="176" y="391" on="1"/>
        <pt x="176" y="362" on="0"/>
        <pt x="236" y="334" on="0"/>
        <pt x="295" y="319" on="1"/>
        <pt x="330" y="310" on="0"/>
        <pt x="388" y="288" on="0"/>
        <pt x="429" y="258" on="0"/>
        <pt x="451" y="216" on="0"/>
        <pt x="451" y="186" on="1"/>
        <pt x="451" y="135" on="0"/>
        <pt x="410" y="63" on="0"/>
        <pt x="341" y="16" on="0"/>
        <pt x="251" y="-6" on="0"/>
      </contour>
    </TTGlyph>
    <TTGlyph name="Sacute" xMin="-17" yMin="-7" xMax="601" yMax="930">
      <contour>
        <pt x="422" y="802" on="1"/>
        <pt x="352" y="820" on="1"/>
        <pt x="428" y="930" on="1"/>
        <pt x="533" y="930" on="1"/>
      </contour>
      <contour>
        <pt x="243" y="-7" on="1"/>
        <pt x="166" y="-7" on="0"/>
        <pt x="31" y="42" on="0"/>
        <pt x="-17" y="89" on="1"/>
        <pt x="56" y="185" on="1"/>
        <pt x="64" y="172" on="0"/>
        <pt x="103" y="140" on="0"/>
        <pt x="158" y="113" on="0"/>
        <pt x="227" y="94" on="0"/>
        <pt x="266" y="94" on="1"/>
        <pt x="338" y="94" on="0"/>
        <pt x="414" y="151" on="0"/>
        <pt x="414" y="202" on="1"/>
        <pt x="414" y="224" on="0"/>
        <pt x="391" y="255" on="0"/>
        <pt x="350" y="279" on="0"/>
        <pt x="291" y="298" on="0"/>
        <pt x="255" y="309" on="1"/>
        <pt x="175" y="332" on="0"/>
        <pt x="92" y="399" on="0"/>
        <pt x="92" y="461" on="1"/>
        <pt x="92" y="521" on="0"/>
        <pt x="140" y="615" on="0"/>
        <pt x="221" y="681" on="0"/>
        <pt x="328" y="715" on="0"/>
        <pt x="388" y="715" on="1"/>
        <pt x="457" y="715" on="0"/>
        <pt x="565" y="669" on="0"/>
        <pt x="601" y="635" on="1"/>
        <pt x="531" y="543" on="1"/>
        <pt x="525" y="554" on="0"/>
        <pt x="493" y="579" on="0"/>
        <pt x="449" y="601" on="0"/>
        <pt x="394" y="615" on="0"/>
        <pt x="364" y="615" on="1"/>
        <pt x="288" y="615" on="0"/>
        <pt x="215" y="550" on="0"/>
        <pt x="215" y="499" on="1"/>
        <pt x="215" y="479" on="0"/>
        <pt x="233" y="451" on="0"/>
        <pt x="269" y="430" on="0"/>
        <pt x="322" y="412" on="0"/>
        <pt x="357" y="403" on="1"/>
        <pt x="399" y="392" on="0"/>
        <pt x="466" y="364" on="0"/>
        <pt x="514" y="326" on="0"/>
        <pt x="540" y="273" on="0"/>
        <pt x="540" y="236" on="1"/>
        <pt x="540" y="173" on="0"/>
        <pt x="491" y="81" on="0"/>
        <pt x="408" y="21" on="0"/>
        <pt x="301" y="-7" on="0"/>
      </contour>
    </TTGlyph>
    <TTGlyph name="Scaron" xMin="-17" yMin="-7" xMax="601" yMax="930">
      <contour>
        <pt x="283" y="902" on="1"/>
        <pt x="347" y="930" on="1"/>
        <pt x="414" y="867" on="1"/>
        <pt x="508" y="930" on="1"/>
        <pt x="560" y="902" on="1"/>
        <pt x="441" y="807" on="1"/>
        <pt x="361" y="807" on="1"/>
      </contour>
      <contour>
        <pt x="243" y="-7" on="1"/>
        <pt x="166" y="-7" on="0"/>
        <pt x="31" y="42" on="0"/>
        <pt x="-17" y="89" on="1"/>
        <pt x="56" y="185" on="1"/>
        <pt x="64" y="172" on="0"/>
        <pt x="103" y="140" on="0"/>
        <pt x="158" y="113" on="0"/>
        <pt x="227" y="94" on="0"/>
        <pt x="266" y="94" on="1"/>
        <pt x="338" y="94" on="0"/>
        <pt x="414" y="151" on="0"/>
        <pt x="414" y="202" on="1"/>
        <pt x="414" y="224" on="0"/>
        <pt x="391" y="255" on="0"/>
        <pt x="350" y="279" on="0"/>
        <pt x="291" y="298" on="0"/>
        <pt x="255" y="309" on="1"/>
        <pt x="175" y="332" on="0"/>
        <pt x="92" y="399" on="0"/>
        <pt x="92" y="461" on="1"/>
        <pt x="92" y="521" on="0"/>
        <pt x="140" y="615" on="0"/>
        <pt x="221" y="681" on="0"/>
        <pt x="328" y="715" on="0"/>
        <pt x="388" y="715" on="1"/>
        <pt x="457" y="715" on="0"/>
        <pt x="565" y="669" on="0"/>
        <pt x="601" y="635" on="1"/>
        <pt x="531" y="543" on="1"/>
        <pt x="525" y="554" on="0"/>
        <pt x="493" y="579" on="0"/>
        <pt x="449" y="601" on="0"/>
        <pt x="394" y="615" on="0"/>
        <pt x="364" y="615" on="1"/>
        <pt x="288" y="615" on="0"/>
        <pt x="215" y="550" on="0"/>
        <pt x="215" y="499" on="1"/>
        <pt x="215" y="479" on="0"/>
        <pt x="233" y="451" on="0"/>
        <pt x="269" y="430" on="0"/>
        <pt x="322" y="412" on="0"/>
        <pt x="357" y="403" on="1"/>
        <pt x="399" y="392" on="0"/>
        <pt x="466" y="364" on="0"/>
        <pt x="514" y="326" on="0"/>
        <pt x="540" y="273" on="0"/>
        <pt x="540" y="236" on="1"/>
        <pt x="540" y="173" on="0"/>
        <pt x="491" y="81" on="0"/>
        <pt x="408" y="21" on="0"/>
        <pt x="301" y="-7" on="0"/>
      </contour>
    </TTGlyph>
    <TTGlyph name="Schwa" xMin="24" yMin="-5" xMax="693" yMax="715">
      <contour>
        <pt x="285" y="-5" on="1"/>
        <pt x="224" y="-5" on="0"/>
        <pt x="127" y="41" on="0"/>
        <pt x="60" y="120" on="0"/>
        <pt x="24" y="224" on="0"/>
        <pt x="24" y="282" on="1"/>
        <pt x="24" y="325" on="0"/>
        <pt x="41" y="383" on="0"/>
        <pt x="47" y="396" on="1"/>
        <pt x="570" y="396" on="1"/>
        <pt x="571" y="404" on="0"/>
        <pt x="572" y="422" on="0"/>
        <pt x="572" y="430" on="1"/>
        <pt x="572" y="471" on="0"/>
        <pt x="548" y="538" on="0"/>
        <pt x="506" y="586" on="0"/>
        <pt x="448" y="613" on="0"/>
        <pt x="413" y="613" on="1"/>
        <pt x="384" y="613" on="0"/>
        <pt x="325" y="595" on="0"/>
        <pt x="272" y="563" on="0"/>
        <pt x="229" y="518" on="0"/>
        <pt x="216" y="491" on="1"/>
        <pt x="113" y="534" on="1"/>
        <pt x="140" y="574" on="0"/>
        <pt x="214" y="641" on="0"/>
        <pt x="299" y="689" on="0"/>
        <pt x="393" y="715" on="0"/>
        <pt x="440" y="715" on="1"/>
        <pt x="500" y="715" on="0"/>
        <pt x="594" y="669" on="0"/>
        <pt x="659" y="590" on="0"/>
        <pt x="693" y="484" on="0"/>
        <pt x="693" y="425" on="1"/>
        <pt x="693" y="341" on="0"/>
        <pt x="627" y="186" on="0"/>
        <pt x="515" y="66" on="0"/>
        <pt x="367" y="-5" on="0"/>
      </contour>
      <contour>
        <pt x="308" y="95" on="1"/>
        <pt x="348" y="95" on="0"/>
        <pt x="424" y="126" on="0"/>
        <pt x="488" y="182" on="0"/>
        <pt x="537" y="259" on="0"/>
        <pt x="550" y="304" on="1"/>
        <pt x="142" y="304" on="1"/>
        <pt x="138" y="284" on="0"/>
        <pt x="138" y="259" on="1"/>
        <pt x="138" y="224" on="0"/>
        <pt x="161" y="165" on="0"/>
        <pt x="205" y="120" on="0"/>
        <pt x="268" y="95" on="0"/>
      </contour>
    </TTGlyph>
    <TTGlyph name="Scircumflex" xMin="-17" yMin="-7" xMax="601" yMax="930">
      <contour>
        <pt x="277" y="835" on="1"/>
        <pt x="396" y="930" on="1"/>
        <pt x="476" y="930" on="1"/>
        <pt x="554" y="835" on="1"/>
        <pt x="490" y="807" on="1"/>
        <pt x="423" y="870" on="1"/>
        <pt x="329" y="807" on="1"/>
      </contour>
      <contour>
        <pt x="243" y="-7" on="1"/>
        <pt x="166" y="-7" on="0"/>
        <pt x="31" y="42" on="0"/>
        <pt x="-17" y="89" on="1"/>
        <pt x="56" y="185" on="1"/>
        <pt x="64" y="172" on="0"/>
        <pt x="103" y="140" on="0"/>
        <pt x="158" y="113" on="0"/>
        <pt x="227" y="94" on="0"/>
        <pt x="266" y="94" on="1"/>
        <pt x="338" y="94" on="0"/>
        <pt x="414" y="151" on="0"/>
        <pt x="414" y="202" on="1"/>
        <pt x="414" y="224" on="0"/>
        <pt x="391" y="255" on="0"/>
        <pt x="350" y="279" on="0"/>
        <pt x="291" y="298" on="0"/>
        <pt x="255" y="309" on="1"/>
        <pt x="175" y="332" on="0"/>
        <pt x="92" y="399" on="0"/>
        <pt x="92" y="461" on="1"/>
        <pt x="92" y="521" on="0"/>
        <pt x="140" y="615" on="0"/>
        <pt x="221" y="681" on="0"/>
        <pt x="328" y="715" on="0"/>
        <pt x="388" y="715" on="1"/>
        <pt x="457" y="715" on="0"/>
        <pt x="565" y="669" on="0"/>
        <pt x="601" y="635" on="1"/>
        <pt x="531" y="543" on="1"/>
        <pt x="525" y="554" on="0"/>
        <pt x="493" y="579" on="0"/>
        <pt x="449" y="601" on="0"/>
        <pt x="394" y="615" on="0"/>
        <pt x="364" y="615" on="1"/>
        <pt x="288" y="615" on="0"/>
        <pt x="215" y="550" on="0"/>
        <pt x="215" y="499" on="1"/>
        <pt x="215" y="479" on="0"/>
        <pt x="233" y="451" on="0"/>
        <pt x="269" y="430" on="0"/>
        <pt x="322" y="412" on="0"/>
        <pt x="357" y="403" on="1"/>
        <pt x="399" y="392" on="0"/>
        <pt x="466" y="364" on="0"/>
        <pt x="514" y="326" on="0"/>
        <pt x="540" y="273" on="0"/>
        <pt x="540" y="236" on="1"/>
        <pt x="540" y="173" on="0"/>
        <pt x="491" y="81" on="0"/>
        <pt x="408" y="21" on="0"/>
        <pt x="301" y="-7" on="0"/>
      </contour>
    </TTGlyph>
    <TTGlyph name="Sdotbelow" xMin="-17" yMin="-189" xMax="601" yMax="715">
      <contour>
        <pt x="243" y="-7" on="1"/>
        <pt x="166" y="-7" on="0"/>
        <pt x="31" y="42" on="0"/>
        <pt x="-17" y="89" on="1"/>
        <pt x="56" y="185" on="1"/>
        <pt x="64" y="172" on="0"/>
        <pt x="103" y="140" on="0"/>
        <pt x="158" y="113" on="0"/>
        <pt x="227" y="94" on="0"/>
        <pt x="266" y="94" on="1"/>
        <pt x="338" y="94" on="0"/>
        <pt x="414" y="151" on="0"/>
        <pt x="414" y="202" on="1"/>
        <pt x="414" y="224" on="0"/>
        <pt x="391" y="255" on="0"/>
        <pt x="350" y="279" on="0"/>
        <pt x="291" y="298" on="0"/>
        <pt x="255" y="309" on="1"/>
        <pt x="175" y="332" on="0"/>
        <pt x="92" y="399" on="0"/>
        <pt x="92" y="461" on="1"/>
        <pt x="92" y="521" on="0"/>
        <pt x="140" y="615" on="0"/>
        <pt x="221" y="681" on="0"/>
        <pt x="328" y="715" on="0"/>
        <pt x="388" y="715" on="1"/>
        <pt x="457" y="715" on="0"/>
        <pt x="565" y="669" on="0"/>
        <pt x="601" y="635" on="1"/>
        <pt x="531" y="543" on="1"/>
        <pt x="525" y="554" on="0"/>
        <pt x="493" y="579" on="0"/>
        <pt x="449" y="601" on="0"/>
        <pt x="394" y="615" on="0"/>
        <pt x="364" y="615" on="1"/>
        <pt x="288" y="615" on="0"/>
        <pt x="215" y="550" on="0"/>
        <pt x="215" y="499" on="1"/>
        <pt x="215" y="479" on="0"/>
        <pt x="233" y="451" on="0"/>
        <pt x="269" y="430" on="0"/>
        <pt x="322" y="412" on="0"/>
        <pt x="357" y="403" on="1"/>
        <pt x="399" y="392" on="0"/>
        <pt x="466" y="364" on="0"/>
        <pt x="514" y="326" on="0"/>
        <pt x="540" y="273" on="0"/>
        <pt x="540" y="236" on="1"/>
        <pt x="540" y="173" on="0"/>
        <pt x="491" y="81" on="0"/>
        <pt x="408" y="21" on="0"/>
        <pt x="301" y="-7" on="0"/>
      </contour>
      <contour>
        <pt x="150" y="-189" on="1"/>
        <pt x="175" y="-73" on="1"/>
        <pt x="274" y="-73" on="1"/>
        <pt x="250" y="-189" on="1"/>
      </contour>
    </TTGlyph>
    <TTGlyph name="T" xMin="81" yMin="0" xMax="659" yMax="710">
      <contour>
        <pt x="303" y="611" on="1"/>
        <pt x="81" y="611" on="1"/>
        <pt x="102" y="710" on="1"/>
        <pt x="659" y="710" on="1"/>
        <pt x="638" y="611" on="1"/>
        <pt x="416" y="611" on="1"/>
        <pt x="286" y="0" on="1"/>
        <pt x="174" y="0" on="1"/>
      </contour>
    </TTGlyph>
    <TTGlyph name="T.sc" xMin="54" yMin="0" xMax="555" yMax="555">
      <contour>
        <pt x="247" y="467" on="1"/>
        <pt x="54" y="467" on="1"/>
        <pt x="73" y="555" on="1"/>
        <pt x="555" y="555" on="1"/>
        <pt x="537" y="467" on="1"/>
        <pt x="346" y="467" on="1"/>
        <pt x="247" y="0" on="1"/>
        <pt x="147" y="0" on="1"/>
      </contour>
    </TTGlyph>
    <TTGlyph name="Tbar" xMin="69" yMin="0" xMax="673" yMax="710">
      <contour>
        <pt x="81" y="388" on="1"/>
        <pt x="269" y="388" on="1"/>
        <pt x="317" y="611" on="1"/>
        <pt x="95" y="611" on="1"/>
        <pt x="116" y="710" on="1"/>
        <pt x="673" y="710" on="1"/>
        <pt x="652" y="611" on="1"/>
        <pt x="430" y="611" on="1"/>
        <pt x="382" y="388" on="1"/>
        <pt x="571" y="388" on="1"/>
        <pt x="559" y="332" on="1"/>
        <pt x="370" y="332" on="1"/>
        <pt x="300" y="0" on="1"/>
        <pt x="187" y="0" on="1"/>
        <pt x="257" y="332" on="1"/>
        <pt x="69" y="332" on="1"/>
      </contour>
    </TTGlyph>
    <TTGlyph name="Tcaron" xMin="81" yMin="0" xMax="659" yMax="916">
      <contour>
        <pt x="275" y="888" on="1"/>
        <pt x="339" y="916" on="1"/>
        <pt x="406" y="853" on="1"/>
        <pt x="500" y="916" on="1"/>
        <pt x="552" y="888" on="1"/>
        <pt x="433" y="793" on="1"/>
        <pt x="353" y="793" on="1"/>
      </contour>
      <contour>
        <pt x="303" y="611" on="1"/>
        <pt x="81" y="611" on="1"/>
        <pt x="102" y="710" on="1"/>
        <pt x="659" y="710" on="1"/>
        <pt x="638" y="611" on="1"/>
        <pt x="416" y="611" on="1"/>
        <pt x="286" y="0" on="1"/>
        <pt x="174" y="0" on="1"/>
      </contour>
    </TTGlyph>
    <TTGlyph name="Tdotbelow" xMin="81" yMin="-189" xMax="659" yMax="710">
      <contour>
        <pt x="139" y="-189" on="1"/>
        <pt x="164" y="-73" on="1"/>
        <pt x="263" y="-73" on="1"/>
        <pt x="239" y="-189" on="1"/>
      </contour>
      <contour>
        <pt x="303" y="611" on="1"/>
        <pt x="81" y="611" on="1"/>
        <pt x="102" y="710" on="1"/>
        <pt x="659" y="710" on="1"/>
        <pt x="638" y="611" on="1"/>
        <pt x="416" y="611" on="1"/>
        <pt x="286" y="0" on="1"/>
        <pt x="174" y="0" on="1"/>
      </contour>
    </TTGlyph>
    <TTGlyph name="Thorn" xMin="15" yMin="0" xMax="572" yMax="710">
      <contour>
        <pt x="166" y="710" on="1"/>
        <pt x="279" y="710" on="1"/>
        <pt x="251" y="577" on="1"/>
        <pt x="405" y="577" on="1"/>
        <pt x="444" y="577" on="0"/>
        <pt x="506" y="545" on="0"/>
        <pt x="549" y="491" on="0"/>
        <pt x="572" y="422" on="0"/>
        <pt x="572" y="386" on="1"/>
        <pt x="572" y="336" on="0"/>
        <pt x="530" y="239" on="0"/>
        <pt x="459" y="162" on="0"/>
        <pt x="365" y="114" on="0"/>
        <pt x="312" y="114" on="1"/>
        <pt x="152" y="114" on="1"/>
        <pt x="128" y="0" on="1"/>
        <pt x="15" y="0" on="1"/>
      </contour>
      <contour>
        <pt x="328" y="214" on="1"/>
        <pt x="354" y="214" on="0"/>
        <pt x="401" y="242" on="0"/>
        <pt x="436" y="287" on="0"/>
        <pt x="457" y="344" on="0"/>
        <pt x="457" y="374" on="1"/>
        <pt x="457" y="419" on="0"/>
        <pt x="413" y="478" on="0"/>
        <pt x="378" y="478" on="1"/>
        <pt x="229" y="478" on="1"/>
        <pt x="173" y="214" on="1"/>
      </contour>
    </TTGlyph>
    <TTGlyph name="U" xMin="66" yMin="-5" xMax="740" yMax="710">
      <contour>
        <pt x="296" y="-5" on="1"/>
        <pt x="233" y="-5" on="0"/>
        <pt x="145" y="32" on="0"/>
        <pt x="91" y="96" on="0"/>
        <pt x="66" y="183" on="0"/>
        <pt x="66" y="233" on="1"/>
        <pt x="66" y="288" on="0"/>
        <pt x="80" y="350" on="1"/>
        <pt x="156" y="710" on="1"/>
        <pt x="269" y="710" on="1"/>
        <pt x="192" y="350" on="1"/>
        <pt x="181" y="297" on="0"/>
        <pt x="181" y="253" on="1"/>
        <pt x="181" y="220" on="0"/>
        <pt x="195" y="162" on="0"/>
        <pt x="227" y="120" on="0"/>
        <pt x="279" y="96" on="0"/>
        <pt x="317" y="96" on="1"/>
        <pt x="369" y="96" on="0"/>
        <pt x="447" y="140" on="0"/>
        <pt x="504" y="211" on="0"/>
        <pt x="541" y="302" on="0"/>
        <pt x="551" y="350" on="1"/>
        <pt x="627" y="710" on="1"/>
        <pt x="740" y="710" on="1"/>
        <pt x="663" y="350" on="1"/>
        <pt x="648" y="277" on="0"/>
        <pt x="588" y="148" on="0"/>
        <pt x="497" y="51" on="0"/>
        <pt x="374" y="-5" on="0"/>
      </contour>
    </TTGlyph>
    <TTGlyph name="U.sc" xMin="48" yMin="-4" xMax="617" yMax="555">
      <contour>
        <pt x="249" y="-4" on="1"/>
        <pt x="194" y="-4" on="0"/>
        <pt x="118" y="26" on="0"/>
        <pt x="70" y="78" on="0"/>
        <pt x="48" y="148" on="0"/>
        <pt x="48" y="189" on="1"/>
        <pt x="48" y="209" on="0"/>
        <pt x="53" y="251" on="0"/>
        <pt x="58" y="273" on="1"/>
        <pt x="118" y="555" on="1"/>
        <pt x="217" y="555" on="1"/>
        <pt x="158" y="273" on="1"/>
        <pt x="154" y="256" on="0"/>
        <pt x="150" y="224" on="0"/>
        <pt x="150" y="208" on="1"/>
        <pt x="150" y="182" on="0"/>
        <pt x="162" y="137" on="0"/>
        <pt x="190" y="104" on="0"/>
        <pt x="235" y="85" on="0"/>
        <pt x="267" y="85" on="1"/>
        <pt x="310" y="85" on="0"/>
        <pt x="375" y="117" on="0"/>
        <pt x="422" y="169" on="0"/>
        <pt x="450" y="237" on="0"/>
        <pt x="458" y="273" on="1"/>
        <pt x="517" y="555" on="1"/>
        <pt x="617" y="555" on="1"/>
        <pt x="557" y="273" on="1"/>
        <pt x="545" y="216" on="0"/>
        <pt x="496" y="115" on="0"/>
        <pt x="419" y="40" on="0"/>
        <pt x="315" y="-4" on="0"/>
      </contour>
    </TTGlyph>
    <TTGlyph name="Uacute" xMin="66" yMin="-5" xMax="740" yMax="916">
      <contour>
        <pt x="472" y="788" on="1"/>
        <pt x="402" y="806" on="1"/>
        <pt x="478" y="916" on="1"/>
        <pt x="583" y="916" on="1"/>
      </contour>
      <contour>
        <pt x="296" y="-5" on="1"/>
        <pt x="233" y="-5" on="0"/>
        <pt x="145" y="32" on="0"/>
        <pt x="91" y="96" on="0"/>
        <pt x="66" y="183" on="0"/>
        <pt x="66" y="233" on="1"/>
        <pt x="66" y="288" on="0"/>
        <pt x="80" y="350" on="1"/>
        <pt x="156" y="710" on="1"/>
        <pt x="269" y="710" on="1"/>
        <pt x="192" y="350" on="1"/>
        <pt x="181" y="297" on="0"/>
        <pt x="181" y="253" on="1"/>
        <pt x="181" y="220" on="0"/>
        <pt x="195" y="162" on="0"/>
        <pt x="227" y="120" on="0"/>
        <pt x="279" y="96" on="0"/>
        <pt x="317" y="96" on="1"/>
        <pt x="369" y="96" on="0"/>
        <pt x="447" y="140" on="0"/>
        <pt x="504" y="211" on="0"/>
        <pt x="541" y="302" on="0"/>
        <pt x="551" y="350" on="1"/>
        <pt x="627" y="710" on="1"/>
        <pt x="740" y="710" on="1"/>
        <pt x="663" y="350" on="1"/>
        <pt x="648" y="277" on="0"/>
        <pt x="588" y="148" on="0"/>
        <pt x="497" y="51" on="0"/>
        <pt x="374" y="-5" on="0"/>
      </contour>
    </TTGlyph>
    <TTGlyph name="Ubreve" xMin="66" yMin="-5" xMax="740" yMax="916">
      <contour>
        <pt x="296" y="-5" on="1"/>
        <pt x="233" y="-5" on="0"/>
        <pt x="145" y="32" on="0"/>
        <pt x="91" y="96" on="0"/>
        <pt x="66" y="183" on="0"/>
        <pt x="66" y="233" on="1"/>
        <pt x="66" y="288" on="0"/>
        <pt x="80" y="350" on="1"/>
        <pt x="156" y="710" on="1"/>
        <pt x="269" y="710" on="1"/>
        <pt x="192" y="350" on="1"/>
        <pt x="181" y="297" on="0"/>
        <pt x="181" y="253" on="1"/>
        <pt x="181" y="220" on="0"/>
        <pt x="195" y="162" on="0"/>
        <pt x="227" y="120" on="0"/>
        <pt x="279" y="96" on="0"/>
        <pt x="317" y="96" on="1"/>
        <pt x="369" y="96" on="0"/>
        <pt x="447" y="140" on="0"/>
        <pt x="504" y="211" on="0"/>
        <pt x="541" y="302" on="0"/>
        <pt x="551" y="350" on="1"/>
        <pt x="627" y="710" on="1"/>
        <pt x="740" y="710" on="1"/>
        <pt x="663" y="350" on="1"/>
        <pt x="648" y="277" on="0"/>
        <pt x="588" y="148" on="0"/>
        <pt x="497" y="51" on="0"/>
        <pt x="374" y="-5" on="0"/>
      </contour>
      <contour>
        <pt x="462" y="845" on="1"/>
        <pt x="483" y="845" on="0"/>
        <pt x="523" y="885" on="0"/>
        <pt x="532" y="916" on="1"/>
        <pt x="593" y="916" on="1"/>
        <pt x="587" y="890" on="0"/>
        <pt x="560" y="845" on="0"/>
        <pt x="522" y="812" on="0"/>
        <pt x="476" y="794" on="0"/>
        <pt x="451" y="794" on="1"/>
        <pt x="408" y="794" on="0"/>
        <pt x="357" y="845" on="0"/>
        <pt x="357" y="887" on="1"/>
        <pt x="357" y="895" on="0"/>
        <pt x="359" y="909" on="0"/>
        <pt x="361" y="916" on="1"/>
        <pt x="422" y="916" on="1"/>
        <pt x="421" y="911" on="0"/>
        <pt x="420" y="903" on="0"/>
        <pt x="420" y="898" on="1"/>
        <pt x="420" y="876" on="0"/>
        <pt x="443" y="845" on="0"/>
      </contour>
    </TTGlyph>
    <TTGlyph name="Ucircumflex" xMin="66" yMin="-5" xMax="740" yMax="916">
      <contour>
        <pt x="327" y="821" on="1"/>
        <pt x="446" y="916" on="1"/>
        <pt x="526" y="916" on="1"/>
        <pt x="604" y="821" on="1"/>
        <pt x="540" y="793" on="1"/>
        <pt x="473" y="856" on="1"/>
        <pt x="379" y="793" on="1"/>
      </contour>
      <contour>
        <pt x="296" y="-5" on="1"/>
        <pt x="233" y="-5" on="0"/>
        <pt x="145" y="32" on="0"/>
        <pt x="91" y="96" on="0"/>
        <pt x="66" y="183" on="0"/>
        <pt x="66" y="233" on="1"/>
        <pt x="66" y="288" on="0"/>
        <pt x="80" y="350" on="1"/>
        <pt x="156" y="710" on="1"/>
        <pt x="269" y="710" on="1"/>
        <pt x="192" y="350" on="1"/>
        <pt x="181" y="297" on="0"/>
        <pt x="181" y="253" on="1"/>
        <pt x="181" y="220" on="0"/>
        <pt x="195" y="162" on="0"/>
        <pt x="227" y="120" on="0"/>
        <pt x="279" y="96" on="0"/>
        <pt x="317" y="96" on="1"/>
        <pt x="369" y="96" on="0"/>
        <pt x="447" y="140" on="0"/>
        <pt x="504" y="211" on="0"/>
        <pt x="541" y="302" on="0"/>
        <pt x="551" y="350" on="1"/>
        <pt x="627" y="710" on="1"/>
        <pt x="740" y="710" on="1"/>
        <pt x="663" y="350" on="1"/>
        <pt x="648" y="277" on="0"/>
        <pt x="588" y="148" on="0"/>
        <pt x="497" y="51" on="0"/>
        <pt x="374" y="-5" on="0"/>
      </contour>
    </TTGlyph>
    <TTGlyph name="Udblgrave" xMin="66" yMin="-5" xMax="740" yMax="918">
      <contour>
        <pt x="473" y="918" on="1"/>
        <pt x="560" y="918" on="1"/>
        <pt x="585" y="808" on="1"/>
        <pt x="525" y="789" on="1"/>
      </contour>
      <contour>
        <pt x="329" y="918" on="1"/>
        <pt x="418" y="918" on="1"/>
        <pt x="442" y="808" on="1"/>
        <pt x="381" y="789" on="1"/>
      </contour>
      <contour>
        <pt x="296" y="-5" on="1"/>
        <pt x="233" y="-5" on="0"/>
        <pt x="145" y="32" on="0"/>
        <pt x="91" y="96" on="0"/>
        <pt x="66" y="183" on="0"/>
        <pt x="66" y="233" on="1"/>
        <pt x="66" y="288" on="0"/>
        <pt x="80" y="350" on="1"/>
        <pt x="156" y="710" on="1"/>
        <pt x="269" y="710" on="1"/>
        <pt x="192" y="350" on="1"/>
        <pt x="181" y="297" on="0"/>
        <pt x="181" y="253" on="1"/>
        <pt x="181" y="220" on="0"/>
        <pt x="195" y="162" on="0"/>
        <pt x="227" y="120" on="0"/>
        <pt x="279" y="96" on="0"/>
        <pt x="317" y="96" on="1"/>
        <pt x="369" y="96" on="0"/>
        <pt x="447" y="140" on="0"/>
        <pt x="504" y="211" on="0"/>
        <pt x="541" y="302" on="0"/>
        <pt x="551" y="350" on="1"/>
        <pt x="627" y="710" on="1"/>
        <pt x="740" y="710" on="1"/>
        <pt x="663" y="350" on="1"/>
        <pt x="648" y="277" on="0"/>
        <pt x="588" y="148" on="0"/>
        <pt x="497" y="51" on="0"/>
        <pt x="374" y="-5" on="0"/>
      </contour>
    </TTGlyph>
    <TTGlyph name="Udieresis" xMin="66" yMin="-5" xMax="740" yMax="912">
      <contour>
        <pt x="329" y="802" on="1"/>
        <pt x="353" y="912" on="1"/>
        <pt x="444" y="912" on="1"/>
        <pt x="421" y="802" on="1"/>
      </contour>
      <contour>
        <pt x="501" y="802" on="1"/>
        <pt x="524" y="912" on="1"/>
        <pt x="615" y="912" on="1"/>
        <pt x="592" y="802" on="1"/>
      </contour>
      <contour>
        <pt x="296" y="-5" on="1"/>
        <pt x="233" y="-5" on="0"/>
        <pt x="145" y="32" on="0"/>
        <pt x="91" y="96" on="0"/>
        <pt x="66" y="183" on="0"/>
        <pt x="66" y="233" on="1"/>
        <pt x="66" y="288" on="0"/>
        <pt x="80" y="350" on="1"/>
        <pt x="156" y="710" on="1"/>
        <pt x="269" y="710" on="1"/>
        <pt x="192" y="350" on="1"/>
        <pt x="181" y="297" on="0"/>
        <pt x="181" y="253" on="1"/>
        <pt x="181" y="220" on="0"/>
        <pt x="195" y="162" on="0"/>
        <pt x="227" y="120" on="0"/>
        <pt x="279" y="96" on="0"/>
        <pt x="317" y="96" on="1"/>
        <pt x="369" y="96" on="0"/>
        <pt x="447" y="140" on="0"/>
        <pt x="504" y="211" on="0"/>
        <pt x="541" y="302" on="0"/>
        <pt x="551" y="350" on="1"/>
        <pt x="627" y="710" on="1"/>
        <pt x="740" y="710" on="1"/>
        <pt x="663" y="350" on="1"/>
        <pt x="648" y="277" on="0"/>
        <pt x="588" y="148" on="0"/>
        <pt x="497" y="51" on="0"/>
        <pt x="374" y="-5" on="0"/>
      </contour>
    </TTGlyph>
    <TTGlyph name="Udotbelow" xMin="66" yMin="-189" xMax="740" yMax="710">
      <contour>
        <pt x="296" y="-5" on="1"/>
        <pt x="233" y="-5" on="0"/>
        <pt x="145" y="32" on="0"/>
        <pt x="91" y="96" on="0"/>
        <pt x="66" y="183" on="0"/>
        <pt x="66" y="233" on="1"/>
        <pt x="66" y="288" on="0"/>
        <pt x="80" y="350" on="1"/>
        <pt x="156" y="710" on="1"/>
        <pt x="269" y="710" on="1"/>
        <pt x="192" y="350" on="1"/>
        <pt x="181" y="297" on="0"/>
        <pt x="181" y="253" on="1"/>
        <pt x="181" y="220" on="0"/>
        <pt x="195" y="162" on="0"/>
        <pt x="227" y="120" on="0"/>
        <pt x="279" y="96" on="0"/>
        <pt x="317" y="96" on="1"/>
        <pt x="369" y="96" on="0"/>
        <pt x="447" y="140" on="0"/>
        <pt x="504" y="211" on="0"/>
        <pt x="541" y="302" on="0"/>
        <pt x="551" y="350" on="1"/>
        <pt x="627" y="710" on="1"/>
        <pt x="740" y="710" on="1"/>
        <pt x="663" y="350" on="1"/>
        <pt x="648" y="277" on="0"/>
        <pt x="588" y="148" on="0"/>
        <pt x="497" y="51" on="0"/>
        <pt x="374" y="-5" on="0"/>
      </contour>
      <contour>
        <pt x="202" y="-189" on="1"/>
        <pt x="227" y="-73" on="1"/>
        <pt x="326" y="-73" on="1"/>
        <pt x="302" y="-189" on="1"/>
      </contour>
    </TTGlyph>
    <TTGlyph name="Ugrave" xMin="66" yMin="-5" xMax="740" yMax="917">
      <contour>
        <pt x="296" y="-5" on="1"/>
        <pt x="233" y="-5" on="0"/>
        <pt x="145" y="32" on="0"/>
        <pt x="91" y="96" on="0"/>
        <pt x="66" y="183" on="0"/>
        <pt x="66" y="233" on="1"/>
        <pt x="66" y="288" on="0"/>
        <pt x="80" y="350" on="1"/>
        <pt x="156" y="710" on="1"/>
        <pt x="269" y="710" on="1"/>
        <pt x="192" y="350" on="1"/>
        <pt x="181" y="297" on="0"/>
        <pt x="181" y="253" on="1"/>
        <pt x="181" y="220" on="0"/>
        <pt x="195" y="162" on="0"/>
        <pt x="227" y="120" on="0"/>
        <pt x="279" y="96" on="0"/>
        <pt x="317" y="96" on="1"/>
        <pt x="369" y="96" on="0"/>
        <pt x="447" y="140" on="0"/>
        <pt x="504" y="211" on="0"/>
        <pt x="541" y="302" on="0"/>
        <pt x="551" y="350" on="1"/>
        <pt x="627" y="710" on="1"/>
        <pt x="740" y="710" on="1"/>
        <pt x="663" y="350" on="1"/>
        <pt x="648" y="277" on="0"/>
        <pt x="588" y="148" on="0"/>
        <pt x="497" y="51" on="0"/>
        <pt x="374" y="-5" on="0"/>
      </contour>
      <contour>
        <pt x="390" y="917" on="1"/>
        <pt x="494" y="917" on="1"/>
        <pt x="524" y="807" on="1"/>
        <pt x="448" y="788" on="1"/>
      </contour>
    </TTGlyph>
    <TTGlyph name="Uhungarumlaut" xMin="66" yMin="-5" xMax="740" yMax="917">
      <contour>
        <pt x="296" y="-5" on="1"/>
        <pt x="233" y="-5" on="0"/>
        <pt x="145" y="32" on="0"/>
        <pt x="91" y="96" on="0"/>
        <pt x="66" y="183" on="0"/>
        <pt x="66" y="233" on="1"/>
        <pt x="66" y="288" on="0"/>
        <pt x="80" y="350" on="1"/>
        <pt x="156" y="710" on="1"/>
        <pt x="269" y="710" on="1"/>
        <pt x="192" y="350" on="1"/>
        <pt x="181" y="297" on="0"/>
        <pt x="181" y="253" on="1"/>
        <pt x="181" y="220" on="0"/>
        <pt x="195" y="162" on="0"/>
        <pt x="227" y="120" on="0"/>
        <pt x="279" y="96" on="0"/>
        <pt x="317" y="96" on="1"/>
        <pt x="369" y="96" on="0"/>
        <pt x="447" y="140" on="0"/>
        <pt x="504" y="211" on="0"/>
        <pt x="541" y="302" on="0"/>
        <pt x="551" y="350" on="1"/>
        <pt x="627" y="710" on="1"/>
        <pt x="740" y="710" on="1"/>
        <pt x="663" y="350" on="1"/>
        <pt x="648" y="277" on="0"/>
        <pt x="588" y="148" on="0"/>
        <pt x="497" y="51" on="0"/>
        <pt x="374" y="-5" on="0"/>
      </contour>
      <contour>
        <pt x="384" y="790" on="1"/>
        <pt x="330" y="807" on="1"/>
        <pt x="401" y="917" on="1"/>
        <pt x="490" y="917" on="1"/>
      </contour>
      <contour>
        <pt x="527" y="790" on="1"/>
        <pt x="474" y="807" on="1"/>
        <pt x="544" y="917" on="1"/>
        <pt x="633" y="917" on="1"/>
      </contour>
    </TTGlyph>
    <TTGlyph name="Uinvertedbreve" xMin="66" yMin="-5" xMax="740" yMax="916">
      <contour>
        <pt x="351" y="794" on="1"/>
        <pt x="357" y="820" on="0"/>
        <pt x="384" y="865" on="0"/>
        <pt x="421" y="898" on="0"/>
        <pt x="467" y="916" on="0"/>
        <pt x="492" y="916" on="1"/>
        <pt x="535" y="916" on="0"/>
        <pt x="586" y="861" on="0"/>
        <pt x="586" y="821" on="1"/>
        <pt x="586" y="814" on="0"/>
        <pt x="584" y="801" on="0"/>
        <pt x="582" y="794" on="1"/>
        <pt x="523" y="794" on="1"/>
        <pt x="524" y="802" on="0"/>
        <pt x="525" y="814" on="0"/>
        <pt x="525" y="821" on="1"/>
        <pt x="525" y="865" on="0"/>
        <pt x="483" y="865" on="1"/>
        <pt x="453" y="865" on="0"/>
        <pt x="419" y="827" on="0"/>
        <pt x="411" y="794" on="1"/>
      </contour>
      <contour>
        <pt x="296" y="-5" on="1"/>
        <pt x="233" y="-5" on="0"/>
        <pt x="145" y="32" on="0"/>
        <pt x="91" y="96" on="0"/>
        <pt x="66" y="183" on="0"/>
        <pt x="66" y="233" on="1"/>
        <pt x="66" y="288" on="0"/>
        <pt x="80" y="350" on="1"/>
        <pt x="156" y="710" on="1"/>
        <pt x="269" y="710" on="1"/>
        <pt x="192" y="350" on="1"/>
        <pt x="181" y="297" on="0"/>
        <pt x="181" y="253" on="1"/>
        <pt x="181" y="220" on="0"/>
        <pt x="195" y="162" on="0"/>
        <pt x="227" y="120" on="0"/>
        <pt x="279" y="96" on="0"/>
        <pt x="317" y="96" on="1"/>
        <pt x="369" y="96" on="0"/>
        <pt x="447" y="140" on="0"/>
        <pt x="504" y="211" on="0"/>
        <pt x="541" y="302" on="0"/>
        <pt x="551" y="350" on="1"/>
        <pt x="627" y="710" on="1"/>
        <pt x="740" y="710" on="1"/>
        <pt x="663" y="350" on="1"/>
        <pt x="648" y="277" on="0"/>
        <pt x="588" y="148" on="0"/>
        <pt x="497" y="51" on="0"/>
        <pt x="374" y="-5" on="0"/>
      </contour>
    </TTGlyph>
    <TTGlyph name="Umacron" xMin="66" yMin="-5" xMax="740" yMax="898">
      <contour>
        <pt x="296" y="-5" on="1"/>
        <pt x="233" y="-5" on="0"/>
        <pt x="145" y="32" on="0"/>
        <pt x="91" y="96" on="0"/>
        <pt x="66" y="183" on="0"/>
        <pt x="66" y="233" on="1"/>
        <pt x="66" y="288" on="0"/>
        <pt x="80" y="350" on="1"/>
        <pt x="156" y="710" on="1"/>
        <pt x="269" y="710" on="1"/>
        <pt x="192" y="350" on="1"/>
        <pt x="181" y="297" on="0"/>
        <pt x="181" y="253" on="1"/>
        <pt x="181" y="220" on="0"/>
        <pt x="195" y="162" on="0"/>
        <pt x="227" y="120" on="0"/>
        <pt x="279" y="96" on="0"/>
        <pt x="317" y="96" on="1"/>
        <pt x="369" y="96" on="0"/>
        <pt x="447" y="140" on="0"/>
        <pt x="504" y="211" on="0"/>
        <pt x="541" y="302" on="0"/>
        <pt x="551" y="350" on="1"/>
        <pt x="627" y="710" on="1"/>
        <pt x="740" y="710" on="1"/>
        <pt x="663" y="350" on="1"/>
        <pt x="648" y="277" on="0"/>
        <pt x="588" y="148" on="0"/>
        <pt x="497" y="51" on="0"/>
        <pt x="374" y="-5" on="0"/>
      </contour>
      <contour>
        <pt x="326" y="828" on="1"/>
        <pt x="340" y="898" on="1"/>
        <pt x="623" y="898" on="1"/>
        <pt x="608" y="828" on="1"/>
      </contour>
    </TTGlyph>
    <TTGlyph name="Uogonek" xMin="66" yMin="-188" xMax="740" yMax="710">
      <contour>
        <pt x="250" y="-188" on="1"/>
        <pt x="208" y="-181" on="0"/>
        <pt x="168" y="-143" on="0"/>
        <pt x="168" y="-118" on="1"/>
        <pt x="168" y="-89" on="0"/>
        <pt x="213" y="-32" on="0"/>
        <pt x="261" y="-3" on="1"/>
        <pt x="208" y="2" on="0"/>
        <pt x="133" y="42" on="0"/>
        <pt x="87" y="105" on="0"/>
        <pt x="66" y="186" on="0"/>
        <pt x="66" y="233" on="1"/>
        <pt x="66" y="288" on="0"/>
        <pt x="80" y="350" on="1"/>
        <pt x="156" y="710" on="1"/>
        <pt x="269" y="710" on="1"/>
        <pt x="192" y="350" on="1"/>
        <pt x="181" y="297" on="0"/>
        <pt x="181" y="253" on="1"/>
        <pt x="181" y="220" on="0"/>
        <pt x="195" y="162" on="0"/>
        <pt x="227" y="120" on="0"/>
        <pt x="279" y="96" on="0"/>
        <pt x="317" y="96" on="1"/>
        <pt x="369" y="96" on="0"/>
        <pt x="447" y="140" on="0"/>
        <pt x="504" y="211" on="0"/>
        <pt x="541" y="302" on="0"/>
        <pt x="551" y="350" on="1"/>
        <pt x="627" y="710" on="1"/>
        <pt x="740" y="710" on="1"/>
        <pt x="663" y="350" on="1"/>
        <pt x="648" y="281" on="0"/>
        <pt x="593" y="157" on="0"/>
        <pt x="509" y="61" on="0"/>
        <pt x="396" y="1" on="0"/>
        <pt x="325" y="-4" on="1"/>
        <pt x="279" y="-31" on="0"/>
        <pt x="238" y="-75" on="0"/>
        <pt x="238" y="-95" on="1"/>
        <pt x="238" y="-127" on="0"/>
        <pt x="286" y="-130" on="1"/>
        <pt x="250" y="-188" on="1"/>
      </contour>
    </TTGlyph>
    <TTGlyph name="Uring" xMin="66" yMin="-5" xMax="740" yMax="916">
      <contour>
        <pt x="384" y="829" on="1"/>
        <pt x="384" y="869" on="0"/>
        <pt x="444" y="916" on="0"/>
        <pt x="488" y="916" on="1"/>
        <pt x="523" y="916" on="0"/>
        <pt x="560" y="885" on="0"/>
        <pt x="560" y="857" on="1"/>
        <pt x="560" y="818" on="0"/>
        <pt x="502" y="770" on="0"/>
        <pt x="457" y="770" on="1"/>
        <pt x="423" y="770" on="0"/>
        <pt x="384" y="802" on="0"/>
      </contour>
      <contour>
        <pt x="480" y="880" on="1"/>
        <pt x="462" y="880" on="0"/>
        <pt x="434" y="856" on="0"/>
        <pt x="434" y="837" on="1"/>
        <pt x="434" y="824" on="0"/>
        <pt x="451" y="806" on="0"/>
        <pt x="465" y="806" on="1"/>
        <pt x="482" y="806" on="0"/>
        <pt x="512" y="831" on="0"/>
        <pt x="512" y="850" on="1"/>
        <pt x="512" y="864" on="0"/>
        <pt x="494" y="880" on="0"/>
      </contour>
      <contour>
        <pt x="296" y="-5" on="1"/>
        <pt x="233" y="-5" on="0"/>
        <pt x="145" y="32" on="0"/>
        <pt x="91" y="96" on="0"/>
        <pt x="66" y="183" on="0"/>
        <pt x="66" y="233" on="1"/>
        <pt x="66" y="288" on="0"/>
        <pt x="80" y="350" on="1"/>
        <pt x="156" y="710" on="1"/>
        <pt x="269" y="710" on="1"/>
        <pt x="192" y="350" on="1"/>
        <pt x="181" y="297" on="0"/>
        <pt x="181" y="253" on="1"/>
        <pt x="181" y="220" on="0"/>
        <pt x="195" y="162" on="0"/>
        <pt x="227" y="120" on="0"/>
        <pt x="279" y="96" on="0"/>
        <pt x="317" y="96" on="1"/>
        <pt x="369" y="96" on="0"/>
        <pt x="447" y="140" on="0"/>
        <pt x="504" y="211" on="0"/>
        <pt x="541" y="302" on="0"/>
        <pt x="551" y="350" on="1"/>
        <pt x="627" y="710" on="1"/>
        <pt x="740" y="710" on="1"/>
        <pt x="663" y="350" on="1"/>
        <pt x="648" y="277" on="0"/>
        <pt x="588" y="148" on="0"/>
        <pt x="497" y="51" on="0"/>
        <pt x="374" y="-5" on="0"/>
      </contour>
    </TTGlyph>
    <TTGlyph name="Utilde" xMin="66" yMin="-5" xMax="740" yMax="916">
      <contour>
        <pt x="296" y="-5" on="1"/>
        <pt x="233" y="-5" on="0"/>
        <pt x="145" y="32" on="0"/>
        <pt x="91" y="96" on="0"/>
        <pt x="66" y="183" on="0"/>
        <pt x="66" y="233" on="1"/>
        <pt x="66" y="288" on="0"/>
        <pt x="80" y="350" on="1"/>
        <pt x="156" y="710" on="1"/>
        <pt x="269" y="710" on="1"/>
        <pt x="192" y="350" on="1"/>
        <pt x="181" y="297" on="0"/>
        <pt x="181" y="253" on="1"/>
        <pt x="181" y="220" on="0"/>
        <pt x="195" y="162" on="0"/>
        <pt x="227" y="120" on="0"/>
        <pt x="279" y="96" on="0"/>
        <pt x="317" y="96" on="1"/>
        <pt x="369" y="96" on="0"/>
        <pt x="447" y="140" on="0"/>
        <pt x="504" y="211" on="0"/>
        <pt x="541" y="302" on="0"/>
        <pt x="551" y="350" on="1"/>
        <pt x="627" y="710" on="1"/>
        <pt x="740" y="710" on="1"/>
        <pt x="663" y="350" on="1"/>
        <pt x="648" y="277" on="0"/>
        <pt x="588" y="148" on="0"/>
        <pt x="497" y="51" on="0"/>
        <pt x="374" y="-5" on="0"/>
      </contour>
      <contour>
        <pt x="521" y="801" on="1"/>
        <pt x="500" y="801" on="0"/>
        <pt x="470" y="814" on="0"/>
        <pt x="446" y="831" on="0"/>
        <pt x="422" y="844" on="0"/>
        <pt x="406" y="844" on="1"/>
        <pt x="390" y="844" on="0"/>
        <pt x="369" y="830" on="0"/>
        <pt x="356" y="813" on="0"/>
        <pt x="351" y="797" on="0"/>
        <pt x="351" y="796" on="1"/>
        <pt x="288" y="796" on="1"/>
        <pt x="290" y="804" on="0"/>
        <pt x="308" y="842" on="0"/>
        <pt x="341" y="881" on="0"/>
        <pt x="387" y="911" on="0"/>
        <pt x="417" y="911" on="1"/>
        <pt x="438" y="911" on="0"/>
        <pt x="466" y="897" on="0"/>
        <pt x="490" y="881" on="0"/>
        <pt x="514" y="867" on="0"/>
        <pt x="531" y="867" on="1"/>
        <pt x="549" y="867" on="0"/>
        <pt x="572" y="881" on="0"/>
        <pt x="587" y="899" on="0"/>
        <pt x="594" y="914" on="0"/>
        <pt x="594" y="916" on="1"/>
        <pt x="656" y="916" on="1"/>
        <pt x="654" y="910" on="0"/>
        <pt x="636" y="872" on="0"/>
        <pt x="602" y="832" on="0"/>
        <pt x="553" y="801" on="0"/>
      </contour>
    </TTGlyph>
    <TTGlyph name="V" xMin="91" yMin="0" xMax="724" yMax="710">
      <contour>
        <pt x="91" y="710" on="1"/>
        <pt x="210" y="710" on="1"/>
        <pt x="287" y="141" on="1"/>
        <pt x="605" y="710" on="1"/>
        <pt x="724" y="710" on="1"/>
        <pt x="305" y="0" on="1"/>
        <pt x="209" y="0" on="1"/>
      </contour>
    </TTGlyph>
</ttFont>
